<?xml version="1.0" encoding="UTF-8" standalone="no"?>
<!DOCTYPE svg PUBLIC "-//W3C//DTD SVG 1.1//EN"
 "http://www.w3.org/Graphics/SVG/1.1/DTD/svg11.dtd">
<!-- Generated by graphviz version 14.1.1 (20251213.1925)
 -->
<!-- Title: cpp/src/core/CEPBridge.cpp Pages: 1 -->
<svg width="583pt" height="138pt"
 viewBox="0.00 0.00 583.00 138.00" xmlns="http://www.w3.org/2000/svg" xmlns:xlink="http://www.w3.org/1999/xlink">
<g id="graph0" class="graph" transform="scale(1 1) rotate(0) translate(4 133.75)">
<title>cpp/src/core/CEPBridge.cpp</title>
<!-- Node1 -->
<g id="Node000001" class="node">
<title>Node1</title>
<g id="a_Node000001"><a xlink:title=" ">
<polygon fill="#999999" stroke="#666666" points="346.75,-129.75 206.25,-129.75 206.25,-110.5 346.75,-110.5 346.75,-129.75"/>
<text xml:space="preserve" text-anchor="middle" x="276.5" y="-116.25" font-family="Helvetica,sans-Serif" font-size="10.00">cpp/src/core/CEPBridge.cpp</text>
</a>
</g>
</g>
<!-- Node2 -->
<g id="Node000002" class="node">
<title>Node2</title>
<g id="a_Node000002"><a xlink:href="_c_e_p_bridge_8h.html" target="_top" xlink:title=" ">
<polygon fill="white" stroke="#666666" points="73,-74.5 0,-74.5 0,-55.25 73,-55.25 73,-74.5"/>
<text xml:space="preserve" text-anchor="middle" x="36.5" y="-61" font-family="Helvetica,sans-Serif" font-size="10.00">CEPBridge.h</text>
</a>
</g>
</g>
<!-- Node1&#45;&gt;Node2 -->
<g id="edge1_Node000001_Node000002" class="edge">
<title>Node1&#45;&gt;Node2</title>
<g id="a_edge1_Node000001_Node000002"><a xlink:title=" ">
<path fill="none" stroke="#63b8ff" d="M235.52,-110.03C193.64,-100.74 128.66,-86.32 84.43,-76.51"/>
<polygon fill="#63b8ff" stroke="#63b8ff" points="85.38,-73.13 74.86,-74.39 83.86,-79.97 85.38,-73.13"/>
</a>
</g>
</g>
<!-- Node3 -->
<g id="Node000003" class="node">
<title>Node3</title>
<g id="a_Node000003"><a xlink:title=" ">
<polygon fill="#e0e0e0" stroke="#999999" points="88.5,-19.25 48.5,-19.25 48.5,0 88.5,0 88.5,-19.25"/>
<text xml:space="preserve" text-anchor="middle" x="68.5" y="-5.75" font-family="Helvetica,sans-Serif" font-size="10.00">string</text>
</a>
</g>
</g>
<!-- Node1&#45;&gt;Node3 -->
<g id="edge7_Node000001_Node000003" class="edge">
<title>Node1&#45;&gt;Node3</title>
<g id="a_edge7_Node000001_Node000003"><a xlink:title=" ">
<path fill="none" stroke="#63b8ff" d="M213.19,-110.08C183.26,-103.62 148.13,-92.72 120.5,-74.5 103,-62.96 88.49,-43.68 79.28,-29.32"/>
<polygon fill="#63b8ff" stroke="#63b8ff" points="82.29,-27.52 74.1,-20.8 76.3,-31.16 82.29,-27.52"/>
</a>
</g>
</g>
<!-- Node4 -->
<g id="Node000004" class="node">
<title>Node4</title>
<g id="a_Node000004"><a xlink:title=" ">
<polygon fill="#e0e0e0" stroke="#999999" points="171.62,-74.5 129.38,-74.5 129.38,-55.25 171.62,-55.25 171.62,-74.5"/>
<text xml:space="preserve" text-anchor="middle" x="150.5" y="-61" font-family="Helvetica,sans-Serif" font-size="10.00">cstdio</text>
</a>
</g>
</g>
<!-- Node1&#45;&gt;Node4 -->
<g id="edge3_Node000001_Node000004" class="edge">
<title>Node1&#45;&gt;Node4</title>
<g id="a_edge3_Node000001_Node000004"><a xlink:title=" ">
<path fill="none" stroke="#63b8ff" d="M255.13,-110.09C235.21,-101.68 205.26,-89.02 182.5,-79.4"/>
<polygon fill="#63b8ff" stroke="#63b8ff" points="183.95,-76.21 173.37,-75.54 181.22,-82.66 183.95,-76.21"/>
</a>
</g>
</g>
<!-- Node5 -->
<g id="Node000005" class="node">
<title>Node5</title>
<g id="a_Node000005"><a xlink:title=" ">
<polygon fill="#e0e0e0" stroke="#999999" points="233.75,-74.5 189.25,-74.5 189.25,-55.25 233.75,-55.25 233.75,-74.5"/>
<text xml:space="preserve" text-anchor="middle" x="211.5" y="-61" font-family="Helvetica,sans-Serif" font-size="10.00">cstdlib</text>
</a>
</g>
</g>
<!-- Node1&#45;&gt;Node5 -->
<g id="edge4_Node000001_Node000005" class="edge">
<title>Node1&#45;&gt;Node5</title>
<g id="a_edge4_Node000001_Node000005"><a xlink:title=" ">
<path fill="none" stroke="#63b8ff" d="M265.47,-110.09C256.08,-102.4 242.35,-91.15 231.09,-81.93"/>
<polygon fill="#63b8ff" stroke="#63b8ff" points="233.49,-79.36 223.53,-75.73 229.05,-84.78 233.49,-79.36"/>
</a>
</g>
</g>
<!-- Node6 -->
<g id="Node000006" class="node">
<title>Node6</title>
<g id="a_Node000006"><a xlink:title=" ">
<polygon fill="#e0e0e0" stroke="#999999" points="301,-74.5 252,-74.5 252,-55.25 301,-55.25 301,-74.5"/>
<text xml:space="preserve" text-anchor="middle" x="276.5" y="-61" font-family="Helvetica,sans-Serif" font-size="10.00">fstream</text>
</a>
</g>
</g>
<!-- Node1&#45;&gt;Node6 -->
<g id="edge5_Node000001_Node000006" class="edge">
<title>Node1&#45;&gt;Node6</title>
<g id="a_edge5_Node000001_Node000006"><a xlink:title=" ">
<path fill="none" stroke="#63b8ff" d="M276.5,-110.33C276.5,-103.82 276.5,-94.67 276.5,-86.37"/>
<polygon fill="#63b8ff" stroke="#63b8ff" points="280,-86.37 276.5,-76.37 273,-86.37 280,-86.37"/>
</a>
</g>
</g>
<!-- Node7 -->
<g id="Node000007" class="node">
<title>Node7</title>
<g id="a_Node000007"><a xlink:title=" ">
<polygon fill="#e0e0e0" stroke="#999999" points="370.12,-74.5 318.88,-74.5 318.88,-55.25 370.12,-55.25 370.12,-74.5"/>
<text xml:space="preserve" text-anchor="middle" x="344.5" y="-61" font-family="Helvetica,sans-Serif" font-size="10.00">sstream</text>
</a>
</g>
</g>
<!-- Node1&#45;&gt;Node7 -->
<g id="edge6_Node000001_Node000007" class="edge">
<title>Node1&#45;&gt;Node7</title>
<g id="a_edge6_Node000001_Node000007"><a xlink:title=" ">
<path fill="none" stroke="#63b8ff" d="M288.04,-110.09C297.96,-102.32 312.51,-90.92 324.36,-81.65"/>
<polygon fill="#63b8ff" stroke="#63b8ff" points="326.23,-84.63 331.94,-75.71 321.91,-79.12 326.23,-84.63"/>
</a>
</g>
</g>
<!-- Node8 -->
<g id="Node000008" class="node">
<title>Node8</title>
<g id="a_Node000008"><a xlink:title=" ">
<polygon fill="#e0e0e0" stroke="#999999" points="447.25,-74.5 387.75,-74.5 387.75,-55.25 447.25,-55.25 447.25,-74.5"/>
<text xml:space="preserve" text-anchor="middle" x="417.5" y="-61" font-family="Helvetica,sans-Serif" font-size="10.00">sys/stat.h</text>
</a>
</g>
</g>
<!-- Node1&#45;&gt;Node8 -->
<g id="edge8_Node000001_Node000008" class="edge">
<title>Node1&#45;&gt;Node8</title>
<g id="a_edge8_Node000001_Node000008"><a xlink:title=" ">
<path fill="none" stroke="#63b8ff" d="M300.42,-110.09C323,-101.56 357.14,-88.67 382.73,-79.01"/>
<polygon fill="#63b8ff" stroke="#63b8ff" points="383.93,-82.29 392.05,-75.49 381.46,-75.75 383.93,-82.29"/>
</a>
</g>
</g>
<!-- Node9 -->
<g id="Node000009" class="node">
<title>Node9</title>
<g id="a_Node000009"><a xlink:title=" ">
<polygon fill="#e0e0e0" stroke="#999999" points="508,-74.5 465,-74.5 465,-55.25 508,-55.25 508,-74.5"/>
<text xml:space="preserve" text-anchor="middle" x="486.5" y="-61" font-family="Helvetica,sans-Serif" font-size="10.00">vector</text>
</a>
</g>
</g>
<!-- Node1&#45;&gt;Node9 -->
<g id="edge9_Node000001_Node000009" class="edge">
<title>Node1&#45;&gt;Node9</title>
<g id="a_edge9_Node000001_Node000009"><a xlink:title=" ">
<path fill="none" stroke="#63b8ff" d="M314.88,-110.04C349.04,-101.87 400.63,-89.28 453.61,-75.21"/>
<polygon fill="#63b8ff" stroke="#63b8ff" points="454.35,-78.63 463.11,-72.67 452.54,-71.87 454.35,-78.63"/>
</a>
</g>
</g>
<!-- Node10 -->
<g id="Node000010" class="node">
<title>Node10</title>
<g id="a_Node000010"><a xlink:title=" ">
<polygon fill="#e0e0e0" stroke="#999999" points="574.62,-74.5 526.38,-74.5 526.38,-55.25 574.62,-55.25 574.62,-74.5"/>
<text xml:space="preserve" text-anchor="middle" x="550.5" y="-61" font-family="Helvetica,sans-Serif" font-size="10.00">direct.h</text>
</a>
</g>
</g>
<!-- Node1&#45;&gt;Node10 -->
<g id="edge10_Node000001_Node000010" class="edge">
<title>Node1&#45;&gt;Node10</title>
<g id="a_edge10_Node000001_Node000010"><a xlink:title=" ">
<path fill="none" stroke="#63b8ff" d="M331.77,-110.06C378.28,-102.18 446.77,-89.94 515.08,-74.91"/>
<polygon fill="#63b8ff" stroke="#63b8ff" points="515.56,-78.39 524.56,-72.81 514.04,-71.56 515.56,-78.39"/>
</a>
</g>
</g>
<!-- Node2&#45;&gt;Node3 -->
<g id="edge2_Node000002_Node000003" class="edge">
<title>Node2&#45;&gt;Node3</title>
<g id="a_edge2_Node000002_Node000003"><a xlink:title=" ">
<path fill="none" stroke="#63b8ff" d="M41.78,-55.08C45.97,-48.11 51.98,-38.12 57.23,-29.37"/>
<polygon fill="#63b8ff" stroke="#63b8ff" points="60.17,-31.28 62.32,-20.91 54.17,-27.68 60.17,-31.28"/>
</a>
</g>
</g>
</g>
</svg>
