<?xml version="1.0" encoding="UTF-8" standalone="no"?>
<!DOCTYPE svg PUBLIC "-//W3C//DTD SVG 1.1//EN"
 "http://www.w3.org/Graphics/SVG/1.1/DTD/svg11.dtd">
<!-- Generated by graphviz version 14.1.1 (20251213.1925)
 -->
<!-- Title: cpp/src/modules/comp/CompUI.cpp Pages: 1 -->
<svg width="182pt" height="94pt"
 viewBox="0.00 0.00 182.00 94.00" xmlns="http://www.w3.org/2000/svg" xmlns:xlink="http://www.w3.org/1999/xlink">
<g id="graph0" class="graph" transform="scale(1 1) rotate(0) translate(4 89.75)">
<title>cpp/src/modules/comp/CompUI.cpp</title>
<!-- Node1 -->
<g id="Node000001" class="node">
<title>Node1</title>
<g id="a_Node000001"><a xlink:title=" ">
<polygon fill="#999999" stroke="#666666" points="136,-85.75 21,-85.75 21,-55.25 136,-55.25 136,-85.75"/>
<text xml:space="preserve" text-anchor="start" x="29" y="-72.25" font-family="Helvetica,sans-Serif" font-size="10.00">cpp/src/modules/comp</text>
<text xml:space="preserve" text-anchor="middle" x="78.5" y="-61" font-family="Helvetica,sans-Serif" font-size="10.00">/CompUI.cpp</text>
</a>
</g>
</g>
<!-- Node2 -->
<g id="Node000002" class="node">
<title>Node2</title>
<g id="a_Node000002"><a xlink:href="_comp_u_i_8h.html" target="_top" xlink:title=" ">
<polygon fill="white" stroke="#666666" points="61,-19.25 0,-19.25 0,0 61,0 61,-19.25"/>
<text xml:space="preserve" text-anchor="middle" x="30.5" y="-5.75" font-family="Helvetica,sans-Serif" font-size="10.00">CompUI.h</text>
</a>
</g>
</g>
<!-- Node1&#45;&gt;Node2 -->
<g id="edge1_Node000001_Node000002" class="edge">
<title>Node1&#45;&gt;Node2</title>
<g id="a_edge1_Node000001_Node000002"><a xlink:title=" ">
<path fill="none" stroke="#63b8ff" d="M66.63,-54.95C60.1,-46.93 51.93,-36.92 45.02,-28.44"/>
<polygon fill="#63b8ff" stroke="#63b8ff" points="47.89,-26.41 38.86,-20.87 42.46,-30.84 47.89,-26.41"/>
</a>
</g>
</g>
<!-- Node3 -->
<g id="Node000003" class="node">
<title>Node3</title>
<g id="a_Node000003"><a xlink:href="_gdi_plus_includes_8h.html" target="_top" xlink:title=" ">
<polygon fill="white" stroke="#666666" points="174.25,-19.25 78.75,-19.25 78.75,0 174.25,0 174.25,-19.25"/>
<text xml:space="preserve" text-anchor="middle" x="126.5" y="-5.75" font-family="Helvetica,sans-Serif" font-size="10.00">GdiPlusIncludes.h</text>
</a>
</g>
</g>
<!-- Node1&#45;&gt;Node3 -->
<g id="edge2_Node000001_Node000003" class="edge">
<title>Node1&#45;&gt;Node3</title>
<g id="a_edge2_Node000001_Node000003"><a xlink:title=" ">
<path fill="none" stroke="#63b8ff" d="M90.37,-54.95C96.9,-46.93 105.07,-36.92 111.98,-28.44"/>
<polygon fill="#63b8ff" stroke="#63b8ff" points="114.54,-30.84 118.14,-20.87 109.11,-26.41 114.54,-30.84"/>
</a>
</g>
</g>
</g>
</svg>
