<?xml version="1.0" encoding="UTF-8" standalone="no"?>
<!DOCTYPE svg PUBLIC "-//W3C//DTD SVG 1.1//EN"
 "http://www.w3.org/Graphics/SVG/1.1/DTD/svg11.dtd">
<!-- Generated by graphviz version 14.1.1 (20251213.1925)
 -->
<!-- Title: cpp/src/modules/dmenu/DMenuUI.cpp Pages: 1 -->
<svg width="188pt" height="94pt"
 viewBox="0.00 0.00 188.00 94.00" xmlns="http://www.w3.org/2000/svg" xmlns:xlink="http://www.w3.org/1999/xlink">
<g id="graph0" class="graph" transform="scale(1 1) rotate(0) translate(4 89.75)">
<title>cpp/src/modules/dmenu/DMenuUI.cpp</title>
<!-- Node1 -->
<g id="Node000001" class="node">
<title>Node1</title>
<g id="a_Node000001"><a xlink:title=" ">
<polygon fill="#999999" stroke="#666666" points="142.25,-85.75 22,-85.75 22,-55.25 142.25,-55.25 142.25,-85.75"/>
<text xml:space="preserve" text-anchor="start" x="30" y="-72.25" font-family="Helvetica,sans-Serif" font-size="10.00">cpp/src/modules/dmenu</text>
<text xml:space="preserve" text-anchor="middle" x="82.12" y="-61" font-family="Helvetica,sans-Serif" font-size="10.00">/DMenuUI.cpp</text>
</a>
</g>
</g>
<!-- Node2 -->
<g id="Node000002" class="node">
<title>Node2</title>
<g id="a_Node000002"><a xlink:href="_d_menu_u_i_8h.html" target="_top" xlink:title=" ">
<polygon fill="white" stroke="#666666" points="66.25,-19.25 0,-19.25 0,0 66.25,0 66.25,-19.25"/>
<text xml:space="preserve" text-anchor="middle" x="33.12" y="-5.75" font-family="Helvetica,sans-Serif" font-size="10.00">DMenuUI.h</text>
</a>
</g>
</g>
<!-- Node1&#45;&gt;Node2 -->
<g id="edge1_Node000001_Node000002" class="edge">
<title>Node1&#45;&gt;Node2</title>
<g id="a_edge1_Node000001_Node000002"><a xlink:title=" ">
<path fill="none" stroke="#63b8ff" d="M70.01,-54.95C63.34,-46.93 55.01,-36.92 47.95,-28.44"/>
<polygon fill="#63b8ff" stroke="#63b8ff" points="50.73,-26.31 41.65,-20.86 45.35,-30.79 50.73,-26.31"/>
</a>
</g>
</g>
<!-- Node3 -->
<g id="Node000003" class="node">
<title>Node3</title>
<g id="a_Node000003"><a xlink:href="_gdi_plus_includes_8h.html" target="_top" xlink:title=" ">
<polygon fill="white" stroke="#666666" points="179.88,-19.25 84.38,-19.25 84.38,0 179.88,0 179.88,-19.25"/>
<text xml:space="preserve" text-anchor="middle" x="132.12" y="-5.75" font-family="Helvetica,sans-Serif" font-size="10.00">GdiPlusIncludes.h</text>
</a>
</g>
</g>
<!-- Node1&#45;&gt;Node3 -->
<g id="edge2_Node000001_Node000003" class="edge">
<title>Node1&#45;&gt;Node3</title>
<g id="a_edge2_Node000001_Node000003"><a xlink:title=" ">
<path fill="none" stroke="#63b8ff" d="M94.48,-54.95C101.29,-46.93 109.8,-36.92 117,-28.44"/>
<polygon fill="#63b8ff" stroke="#63b8ff" points="119.63,-30.74 123.44,-20.85 114.3,-26.21 119.63,-30.74"/>
</a>
</g>
</g>
</g>
</svg>
