<?xml version="1.0" encoding="UTF-8" standalone="no"?>
<!DOCTYPE svg PUBLIC "-//W3C//DTD SVG 1.1//EN"
 "http://www.w3.org/Graphics/SVG/1.1/DTD/svg11.dtd">
<!-- Generated by graphviz version 14.1.1 (20251213.1925)
 -->
<!-- Title: cpp/src/core/GdiPlusIncludes.h Pages: 1 -->
<svg width="387pt" height="94pt"
 viewBox="0.00 0.00 387.00 94.00" xmlns="http://www.w3.org/2000/svg" xmlns:xlink="http://www.w3.org/1999/xlink">
<g id="graph0" class="graph" transform="scale(1 1) rotate(0) translate(4 89.75)">
<title>cpp/src/core/GdiPlusIncludes.h</title>
<!-- Node1 -->
<g id="Node000001" class="node">
<title>Node1</title>
<g id="a_Node000001"><a xlink:title=" ">
<polygon fill="#999999" stroke="#666666" points="269.75,-85.75 117.25,-85.75 117.25,-66.5 269.75,-66.5 269.75,-85.75"/>
<text xml:space="preserve" text-anchor="middle" x="193.5" y="-72.25" font-family="Helvetica,sans-Serif" font-size="10.00">cpp/src/core/GdiPlusIncludes.h</text>
</a>
</g>
</g>
<!-- Node2 -->
<g id="Node000002" class="node">
<title>Node2</title>
<g id="a_Node000002"><a xlink:href="_comp_u_i_8cpp.html" target="_top" xlink:title=" ">
<polygon fill="white" stroke="#666666" points="115,-30.5 0,-30.5 0,0 115,0 115,-30.5"/>
<text xml:space="preserve" text-anchor="start" x="8" y="-17" font-family="Helvetica,sans-Serif" font-size="10.00">cpp/src/modules/comp</text>
<text xml:space="preserve" text-anchor="middle" x="57.5" y="-5.75" font-family="Helvetica,sans-Serif" font-size="10.00">/CompUI.cpp</text>
</a>
</g>
</g>
<!-- Node1&#45;&gt;Node2 -->
<g id="edge1_Node000001_Node000002" class="edge">
<title>Node1&#45;&gt;Node2</title>
<g id="a_edge1_Node000001_Node000002"><a xlink:title=" ">
<path fill="none" stroke="#63b8ff" d="M162.17,-61.56C141.02,-52.41 113.12,-40.33 91.44,-30.94"/>
<polygon fill="#63b8ff" stroke="#63b8ff" points="160.59,-64.69 171.16,-65.45 163.37,-58.27 160.59,-64.69"/>
</a>
</g>
</g>
<!-- Node3 -->
<g id="Node000003" class="node">
<title>Node3</title>
<g id="a_Node000003"><a xlink:href="_d_menu_u_i_8cpp.html" target="_top" xlink:title=" ">
<polygon fill="white" stroke="#666666" points="253.62,-30.5 133.38,-30.5 133.38,0 253.62,0 253.62,-30.5"/>
<text xml:space="preserve" text-anchor="start" x="141.38" y="-17" font-family="Helvetica,sans-Serif" font-size="10.00">cpp/src/modules/dmenu</text>
<text xml:space="preserve" text-anchor="middle" x="193.5" y="-5.75" font-family="Helvetica,sans-Serif" font-size="10.00">/DMenuUI.cpp</text>
</a>
</g>
</g>
<!-- Node1&#45;&gt;Node3 -->
<g id="edge2_Node000001_Node000003" class="edge">
<title>Node1&#45;&gt;Node3</title>
<g id="a_edge2_Node000001_Node000003"><a xlink:title=" ">
<path fill="none" stroke="#63b8ff" d="M193.5,-54.92C193.5,-46.99 193.5,-38.06 193.5,-30.78"/>
<polygon fill="#63b8ff" stroke="#63b8ff" points="190,-54.67 193.5,-64.67 197,-54.67 190,-54.67"/>
</a>
</g>
</g>
<!-- Node4 -->
<g id="Node000004" class="node">
<title>Node4</title>
<g id="a_Node000004"><a xlink:href="_text_u_i_8cpp.html" target="_top" xlink:title=" ">
<polygon fill="white" stroke="#666666" points="379.25,-30.5 271.75,-30.5 271.75,0 379.25,0 379.25,-30.5"/>
<text xml:space="preserve" text-anchor="start" x="279.75" y="-17" font-family="Helvetica,sans-Serif" font-size="10.00">cpp/src/modules/text</text>
<text xml:space="preserve" text-anchor="middle" x="325.5" y="-5.75" font-family="Helvetica,sans-Serif" font-size="10.00">/TextUI.cpp</text>
</a>
</g>
</g>
<!-- Node1&#45;&gt;Node4 -->
<g id="edge3_Node000001_Node000004" class="edge">
<title>Node1&#45;&gt;Node4</title>
<g id="a_edge3_Node000001_Node000004"><a xlink:title=" ">
<path fill="none" stroke="#63b8ff" d="M224.19,-61.44C244.68,-52.3 271.61,-40.29 292.55,-30.94"/>
<polygon fill="#63b8ff" stroke="#63b8ff" points="222.93,-58.17 215.22,-65.44 225.78,-64.56 222.93,-58.17"/>
</a>
</g>
</g>
</g>
</svg>
