<?xml version="1.0" encoding="UTF-8" standalone="no"?>
<!DOCTYPE svg PUBLIC "-//W3C//DTD SVG 1.1//EN"
 "http://www.w3.org/Graphics/SVG/1.1/DTD/svg11.dtd">
<!-- Generated by graphviz version 14.1.1 (20251213.1925)
 -->
<!-- Title: ApplyAnchorToLayers Pages: 1 -->
<svg width="268pt" height="64pt"
 viewBox="0.00 0.00 268.00 64.00" xmlns="http://www.w3.org/2000/svg" xmlns:xlink="http://www.w3.org/1999/xlink">
<g id="graph0" class="graph" transform="scale(1 1) rotate(0) translate(4 60.25)">
<title>ApplyAnchorToLayers</title>
<!-- Node1 -->
<g id="Node000001" class="node">
<title>Node1</title>
<g id="a_Node000001"><a xlink:title=" ">
<polygon fill="#999999" stroke="#666666" points="111.25,-37.25 0,-37.25 0,-18 111.25,-18 111.25,-37.25"/>
<text xml:space="preserve" text-anchor="middle" x="55.62" y="-23.75" font-family="Helvetica,sans-Serif" font-size="10.00">ApplyAnchorToLayers</text>
</a>
</g>
</g>
<!-- Node2 -->
<g id="Node000002" class="node">
<title>Node2</title>
<g id="a_Node000002"><a xlink:href="_snap_plugin_8cpp.html#a0f72b68ee1d73f4fb384810c86f286e6" target="_top" xlink:title=" ">
<polygon fill="white" stroke="#666666" points="242.38,-56.25 164.88,-56.25 164.88,-37 242.38,-37 242.38,-56.25"/>
<text xml:space="preserve" text-anchor="middle" x="203.62" y="-42.75" font-family="Helvetica,sans-Serif" font-size="10.00">ExecuteScript</text>
</a>
</g>
</g>
<!-- Node1&#45;&gt;Node2 -->
<g id="edge1_Node000001_Node000002" class="edge">
<title>Node1&#45;&gt;Node2</title>
<g id="a_edge1_Node000001_Node000002"><a xlink:title=" ">
<path fill="none" stroke="#63b8ff" d="M111.41,-34.75C125.05,-36.53 139.6,-38.42 152.98,-40.16"/>
<polygon fill="#63b8ff" stroke="#63b8ff" points="152.51,-43.63 162.88,-41.45 153.42,-36.69 152.51,-43.63"/>
</a>
</g>
</g>
<!-- Node3 -->
<g id="Node000003" class="node">
<title>Node3</title>
<g id="a_Node000003"><a xlink:href="namespace_native_u_i.html#a523b9f0311a532ee93b1d8ef5dec3f45" target="_top" xlink:title=" ">
<polygon fill="white" stroke="#666666" points="260,-19.25 147.25,-19.25 147.25,0 260,0 260,-19.25"/>
<text xml:space="preserve" text-anchor="middle" x="203.62" y="-5.75" font-family="Helvetica,sans-Serif" font-size="10.00">NativeUI::GetSettings</text>
</a>
</g>
</g>
<!-- Node1&#45;&gt;Node3 -->
<g id="edge2_Node000001_Node000003" class="edge">
<title>Node1&#45;&gt;Node3</title>
<g id="a_edge2_Node000001_Node000003"><a xlink:title=" ">
<path fill="none" stroke="#63b8ff" d="M111.41,-20.87C119.32,-19.89 127.55,-18.88 135.67,-17.88"/>
<polygon fill="#63b8ff" stroke="#63b8ff" points="136.05,-21.36 145.55,-16.66 135.2,-14.41 136.05,-21.36"/>
</a>
</g>
</g>
</g>
</svg>
