<?xml version="1.0" encoding="UTF-8" standalone="no"?>
<!DOCTYPE svg PUBLIC "-//W3C//DTD SVG 1.1//EN"
 "http://www.w3.org/Graphics/SVG/1.1/DTD/svg11.dtd">
<!-- Generated by graphviz version 14.1.1 (20251213.1925)
 -->
<!-- Title: GetPresetFilePath Pages: 1 -->
<svg width="456pt" height="101pt"
 viewBox="0.00 0.00 456.00 101.00" xmlns="http://www.w3.org/2000/svg" xmlns:xlink="http://www.w3.org/1999/xlink">

<svg id="main" version="1.1" xmlns="http://www.w3.org/2000/svg" xmlns:xlink="http://www.w3.org/1999/xlink" xml:space="preserve">

<style type="text/css"><![CDATA[
.node, .edge {opacity: 0.7;}
.node.selected, .edge.selected {opacity: 1;}
.edge:hover path { stroke: red; }
.edge:hover polygon { stroke: red; fill: red; }
]]></style>
<script type="application/ecmascript" xlink:href="svg.min.js"/>
<svg id="graph" class="graph">
<g id="graph0" class="graph" transform="scale(1 1) rotate(0) translate(4 97.25)">
<title>GetPresetFilePath</title>
<!-- Node1 -->
<g id="Node000001" class="node">
<title>Node1</title>
<g id="a_Node000001"><a xlink:title=" ">
<polygon fill="#999999" stroke="#666666" points="448,-56.25 351.75,-56.25 351.75,-37 448,-37 448,-56.25"/>
<text xml:space="preserve" text-anchor="middle" x="399.88" y="-42.75" font-family="Helvetica,sans-Serif" font-size="10.00">GetPresetFilePath</text>
</a>
</g>
</g>
<!-- Node2 -->
<g id="Node000002" class="node">
<title>Node2</title>
<g id="a_Node000002"><a xlink:href="_snap_plugin_8cpp.html#a08b4f58f017e29d76fb5b0a81172e076" target="_top" xlink:title=" ">
<polygon fill="white" stroke="#666666" points="315.75,-93.25 210.5,-93.25 210.5,-74 315.75,-74 315.75,-93.25"/>
<text xml:space="preserve" text-anchor="middle" x="263.12" y="-79.75" font-family="Helvetica,sans-Serif" font-size="10.00">LoadPresetFromSlot</text>
</a>
</g>
</g>
<!-- Node1&#45;&gt;Node2 -->
<g id="edge1_Node000001_Node000002" class="edge">
<title>Node1&#45;&gt;Node2</title>
<g id="a_edge1_Node000001_Node000002"><a xlink:title=" ">
<path fill="none" stroke="#63b8ff" d="M350.98,-59.78C334.51,-64.3 316.34,-69.29 300.9,-73.53"/>
<polygon fill="#63b8ff" stroke="#63b8ff" points="351.88,-63.16 360.59,-57.14 350.02,-56.41 351.88,-63.16"/>
</a>
</g>
</g>
<!-- Node5 -->
<g id="Node000005" class="node">
<title>Node5</title>
<g id="a_Node000005"><a xlink:href="_snap_plugin_8cpp.html#a3ca883e6e968b3ff3e3d406e328b86b7" target="_top" xlink:title=" ">
<polygon fill="white" stroke="#666666" points="307.88,-56.25 218.38,-56.25 218.38,-37 307.88,-37 307.88,-56.25"/>
<text xml:space="preserve" text-anchor="middle" x="263.12" y="-42.75" font-family="Helvetica,sans-Serif" font-size="10.00">PresetSlotExists</text>
</a>
</g>
</g>
<!-- Node1&#45;&gt;Node5 -->
<g id="edge4_Node000001_Node000005" class="edge">
<title>Node1&#45;&gt;Node5</title>
<g id="a_edge4_Node000001_Node000005"><a xlink:title=" ">
<path fill="none" stroke="#63b8ff" d="M339.92,-46.62C329.22,-46.62 318.23,-46.62 308.05,-46.62"/>
<polygon fill="#63b8ff" stroke="#63b8ff" points="339.85,-50.13 349.85,-46.63 339.85,-43.13 339.85,-50.13"/>
</a>
</g>
</g>
<!-- Node6 -->
<g id="Node000006" class="node">
<title>Node6</title>
<g id="a_Node000006"><a xlink:href="_snap_plugin_8cpp.html#aef333111850cb1f09ad0c03b5a7777be" target="_top" xlink:title=" ">
<polygon fill="white" stroke="#666666" points="310.5,-19.25 215.75,-19.25 215.75,0 310.5,0 310.5,-19.25"/>
<text xml:space="preserve" text-anchor="middle" x="263.12" y="-5.75" font-family="Helvetica,sans-Serif" font-size="10.00">SavePresetToSlot</text>
</a>
</g>
</g>
<!-- Node1&#45;&gt;Node6 -->
<g id="edge5_Node000001_Node000006" class="edge">
<title>Node1&#45;&gt;Node6</title>
<g id="a_edge5_Node000001_Node000006"><a xlink:title=" ">
<path fill="none" stroke="#63b8ff" d="M350.98,-33.47C334.51,-28.95 316.34,-23.96 300.9,-19.72"/>
<polygon fill="#63b8ff" stroke="#63b8ff" points="350.02,-36.84 360.59,-36.11 351.88,-30.09 350.02,-36.84"/>
</a>
</g>
</g>
<!-- Node3 -->
<g id="Node000003" class="node">
<title>Node3</title>
<g id="a_Node000003"><a xlink:href="_snap_plugin_8cpp.html#a6d08fca2bd60bcf863b00515610f1237" target="_top" xlink:title=" ">
<polygon fill="white" stroke="#666666" points="174.5,-56.25 119.5,-56.25 119.5,-37 174.5,-37 174.5,-56.25"/>
<text xml:space="preserve" text-anchor="middle" x="147" y="-42.75" font-family="Helvetica,sans-Serif" font-size="10.00">IdleHook</text>
</a>
</g>
</g>
<!-- Node2&#45;&gt;Node3 -->
<g id="edge2_Node000002_Node000003" class="edge">
<title>Node2&#45;&gt;Node3</title>
<g id="a_edge2_Node000002_Node000003"><a xlink:title=" ">
<path fill="none" stroke="#63b8ff" d="M220.25,-70.05C205.09,-65.14 188.4,-59.72 174.88,-55.34"/>
<polygon fill="#63b8ff" stroke="#63b8ff" points="218.91,-73.29 229.5,-73.05 221.07,-66.63 218.91,-73.29"/>
</a>
</g>
</g>
<!-- Node4 -->
<g id="Node000004" class="node">
<title>Node4</title>
<g id="a_Node000004"><a xlink:href="_snap_plugin_8cpp.html#a93ac7ff3ad6003dabd3b1a84dce8165a" target="_top" xlink:title=" ">
<polygon fill="white" stroke="#666666" points="83.5,-56.25 0,-56.25 0,-37 83.5,-37 83.5,-56.25"/>
<text xml:space="preserve" text-anchor="middle" x="41.75" y="-42.75" font-family="Helvetica,sans-Serif" font-size="10.00">EntryPointFunc</text>
</a>
</g>
</g>
<!-- Node3&#45;&gt;Node4 -->
<g id="edge3_Node000003_Node000004" class="edge">
<title>Node3&#45;&gt;Node4</title>
<g id="a_edge3_Node000003_Node000004"><a xlink:title=" ">
<path fill="none" stroke="#63b8ff" d="M107.77,-46.62C99.98,-46.62 91.77,-46.62 83.89,-46.62"/>
<polygon fill="#63b8ff" stroke="#63b8ff" points="107.63,-50.13 117.63,-46.63 107.63,-43.13 107.63,-50.13"/>
</a>
</g>
</g>
<!-- Node6&#45;&gt;Node3 -->
<g id="edge6_Node000006_Node000003" class="edge">
<title>Node6&#45;&gt;Node3</title>
<g id="a_edge6_Node000006_Node000003"><a xlink:title=" ">
<path fill="none" stroke="#63b8ff" d="M220.25,-23.2C205.09,-28.11 188.4,-33.53 174.88,-37.91"/>
<polygon fill="#63b8ff" stroke="#63b8ff" points="221.07,-26.62 229.5,-20.2 218.91,-19.96 221.07,-26.62"/>
</a>
</g>
</g>
</g>
</svg>
</svg>

<style type='text/css'>
<![CDATA[
[data-mouse-over-selected='false'] { opacity: 0.7; }
[data-mouse-over-selected='true']  { opacity: 1.0; }
]]>
</style>
<script type="application/ecmascript"><![CDATA[
document.addEventListener('DOMContentLoaded', (event) => {
  highlightEdges();
  highlightAdjacentNodes();
});
]]></script>
</svg>
