<?xml version="1.0" encoding="UTF-8" standalone="no"?>
<!DOCTYPE svg PUBLIC "-//W3C//DTD SVG 1.1//EN"
 "http://www.w3.org/Graphics/SVG/1.1/DTD/svg11.dtd">
<!-- Generated by graphviz version 14.1.1 (20251213.1925)
 -->
<!-- Title: ExecuteScript Pages: 1 -->
<svg width="594pt" height="216pt"
 viewBox="0.00 0.00 594.00 216.00" xmlns="http://www.w3.org/2000/svg" xmlns:xlink="http://www.w3.org/1999/xlink">
<g id="graph0" class="graph" transform="scale(1 1) rotate(0) translate(4 212.25)">
<title>ExecuteScript</title>
<!-- Node1 -->
<g id="Node000001" class="node">
<title>Node1</title>
<g id="a_Node000001"><a xlink:title=" ">
<polygon fill="#999999" stroke="#666666" points="586.25,-113.25 508.75,-113.25 508.75,-94 586.25,-94 586.25,-113.25"/>
<text xml:space="preserve" text-anchor="middle" x="547.5" y="-99.75" font-family="Helvetica,sans-Serif" font-size="10.00">ExecuteScript</text>
</a>
</g>
</g>
<!-- Node2 -->
<g id="Node000002" class="node">
<title>Node2</title>
<g id="a_Node000002"><a xlink:href="_snap_plugin_8cpp.html#a57b76384332094875db8c62f3e7e1e7a" target="_top" xlink:title=" ">
<polygon fill="white" stroke="#666666" points="472.75,-208.25 361.5,-208.25 361.5,-189 472.75,-189 472.75,-208.25"/>
<text xml:space="preserve" text-anchor="middle" x="417.12" y="-194.75" font-family="Helvetica,sans-Serif" font-size="10.00">ApplyAnchorToLayers</text>
</a>
</g>
</g>
<!-- Node1&#45;&gt;Node2 -->
<g id="edge1_Node000001_Node000002" class="edge">
<title>Node1&#45;&gt;Node2</title>
<g id="a_edge1_Node000001_Node000002"><a xlink:title=" ">
<path fill="none" stroke="#63b8ff" d="M531.03,-121.77C517.03,-137.34 495.22,-159.58 472.75,-174.62 464.57,-180.1 454.94,-184.82 446.06,-188.59"/>
<polygon fill="#63b8ff" stroke="#63b8ff" points="533.34,-124.44 537.31,-114.62 528.08,-119.82 533.34,-124.44"/>
</a>
</g>
</g>
<!-- Node3 -->
<g id="Node000003" class="node">
<title>Node3</title>
<g id="a_Node000003"><a xlink:href="_snap_plugin_8cpp.html#aff4336719f13243e062c7b4e9a15bc03" target="_top" xlink:title=" ">
<polygon fill="white" stroke="#666666" points="322.5,-151.25 213.5,-151.25 213.5,-132 322.5,-132 322.5,-151.25"/>
<text xml:space="preserve" text-anchor="middle" x="268" y="-137.75" font-family="Helvetica,sans-Serif" font-size="10.00">HideAndApplyAnchor</text>
</a>
</g>
</g>
<!-- Node1&#45;&gt;Node3 -->
<g id="edge11_Node000001_Node000003" class="edge">
<title>Node1&#45;&gt;Node3</title>
<g id="a_edge11_Node000001_Node000003"><a xlink:title=" ">
<path fill="none" stroke="#63b8ff" d="M522.37,-119.78C508.5,-128.09 490.37,-137.35 472.75,-141.62 422.9,-153.71 364.16,-152.11 322.58,-148.44"/>
<polygon fill="#63b8ff" stroke="#63b8ff" points="524.17,-122.78 530.79,-114.51 520.46,-116.85 524.17,-122.78"/>
</a>
</g>
</g>
<!-- Node4 -->
<g id="Node000004" class="node">
<title>Node4</title>
<g id="a_Node000004"><a xlink:href="_snap_plugin_8cpp.html#a6d08fca2bd60bcf863b00515610f1237" target="_top" xlink:title=" ">
<polygon fill="white" stroke="#666666" points="174.5,-75.25 119.5,-75.25 119.5,-56 174.5,-56 174.5,-75.25"/>
<text xml:space="preserve" text-anchor="middle" x="147" y="-61.75" font-family="Helvetica,sans-Serif" font-size="10.00">IdleHook</text>
</a>
</g>
</g>
<!-- Node1&#45;&gt;Node4 -->
<g id="edge12_Node000001_Node000004" class="edge">
<title>Node1&#45;&gt;Node4</title>
<g id="a_edge12_Node000001_Node000004"><a xlink:title=" ">
<path fill="none" stroke="#63b8ff" d="M496.88,-98.89C411.82,-90.78 240.98,-74.49 174.93,-68.19"/>
<polygon fill="#63b8ff" stroke="#63b8ff" points="496.5,-102.37 506.78,-99.84 497.16,-95.4 496.5,-102.37"/>
</a>
</g>
</g>
<!-- Node6 -->
<g id="Node000006" class="node">
<title>Node6</title>
<g id="a_Node000006"><a xlink:href="_snap_plugin_8cpp.html#a7a646671c37bed84f48b0a98a8fa3adf" target="_top" xlink:title=" ">
<polygon fill="white" stroke="#666666" points="470.12,-132.25 364.12,-132.25 364.12,-113 470.12,-113 470.12,-132.25"/>
<text xml:space="preserve" text-anchor="middle" x="417.12" y="-118.75" font-family="Helvetica,sans-Serif" font-size="10.00">ApplyCustomAnchor</text>
</a>
</g>
</g>
<!-- Node1&#45;&gt;Node6 -->
<g id="edge5_Node000001_Node000006" class="edge">
<title>Node1&#45;&gt;Node6</title>
<g id="a_edge5_Node000001_Node000006"><a xlink:title=" ">
<path fill="none" stroke="#63b8ff" d="M497.04,-110.95C488.24,-112.25 479.04,-113.61 470.17,-114.92"/>
<polygon fill="#63b8ff" stroke="#63b8ff" points="497.45,-114.42 506.83,-109.5 496.43,-107.5 497.45,-114.42"/>
</a>
</g>
</g>
<!-- Node7 -->
<g id="Node000007" class="node">
<title>Node7</title>
<g id="a_Node000007"><a xlink:href="_snap_plugin_8cpp.html#aaf110cb6a12d74a1061fb19706007607" target="_top" xlink:title=" ">
<polygon fill="white" stroke="#666666" points="318.75,-56.25 217.25,-56.25 217.25,-37 318.75,-37 318.75,-56.25"/>
<text xml:space="preserve" text-anchor="middle" x="268" y="-42.75" font-family="Helvetica,sans-Serif" font-size="10.00">HasSelectedLayers</text>
</a>
</g>
</g>
<!-- Node1&#45;&gt;Node7 -->
<g id="edge7_Node000001_Node000007" class="edge">
<title>Node1&#45;&gt;Node7</title>
<g id="a_edge7_Node000001_Node000007"><a xlink:title=" ">
<path fill="none" stroke="#63b8ff" d="M518.25,-88.56C504.82,-82.03 488.33,-74.92 472.75,-70.62 421.59,-56.52 360.96,-50.7 319.22,-48.31"/>
<polygon fill="#63b8ff" stroke="#63b8ff" points="516.43,-91.56 526.94,-92.92 519.57,-85.3 516.43,-91.56"/>
</a>
</g>
</g>
<!-- Node8 -->
<g id="Node000008" class="node">
<title>Node8</title>
<g id="a_Node000008"><a xlink:href="_snap_plugin_8cpp.html#a04a9c07c7bc73e7532c8595acfa8dc91" target="_top" xlink:title=" ">
<polygon fill="white" stroke="#666666" points="325.5,-19.25 210.5,-19.25 210.5,0 325.5,0 325.5,-19.25"/>
<text xml:space="preserve" text-anchor="middle" x="268" y="-5.75" font-family="Helvetica,sans-Serif" font-size="10.00">HasSelectedTextLayer</text>
</a>
</g>
</g>
<!-- Node1&#45;&gt;Node8 -->
<g id="edge9_Node000001_Node000008" class="edge">
<title>Node1&#45;&gt;Node8</title>
<g id="a_edge9_Node000001_Node000008"><a xlink:title=" ">
<path fill="none" stroke="#63b8ff" d="M528.29,-85.9C514.24,-73.26 493.73,-56.92 472.75,-47.62 425.87,-26.86 368.05,-17.44 325.99,-13.17"/>
<polygon fill="#63b8ff" stroke="#63b8ff" points="525.71,-88.28 535.41,-92.52 530.47,-83.15 525.71,-88.28"/>
</a>
</g>
</g>
<!-- Node2&#45;&gt;Node3 -->
<g id="edge2_Node000002_Node000003" class="edge">
<title>Node2&#45;&gt;Node3</title>
<g id="a_edge2_Node000002_Node000003"><a xlink:title=" ">
<path fill="none" stroke="#63b8ff" d="M379.44,-184.41C353.06,-174.19 318.15,-160.67 294.7,-151.58"/>
<polygon fill="#63b8ff" stroke="#63b8ff" points="378.16,-187.67 388.75,-188.02 380.69,-181.14 378.16,-187.67"/>
</a>
</g>
</g>
<!-- Node3&#45;&gt;Node4 -->
<g id="edge3_Node000003_Node000004" class="edge">
<title>Node3&#45;&gt;Node4</title>
<g id="a_edge3_Node000003_Node000004"><a xlink:title=" ">
<path fill="none" stroke="#63b8ff" d="M242.05,-125.69C218.37,-110.57 183.52,-88.31 163.56,-75.56"/>
<polygon fill="#63b8ff" stroke="#63b8ff" points="239.86,-128.44 250.17,-130.87 243.62,-122.54 239.86,-128.44"/>
</a>
</g>
</g>
<!-- Node5 -->
<g id="Node000005" class="node">
<title>Node5</title>
<g id="a_Node000005"><a xlink:href="_snap_plugin_8cpp.html#a93ac7ff3ad6003dabd3b1a84dce8165a" target="_top" xlink:title=" ">
<polygon fill="white" stroke="#666666" points="83.5,-75.25 0,-75.25 0,-56 83.5,-56 83.5,-75.25"/>
<text xml:space="preserve" text-anchor="middle" x="41.75" y="-61.75" font-family="Helvetica,sans-Serif" font-size="10.00">EntryPointFunc</text>
</a>
</g>
</g>
<!-- Node4&#45;&gt;Node5 -->
<g id="edge4_Node000004_Node000005" class="edge">
<title>Node4&#45;&gt;Node5</title>
<g id="a_edge4_Node000004_Node000005"><a xlink:title=" ">
<path fill="none" stroke="#63b8ff" d="M107.77,-65.62C99.98,-65.62 91.77,-65.62 83.89,-65.62"/>
<polygon fill="#63b8ff" stroke="#63b8ff" points="107.63,-69.13 117.63,-65.63 107.63,-62.13 107.63,-69.13"/>
</a>
</g>
</g>
<!-- Node6&#45;&gt;Node3 -->
<g id="edge6_Node000006_Node000003" class="edge">
<title>Node6&#45;&gt;Node3</title>
<g id="a_edge6_Node000006_Node000003"><a xlink:title=" ">
<path fill="none" stroke="#63b8ff" d="M352.67,-130.82C342.65,-132.11 332.38,-133.44 322.61,-134.7"/>
<polygon fill="#63b8ff" stroke="#63b8ff" points="352.87,-134.32 362.34,-129.57 351.97,-127.38 352.87,-134.32"/>
</a>
</g>
</g>
<!-- Node7&#45;&gt;Node4 -->
<g id="edge8_Node000007_Node000004" class="edge">
<title>Node7&#45;&gt;Node4</title>
<g id="a_edge8_Node000007_Node000004"><a xlink:title=" ">
<path fill="none" stroke="#63b8ff" d="M205.59,-56.43C194.72,-58.17 183.94,-59.89 174.7,-61.36"/>
<polygon fill="#63b8ff" stroke="#63b8ff" points="206.06,-59.9 215.38,-54.87 204.96,-52.99 206.06,-59.9"/>
</a>
</g>
</g>
<!-- Node8&#45;&gt;Node4 -->
<g id="edge10_Node000008_Node000004" class="edge">
<title>Node8&#45;&gt;Node4</title>
<g id="a_edge10_Node000008_Node000004"><a xlink:title=" ">
<path fill="none" stroke="#63b8ff" d="M220.24,-23.55C216.91,-24.84 213.63,-26.2 210.5,-27.62 193.16,-35.52 174.69,-47.21 162.36,-55.54"/>
<polygon fill="#63b8ff" stroke="#63b8ff" points="221.3,-26.89 229.53,-20.21 218.93,-20.3 221.3,-26.89"/>
</a>
</g>
</g>
</g>
</svg>
