<?xml version="1.0" encoding="UTF-8" standalone="no"?>
<!DOCTYPE svg PUBLIC "-//W3C//DTD SVG 1.1//EN"
 "http://www.w3.org/Graphics/SVG/1.1/DTD/svg11.dtd">
<!-- Generated by graphviz version 14.1.1 (20251213.1925)
 -->
<!-- Title: LoadSettingsFromFile Pages: 1 -->
<svg width="303pt" height="64pt"
 viewBox="0.00 0.00 303.00 64.00" xmlns="http://www.w3.org/2000/svg" xmlns:xlink="http://www.w3.org/1999/xlink">
<g id="graph0" class="graph" transform="scale(1 1) rotate(0) translate(4 60.25)">
<title>LoadSettingsFromFile</title>
<!-- Node1 -->
<g id="Node000001" class="node">
<title>Node1</title>
<g id="a_Node000001"><a xlink:title=" ">
<polygon fill="#999999" stroke="#666666" points="111.25,-37.25 0,-37.25 0,-18 111.25,-18 111.25,-37.25"/>
<text xml:space="preserve" text-anchor="middle" x="55.62" y="-23.75" font-family="Helvetica,sans-Serif" font-size="10.00">LoadSettingsFromFile</text>
</a>
</g>
</g>
<!-- Node2 -->
<g id="Node000002" class="node">
<title>Node2</title>
<g id="a_Node000002"><a xlink:href="namespace_native_u_i.html#a523b9f0311a532ee93b1d8ef5dec3f45" target="_top" xlink:title=" ">
<polygon fill="white" stroke="#666666" points="277.62,-56.25 164.88,-56.25 164.88,-37 277.62,-37 277.62,-56.25"/>
<text xml:space="preserve" text-anchor="middle" x="221.25" y="-42.75" font-family="Helvetica,sans-Serif" font-size="10.00">NativeUI::GetSettings</text>
</a>
</g>
</g>
<!-- Node1&#45;&gt;Node2 -->
<g id="edge1_Node000001_Node000002" class="edge">
<title>Node1&#45;&gt;Node2</title>
<g id="a_edge1_Node000001_Node000002"><a xlink:title=" ">
<path fill="none" stroke="#63b8ff" d="M111.56,-34C125.04,-35.57 139.62,-37.26 153.58,-38.88"/>
<polygon fill="#63b8ff" stroke="#63b8ff" points="152.78,-42.31 163.12,-39.99 153.59,-35.36 152.78,-42.31"/>
</a>
</g>
</g>
<!-- Node3 -->
<g id="Node000003" class="node">
<title>Node3</title>
<g id="a_Node000003"><a xlink:href="namespace_native_u_i.html#a709d2b278e8b45418cebfbfd95b17294" target="_top" xlink:title=" ">
<polygon fill="white" stroke="#666666" points="295.25,-19.25 147.25,-19.25 147.25,0 295.25,0 295.25,-19.25"/>
<text xml:space="preserve" text-anchor="middle" x="221.25" y="-5.75" font-family="Helvetica,sans-Serif" font-size="10.00">NativeUI::SetClipboardAnchor</text>
</a>
</g>
</g>
<!-- Node1&#45;&gt;Node3 -->
<g id="edge2_Node000001_Node000003" class="edge">
<title>Node1&#45;&gt;Node3</title>
<g id="a_edge2_Node000001_Node000003"><a xlink:title=" ">
<path fill="none" stroke="#63b8ff" d="M111.56,-21.58C119.26,-20.73 127.32,-19.85 135.41,-18.96"/>
<polygon fill="#63b8ff" stroke="#63b8ff" points="135.79,-22.44 145.35,-17.86 135.03,-15.48 135.79,-22.44"/>
</a>
</g>
</g>
</g>
</svg>
