<?xml version="1.0" encoding="UTF-8" standalone="no"?>
<!DOCTYPE svg PUBLIC "-//W3C//DTD SVG 1.1//EN"
 "http://www.w3.org/Graphics/SVG/1.1/DTD/svg11.dtd">
<!-- Generated by graphviz version 14.1.1 (20251213.1925)
 -->
<!-- Title: cpp/src/core/SnapPlugin.cpp Pages: 1 -->
<!--zoomable 138 -->

<svg id="main" version="1.1" xmlns="http://www.w3.org/2000/svg" xmlns:xlink="http://www.w3.org/1999/xlink" xml:space="preserve" onload="init(evt)">

<style type="text/css"><![CDATA[
.node, .edge {opacity: 0.7;}
.node.selected, .edge.selected {opacity: 1;}
.edge:hover path { stroke: red; }
.edge:hover polygon { stroke: red; fill: red; }
]]></style>

<defs>
  <circle id="rim" cx="0" cy="0" r="7"/>
  <circle id="rim2" cx="0" cy="0" r="3.5"/>
  <g id="zoomPlus">
    <use xlink:href="#rim" fill="#404040"><set attributeName="fill" to="#808080" begin="zoomplus.mouseover" end="zoomplus.mouseout"/></use>
    <path d="M-4,0h8M0,-4v8" fill="none" stroke="white" stroke-width="1.5" pointer-events="none"/>
  </g>
  <g id="zoomMin">
    <use xlink:href="#rim" fill="#404040"><set attributeName="fill" to="#808080" begin="zoomminus.mouseover" end="zoomminus.mouseout"/></use>
    <path d="M-4,0h8" fill="none" stroke="white" stroke-width="1.5" pointer-events="none"/>
  </g>
  <g id="arrowUp" transform="translate(30 24)">
    <use xlink:href="#rim"/>
    <path pointer-events="none" fill="none" stroke="white" stroke-width="1.5" d="M0,-3.0v7 M-2.5,-0.5L0,-3.0L2.5,-0.5"/>
  </g>
  <g id="arrowRight" transform="rotate(90) translate(36 -43)">
    <use xlink:href="#rim"/>
    <path pointer-events="none" fill="none" stroke="white" stroke-width="1.5" d="M0,-3.0v7 M-2.5,-0.5L0,-3.0L2.5,-0.5"/>
  </g>
  <g id="arrowDown" transform="rotate(180) translate(-30 -48)">
    <use xlink:href="#rim"/>
    <path pointer-events="none" fill="none" stroke="white" stroke-width="1.5" d="M0,-3.0v7 M-2.5,-0.5L0,-3.0L2.5,-0.5"/>
  </g>
  <g id="arrowLeft" transform="rotate(270) translate(-36 17)">
    <use xlink:href="#rim"/>
    <path pointer-events="none" fill="none" stroke="white" stroke-width="1.5" d="M0,-3.0v7 M-2.5,-0.5L0,-3.0L2.5,-0.5"/>
  </g>
  <g id="resetDef">
    <use xlink:href="#rim2" fill="#404040"><set attributeName="fill" to="#808080" begin="reset.mouseover" end="reset.mouseout"/></use>
  </g>
</defs>
<script type="application/ecmascript">
var viewWidth = 1393;
var viewHeight = 138;
var sectionId = 'dynsection-0';
</script>
<script type="application/ecmascript" xlink:href="svg.min.js"/>
<svg id="graph" class="graph">
<g id="viewport">
<title>cpp/src/core/SnapPlugin.cpp</title>
<!-- Node1 -->
<g id="Node000001" class="node">
<title>Node1</title>
<g id="a_Node000001"><a xlink:title=" ">
<polygon fill="#999999" stroke="#666666" points="788,-129.75 646.75,-129.75 646.75,-110.5 788,-110.5 788,-129.75"/>
<text xml:space="preserve" text-anchor="middle" x="717.38" y="-116.25" font-family="Helvetica,sans-Serif" font-size="10.00">cpp/src/core/SnapPlugin.cpp</text>
</a>
</g>
</g>
<!-- Node2 -->
<g id="Node000002" class="node">
<title>Node2</title>
<g id="a_Node000002"><a xlink:href="_snap_plugin_8h.html" target="_top" xlink:title=" ">
<polygon fill="white" stroke="#666666" points="156.25,-74.5 82.5,-74.5 82.5,-55.25 156.25,-55.25 156.25,-74.5"/>
<text xml:space="preserve" text-anchor="middle" x="119.38" y="-61" font-family="Helvetica,sans-Serif" font-size="10.00">SnapPlugin.h</text>
</a>
</g>
</g>
<!-- Node1&#45;&gt;Node2 -->
<g id="edge1_Node000001_Node000002" class="edge">
<title>Node1&#45;&gt;Node2</title>
<g id="a_edge1_Node000001_Node000002"><a xlink:title=" ">
<path fill="none" stroke="#63b8ff" d="M646.37,-115.29C541.85,-109.2 340.55,-95.79 170.38,-74.5 169.54,-74.4 168.7,-74.29 167.85,-74.18"/>
<polygon fill="#63b8ff" stroke="#63b8ff" points="168.54,-70.74 158.14,-72.77 167.54,-77.67 168.54,-70.74"/>
</a>
</g>
</g>
<!-- Node3 -->
<g id="Node000003" class="node">
<title>Node3</title>
<g id="a_Node000003"><a xlink:title=" ">
<polygon fill="#e0e0e0" stroke="#999999" points="112.75,-19.25 0,-19.25 0,0 112.75,0 112.75,-19.25"/>
<text xml:space="preserve" text-anchor="middle" x="56.38" y="-5.75" font-family="Helvetica,sans-Serif" font-size="10.00">AEGP_SuiteHandler.h</text>
</a>
</g>
</g>
<!-- Node1&#45;&gt;Node3 -->
<g id="edge19_Node000001_Node000003" class="edge">
<title>Node1&#45;&gt;Node3</title>
<g id="a_edge19_Node000001_Node000003"><a xlink:title=" ">
<path fill="none" stroke="#63b8ff" d="M646.4,-118.79C488.12,-117.39 116.76,-110.3 73.38,-74.5 60.64,-63.99 56.85,-45.12 55.97,-30.61"/>
<polygon fill="#63b8ff" stroke="#63b8ff" points="59.48,-30.75 55.82,-20.81 52.48,-30.86 59.48,-30.75"/>
</a>
</g>
</g>
<!-- Node4 -->
<g id="Node000004" class="node">
<title>Node4</title>
<g id="a_Node000004"><a xlink:title=" ">
<polygon fill="#e0e0e0" stroke="#999999" points="229.5,-19.25 133.25,-19.25 133.25,0 229.5,0 229.5,-19.25"/>
<text xml:space="preserve" text-anchor="middle" x="181.38" y="-5.75" font-family="Helvetica,sans-Serif" font-size="10.00">AE_GeneralPlug.h</text>
</a>
</g>
</g>
<!-- Node1&#45;&gt;Node4 -->
<g id="edge20_Node000001_Node000004" class="edge">
<title>Node1&#45;&gt;Node4</title>
<g id="a_edge20_Node000001_Node000004"><a xlink:title=" ">
<path fill="none" stroke="#63b8ff" d="M646.27,-117.2C513.36,-113 237.51,-101.15 203.38,-74.5 190.08,-64.12 184.78,-45.23 182.68,-30.68"/>
<polygon fill="#63b8ff" stroke="#63b8ff" points="186.18,-30.44 181.7,-20.84 179.21,-31.13 186.18,-30.44"/>
</a>
</g>
</g>
<!-- Node5 -->
<g id="Node000005" class="node">
<title>Node5</title>
<g id="a_Node000005"><a xlink:href="_keyboard_monitor_8h.html" target="_top" xlink:title=" ">
<polygon fill="white" stroke="#666666" points="309.88,-74.5 212.88,-74.5 212.88,-55.25 309.88,-55.25 309.88,-74.5"/>
<text xml:space="preserve" text-anchor="middle" x="261.38" y="-61" font-family="Helvetica,sans-Serif" font-size="10.00">KeyboardMonitor.h</text>
</a>
</g>
</g>
<!-- Node1&#45;&gt;Node5 -->
<g id="edge4_Node000001_Node000005" class="edge">
<title>Node1&#45;&gt;Node5</title>
<g id="a_edge4_Node000001_Node000005"><a xlink:title=" ">
<path fill="none" stroke="#63b8ff" d="M646.47,-111.95C569.21,-103.96 441.67,-90.26 321.34,-74.71"/>
<polygon fill="#63b8ff" stroke="#63b8ff" points="321.96,-71.26 311.59,-73.44 321.06,-78.2 321.96,-71.26"/>
</a>
</g>
</g>
<!-- Node6 -->
<g id="Node000006" class="node">
<title>Node6</title>
<g id="a_Node000006"><a xlink:href="_grid_u_i_8h.html" target="_top" xlink:title=" ">
<polygon fill="white" stroke="#666666" points="380.75,-74.5 328,-74.5 328,-55.25 380.75,-55.25 380.75,-74.5"/>
<text xml:space="preserve" text-anchor="middle" x="354.38" y="-61" font-family="Helvetica,sans-Serif" font-size="10.00">GridUI.h</text>
</a>
</g>
</g>
<!-- Node1&#45;&gt;Node6 -->
<g id="edge5_Node000001_Node000006" class="edge">
<title>Node1&#45;&gt;Node6</title>
<g id="a_edge5_Node000001_Node000006"><a xlink:title=" ">
<path fill="none" stroke="#63b8ff" d="M646.56,-111.52C582.64,-104.19 485.81,-91.93 392.15,-74.65"/>
<polygon fill="#63b8ff" stroke="#63b8ff" points="393.01,-71.25 382.54,-72.86 391.72,-78.13 393.01,-71.25"/>
</a>
</g>
</g>
<!-- Node7 -->
<g id="Node000007" class="node">
<title>Node7</title>
<g id="a_Node000007"><a xlink:href="_control_u_i_8h.html" target="_top" xlink:title=" ">
<polygon fill="white" stroke="#666666" points="465.5,-74.5 399.25,-74.5 399.25,-55.25 465.5,-55.25 465.5,-74.5"/>
<text xml:space="preserve" text-anchor="middle" x="432.38" y="-61" font-family="Helvetica,sans-Serif" font-size="10.00">ControlUI.h</text>
</a>
</g>
</g>
<!-- Node1&#45;&gt;Node7 -->
<g id="edge6_Node000001_Node000007" class="edge">
<title>Node1&#45;&gt;Node7</title>
<g id="a_edge6_Node000001_Node000007"><a xlink:title=" ">
<path fill="none" stroke="#63b8ff" d="M666.81,-110.04C620.21,-101.61 548.84,-88.57 476.8,-74.75"/>
<polygon fill="#63b8ff" stroke="#63b8ff" points="477.67,-71.35 467.19,-72.9 476.34,-78.22 477.67,-71.35"/>
</a>
</g>
</g>
<!-- Node8 -->
<g id="Node000008" class="node">
<title>Node8</title>
<g id="a_Node000008"><a xlink:href="_keyframe_u_i_8h.html" target="_top" xlink:title=" ">
<polygon fill="white" stroke="#666666" points="560.75,-74.5 484,-74.5 484,-55.25 560.75,-55.25 560.75,-74.5"/>
<text xml:space="preserve" text-anchor="middle" x="522.38" y="-61" font-family="Helvetica,sans-Serif" font-size="10.00">KeyframeUI.h</text>
</a>
</g>
</g>
<!-- Node1&#45;&gt;Node8 -->
<g id="edge7_Node000001_Node000008" class="edge">
<title>Node1&#45;&gt;Node8</title>
<g id="a_edge7_Node000001_Node000008"><a xlink:title=" ">
<path fill="none" stroke="#63b8ff" d="M684.3,-110.09C651.94,-101.26 602.45,-87.74 566.7,-77.98"/>
<polygon fill="#63b8ff" stroke="#63b8ff" points="567.65,-74.61 557.08,-75.35 565.8,-81.36 567.65,-74.61"/>
</a>
</g>
</g>
<!-- Node9 -->
<g id="Node000009" class="node">
<title>Node9</title>
<g id="a_Node000009"><a xlink:href="_align_u_i_8h.html" target="_top" xlink:title=" ">
<polygon fill="white" stroke="#666666" points="635.62,-74.5 579.12,-74.5 579.12,-55.25 635.62,-55.25 635.62,-74.5"/>
<text xml:space="preserve" text-anchor="middle" x="607.38" y="-61" font-family="Helvetica,sans-Serif" font-size="10.00">AlignUI.h</text>
</a>
</g>
</g>
<!-- Node1&#45;&gt;Node9 -->
<g id="edge8_Node000001_Node000009" class="edge">
<title>Node1&#45;&gt;Node9</title>
<g id="a_edge8_Node000001_Node000009"><a xlink:title=" ">
<path fill="none" stroke="#63b8ff" d="M698.71,-110.09C681.65,-101.83 656.13,-89.48 636.4,-79.93"/>
<polygon fill="#63b8ff" stroke="#63b8ff" points="638.01,-76.82 627.49,-75.61 634.96,-83.12 638.01,-76.82"/>
</a>
</g>
</g>
<!-- Node10 -->
<g id="Node000010" class="node">
<title>Node10</title>
<g id="a_Node000010"><a xlink:href="_text_u_i_8h.html" target="_top" xlink:title=" ">
<polygon fill="white" stroke="#666666" points="707.12,-74.5 653.62,-74.5 653.62,-55.25 707.12,-55.25 707.12,-74.5"/>
<text xml:space="preserve" text-anchor="middle" x="680.38" y="-61" font-family="Helvetica,sans-Serif" font-size="10.00">TextUI.h</text>
</a>
</g>
</g>
<!-- Node1&#45;&gt;Node10 -->
<g id="edge9_Node000001_Node000010" class="edge">
<title>Node1&#45;&gt;Node10</title>
<g id="a_edge9_Node000001_Node000010"><a xlink:title=" ">
<path fill="none" stroke="#63b8ff" d="M711.27,-110.33C706.31,-103.21 699.17,-92.93 693,-84.05"/>
<polygon fill="#63b8ff" stroke="#63b8ff" points="696.06,-82.32 687.48,-76.1 690.31,-86.31 696.06,-82.32"/>
</a>
</g>
</g>
<!-- Node11 -->
<g id="Node000011" class="node">
<title>Node11</title>
<g id="a_Node000011"><a xlink:href="_comp_u_i_8h.html" target="_top" xlink:title=" ">
<polygon fill="white" stroke="#666666" points="785.88,-74.5 724.88,-74.5 724.88,-55.25 785.88,-55.25 785.88,-74.5"/>
<text xml:space="preserve" text-anchor="middle" x="755.38" y="-61" font-family="Helvetica,sans-Serif" font-size="10.00">CompUI.h</text>
</a>
</g>
</g>
<!-- Node1&#45;&gt;Node11 -->
<g id="edge10_Node000001_Node000011" class="edge">
<title>Node1&#45;&gt;Node11</title>
<g id="a_edge10_Node000001_Node000011"><a xlink:title=" ">
<path fill="none" stroke="#63b8ff" d="M723.65,-110.33C728.73,-103.21 736.07,-92.93 742.41,-84.05"/>
<polygon fill="#63b8ff" stroke="#63b8ff" points="745.12,-86.26 748.08,-76.09 739.43,-82.2 745.12,-86.26"/>
</a>
</g>
</g>
<!-- Node12 -->
<g id="Node000012" class="node">
<title>Node12</title>
<g id="a_Node000012"><a xlink:href="_d_menu_u_i_8h.html" target="_top" xlink:title=" ">
<polygon fill="white" stroke="#666666" points="870.5,-74.5 804.25,-74.5 804.25,-55.25 870.5,-55.25 870.5,-74.5"/>
<text xml:space="preserve" text-anchor="middle" x="837.38" y="-61" font-family="Helvetica,sans-Serif" font-size="10.00">DMenuUI.h</text>
</a>
</g>
</g>
<!-- Node1&#45;&gt;Node12 -->
<g id="edge11_Node000001_Node000012" class="edge">
<title>Node1&#45;&gt;Node12</title>
<g id="a_edge11_Node000001_Node000012"><a xlink:title=" ">
<path fill="none" stroke="#63b8ff" d="M737.73,-110.09C756.61,-101.72 784.96,-89.13 806.6,-79.53"/>
<polygon fill="#63b8ff" stroke="#63b8ff" points="807.81,-82.82 815.54,-75.57 804.98,-76.42 807.81,-82.82"/>
</a>
</g>
</g>
<!-- Node13 -->
<g id="Node000013" class="node">
<title>Node13</title>
<g id="a_Node000013"><a xlink:href="_c_e_p_bridge_8h.html" target="_top" xlink:title=" ">
<polygon fill="white" stroke="#666666" points="961.88,-74.5 888.88,-74.5 888.88,-55.25 961.88,-55.25 961.88,-74.5"/>
<text xml:space="preserve" text-anchor="middle" x="925.38" y="-61" font-family="Helvetica,sans-Serif" font-size="10.00">CEPBridge.h</text>
</a>
</g>
</g>
<!-- Node1&#45;&gt;Node13 -->
<g id="edge12_Node000001_Node000013" class="edge">
<title>Node1&#45;&gt;Node13</title>
<g id="a_edge12_Node000001_Node000013"><a xlink:title=" ">
<path fill="none" stroke="#63b8ff" d="M752.66,-110.09C787.47,-101.18 840.88,-87.51 879.08,-77.73"/>
<polygon fill="#63b8ff" stroke="#63b8ff" points="879.63,-81.2 888.45,-75.33 877.9,-74.42 879.63,-81.2"/>
</a>
</g>
</g>
<!-- Node15 -->
<g id="Node000015" class="node">
<title>Node15</title>
<g id="a_Node000015"><a xlink:title=" ">
<polygon fill="#e0e0e0" stroke="#999999" points="1025,-74.5 979.75,-74.5 979.75,-55.25 1025,-55.25 1025,-74.5"/>
<text xml:space="preserve" text-anchor="middle" x="1002.38" y="-61" font-family="Helvetica,sans-Serif" font-size="10.00">chrono</text>
</a>
</g>
</g>
<!-- Node1&#45;&gt;Node15 -->
<g id="edge14_Node000001_Node000015" class="edge">
<title>Node1&#45;&gt;Node15</title>
<g id="a_edge14_Node000001_Node000015"><a xlink:title=" ">
<path fill="none" stroke="#63b8ff" d="M779.04,-110.01C828.06,-102.38 898.59,-90.53 968.25,-75.05"/>
<polygon fill="#63b8ff" stroke="#63b8ff" points="968.95,-78.48 977.94,-72.86 967.41,-71.65 968.95,-78.48"/>
</a>
</g>
</g>
<!-- Node16 -->
<g id="Node000016" class="node">
<title>Node16</title>
<g id="a_Node000016"><a xlink:title=" ">
<polygon fill="#e0e0e0" stroke="#999999" points="1091.5,-74.5 1043.25,-74.5 1043.25,-55.25 1091.5,-55.25 1091.5,-74.5"/>
<text xml:space="preserve" text-anchor="middle" x="1067.38" y="-61" font-family="Helvetica,sans-Serif" font-size="10.00">cstdarg</text>
</a>
</g>
</g>
<!-- Node1&#45;&gt;Node16 -->
<g id="edge15_Node000001_Node000016" class="edge">
<title>Node1&#45;&gt;Node16</title>
<g id="a_edge15_Node000001_Node000016"><a xlink:title=" ">
<path fill="none" stroke="#63b8ff" d="M788.28,-111.53C850.2,-104.35 942.69,-92.33 1031.81,-74.82"/>
<polygon fill="#63b8ff" stroke="#63b8ff" points="1032.33,-78.28 1041.46,-72.89 1030.96,-71.42 1032.33,-78.28"/>
</a>
</g>
</g>
<!-- Node17 -->
<g id="Node000017" class="node">
<title>Node17</title>
<g id="a_Node000017"><a xlink:title=" ">
<polygon fill="#e0e0e0" stroke="#999999" points="1151.5,-74.5 1109.25,-74.5 1109.25,-55.25 1151.5,-55.25 1151.5,-74.5"/>
<text xml:space="preserve" text-anchor="middle" x="1130.38" y="-61" font-family="Helvetica,sans-Serif" font-size="10.00">cstdio</text>
</a>
</g>
</g>
<!-- Node1&#45;&gt;Node17 -->
<g id="edge16_Node000001_Node000017" class="edge">
<title>Node1&#45;&gt;Node17</title>
<g id="a_edge16_Node000001_Node000017"><a xlink:title=" ">
<path fill="none" stroke="#63b8ff" d="M788.16,-114.37C862.95,-108.56 984.43,-96.91 1097.58,-74.77"/>
<polygon fill="#63b8ff" stroke="#63b8ff" points="1098.24,-78.2 1107.36,-72.82 1096.87,-71.34 1098.24,-78.2"/>
</a>
</g>
</g>
<!-- Node18 -->
<g id="Node000018" class="node">
<title>Node18</title>
<g id="a_Node000018"><a xlink:title=" ">
<polygon fill="#e0e0e0" stroke="#999999" points="1215,-74.5 1169.75,-74.5 1169.75,-55.25 1215,-55.25 1215,-74.5"/>
<text xml:space="preserve" text-anchor="middle" x="1192.38" y="-61" font-family="Helvetica,sans-Serif" font-size="10.00">cstring</text>
</a>
</g>
</g>
<!-- Node1&#45;&gt;Node18 -->
<g id="edge17_Node000001_Node000018" class="edge">
<title>Node1&#45;&gt;Node18</title>
<g id="a_edge17_Node000001_Node000018"><a xlink:title=" ">
<path fill="none" stroke="#63b8ff" d="M788.46,-115.54C874.07,-110.42 1022.3,-99.02 1158.38,-74.56"/>
<polygon fill="#63b8ff" stroke="#63b8ff" points="1158.71,-78.06 1167.92,-72.82 1157.45,-71.17 1158.71,-78.06"/>
</a>
</g>
</g>
<!-- Node19 -->
<g id="Node000019" class="node">
<title>Node19</title>
<g id="a_Node000019"><a xlink:title=" ">
<polygon fill="#e0e0e0" stroke="#999999" points="1291.75,-74.5 1233,-74.5 1233,-55.25 1291.75,-55.25 1291.75,-74.5"/>
<text xml:space="preserve" text-anchor="middle" x="1262.38" y="-61" font-family="Helvetica,sans-Serif" font-size="10.00">stdexcept</text>
</a>
</g>
</g>
<!-- Node1&#45;&gt;Node19 -->
<g id="edge18_Node000001_Node000019" class="edge">
<title>Node1&#45;&gt;Node19</title>
<g id="a_edge18_Node000001_Node000019"><a xlink:title=" ">
<path fill="none" stroke="#63b8ff" d="M788.28,-115.92C884.43,-110.9 1061.67,-99.26 1221.58,-74.75"/>
<polygon fill="#63b8ff" stroke="#63b8ff" points="1221.74,-78.27 1231.08,-73.27 1220.66,-71.35 1221.74,-78.27"/>
</a>
</g>
</g>
<!-- Node20 -->
<g id="Node000020" class="node">
<title>Node20</title>
<g id="a_Node000020"><a xlink:title=" ">
<polygon fill="#e0e0e0" stroke="#999999" points="1385,-74.5 1309.75,-74.5 1309.75,-55.25 1385,-55.25 1385,-74.5"/>
<text xml:space="preserve" text-anchor="middle" x="1347.38" y="-61" font-family="Helvetica,sans-Serif" font-size="10.00">AE_Macros.h</text>
</a>
</g>
</g>
<!-- Node1&#45;&gt;Node20 -->
<g id="edge21_Node000001_Node000020" class="edge">
<title>Node1&#45;&gt;Node20</title>
<g id="a_edge21_Node000001_Node000020"><a xlink:title=" ">
<path fill="none" stroke="#63b8ff" d="M788.07,-116.11C895.85,-110.99 1107.91,-98.84 1298.12,-74.65"/>
<polygon fill="#63b8ff" stroke="#63b8ff" points="1298.49,-78.13 1307.96,-73.38 1297.6,-71.18 1298.49,-78.13"/>
</a>
</g>
</g>
<!-- Node2&#45;&gt;Node3 -->
<g id="edge2_Node000002_Node000003" class="edge">
<title>Node2&#45;&gt;Node3</title>
<g id="a_edge2_Node000002_Node000003"><a xlink:title=" ">
<path fill="none" stroke="#63b8ff" d="M108.69,-54.84C99.67,-47.22 86.54,-36.12 75.69,-26.95"/>
<polygon fill="#63b8ff" stroke="#63b8ff" points="77.96,-24.28 68.06,-20.5 73.44,-29.63 77.96,-24.28"/>
</a>
</g>
</g>
<!-- Node2&#45;&gt;Node4 -->
<g id="edge3_Node000002_Node000004" class="edge">
<title>Node2&#45;&gt;Node4</title>
<g id="a_edge3_Node000002_Node000004"><a xlink:title=" ">
<path fill="none" stroke="#63b8ff" d="M129.89,-54.84C138.76,-47.22 151.69,-36.12 162.36,-26.95"/>
<polygon fill="#63b8ff" stroke="#63b8ff" points="164.56,-29.68 169.86,-20.51 160,-24.37 164.56,-29.68"/>
</a>
</g>
</g>
<!-- Node14 -->
<g id="Node000014" class="node">
<title>Node14</title>
<g id="a_Node000014"><a xlink:title=" ">
<polygon fill="#e0e0e0" stroke="#999999" points="945.38,-19.25 905.38,-19.25 905.38,0 945.38,0 945.38,-19.25"/>
<text xml:space="preserve" text-anchor="middle" x="925.38" y="-5.75" font-family="Helvetica,sans-Serif" font-size="10.00">string</text>
</a>
</g>
</g>
<!-- Node13&#45;&gt;Node14 -->
<g id="edge13_Node000013_Node000014" class="edge">
<title>Node13&#45;&gt;Node14</title>
<g id="a_edge13_Node000013_Node000014"><a xlink:title=" ">
<path fill="none" stroke="#63b8ff" d="M925.38,-55.08C925.38,-48.57 925.38,-39.42 925.38,-31.12"/>
<polygon fill="#63b8ff" stroke="#63b8ff" points="928.88,-31.12 925.38,-21.12 921.88,-31.12 928.88,-31.12"/>
</a>
</g>
</g>
</g>
</svg>

<g id="navigator" transform="translate(0 0)" fill="#404254">
  <rect fill="#f2f5e9" fill-opacity="0.5" stroke="#606060" stroke-width=".5" x="0" y="0" width="60" height="60"/>
  <use id="zoomplus" xlink:href="#zoomPlus" x="17" y="9" onmousedown="handleZoom(evt,'in')"/>
  <use id="zoomminus" xlink:href="#zoomMin" x="42" y="9" onmousedown="handleZoom(evt,'out')"/>
  <use id="reset" xlink:href="#resetDef" x="30" y="36" onmousedown="handleReset()"/>
   <use id="arrowup" xlink:href="#arrowUp" x="0" y="0" onmousedown="handlePan(0,-1)"/>
  <use id="arrowright" xlink:href="#arrowRight" x="0" y="0" onmousedown="handlePan(1,0)"/>
  <use id="arrowdown" xlink:href="#arrowDown" x="0" y="0" onmousedown="handlePan(0,1)"/>
  <use id="arrowleft" xlink:href="#arrowLeft" x="0" y="0" onmousedown="handlePan(-1,0)"/>
</g>
<svg viewBox="0 0 15 15" width="100%" height="30px" preserveAspectRatio="xMaxYMin meet">
 <g id="arrow_out" transform="scale(0.3 0.3)">
  <a xlink:href="_snap_plugin_8cpp__incl_org.svg" target="_base">
   <rect id="button" ry="5" rx="5" y="6" x="6" height="38" width="38"
        fill="#f2f5e9" fill-opacity="0.5" stroke="#606060" stroke-width="1.0"/>
   <path id="arrow"
     d="M 11.500037,31.436501 C 11.940474,20.09759 22.043105,11.32322 32.158766,21.979434 L 37.068811,17.246167 C 37.068811,17.246167 37.088388,32 37.088388,32 L 22.160133,31.978069 C 22.160133,31.978069 26.997745,27.140456 26.997745,27.140456 C 18.528582,18.264221 13.291696,25.230495 11.500037,31.436501 z"
     style="fill:#404040;"/>
  </a>
 </g>
</svg>

<style type='text/css'>
<![CDATA[
[data-mouse-over-selected='false'] { opacity: 0.7; }
[data-mouse-over-selected='true']  { opacity: 1.0; }
]]>
</style>
<script type="application/ecmascript"><![CDATA[
document.addEventListener('DOMContentLoaded', (event) => {
  highlightEdges();
  highlightAdjacentNodes();
});
]]></script>
</svg>
