<?xml version="1.0" encoding="UTF-8" standalone="no"?>
<!DOCTYPE svg PUBLIC "-//W3C//DTD SVG 1.1//EN"
 "http://www.w3.org/Graphics/SVG/1.1/DTD/svg11.dtd">
<!-- Generated by graphviz version 14.1.1 (20251213.1925)
 -->
<!-- Title: HideAndApplyAnchor Pages: 1 -->
<svg width="453pt" height="480pt"
 viewBox="0.00 0.00 453.00 480.00" xmlns="http://www.w3.org/2000/svg" xmlns:xlink="http://www.w3.org/1999/xlink">
<g id="graph0" class="graph" transform="scale(1 1) rotate(0) translate(4 475.9)">
<title>HideAndApplyAnchor</title>
<!-- Node1 -->
<g id="Node000001" class="node">
<title>Node1</title>
<g id="a_Node000001"><a xlink:title=" ">
<polygon fill="#999999" stroke="#666666" points="109,-253.25 0,-253.25 0,-234 109,-234 109,-253.25"/>
<text xml:space="preserve" text-anchor="middle" x="54.5" y="-239.75" font-family="Helvetica,sans-Serif" font-size="10.00">HideAndApplyAnchor</text>
</a>
</g>
</g>
<!-- Node2 -->
<g id="Node000002" class="node">
<title>Node2</title>
<g id="a_Node000002"><a xlink:href="_snap_plugin_8cpp.html#a57b76384332094875db8c62f3e7e1e7a" target="_top" xlink:title=" ">
<polygon fill="white" stroke="#666666" points="276.12,-403.25 164.88,-403.25 164.88,-384 276.12,-384 276.12,-403.25"/>
<text xml:space="preserve" text-anchor="middle" x="220.5" y="-389.75" font-family="Helvetica,sans-Serif" font-size="10.00">ApplyAnchorToLayers</text>
</a>
</g>
</g>
<!-- Node1&#45;&gt;Node2 -->
<g id="edge1_Node000001_Node000002" class="edge">
<title>Node1&#45;&gt;Node2</title>
<g id="a_edge1_Node000001_Node000002"><a xlink:title=" ">
<path fill="none" stroke="#63b8ff" d="M59.77,-253.45C70.53,-277.07 101.07,-337.43 145,-369.62 150.27,-373.48 156.18,-376.74 162.31,-379.48"/>
<polygon fill="#63b8ff" stroke="#63b8ff" points="160.77,-382.64 171.36,-383.07 163.35,-376.13 160.77,-382.64"/>
</a>
</g>
</g>
<!-- Node3 -->
<g id="Node000003" class="node">
<title>Node3</title>
<g id="a_Node000003"><a xlink:href="_snap_plugin_8cpp.html#a0f72b68ee1d73f4fb384810c86f286e6" target="_top" xlink:title=" ">
<polygon fill="white" stroke="#666666" points="427.12,-440.25 349.62,-440.25 349.62,-421 427.12,-421 427.12,-440.25"/>
<text xml:space="preserve" text-anchor="middle" x="388.38" y="-426.75" font-family="Helvetica,sans-Serif" font-size="10.00">ExecuteScript</text>
</a>
</g>
</g>
<!-- Node1&#45;&gt;Node3 -->
<g id="edge6_Node000001_Node000003" class="edge">
<title>Node1&#45;&gt;Node3</title>
<g id="a_edge6_Node000001_Node000003"><a xlink:title=" ">
<path fill="none" stroke="#63b8ff" d="M56.17,-253.28C59.13,-287.47 74.24,-403.22 145,-449.62 209.31,-491.8 304.87,-464.31 354.61,-444.96"/>
<polygon fill="#63b8ff" stroke="#63b8ff" points="355.7,-448.29 363.67,-441.31 353.09,-441.8 355.7,-448.29"/>
</a>
</g>
</g>
<!-- Node4 -->
<g id="Node000004" class="node">
<title>Node4</title>
<g id="a_Node000004"><a xlink:href="namespace_native_u_i.html#a523b9f0311a532ee93b1d8ef5dec3f45" target="_top" xlink:title=" ">
<polygon fill="white" stroke="#666666" points="444.75,-365.25 332,-365.25 332,-346 444.75,-346 444.75,-365.25"/>
<text xml:space="preserve" text-anchor="middle" x="388.38" y="-351.75" font-family="Helvetica,sans-Serif" font-size="10.00">NativeUI::GetSettings</text>
</a>
</g>
</g>
<!-- Node1&#45;&gt;Node4 -->
<g id="edge11_Node000001_Node000004" class="edge">
<title>Node1&#45;&gt;Node4</title>
<g id="a_edge11_Node000001_Node000004"><a xlink:title=" ">
<path fill="none" stroke="#63b8ff" d="M61.4,-253.46C73.92,-273.31 105.29,-317.86 145,-336.62 199.88,-362.55 269.58,-365.35 320.14,-362.82"/>
<polygon fill="#63b8ff" stroke="#63b8ff" points="320.3,-366.31 330.07,-362.23 319.88,-359.33 320.3,-366.31"/>
</a>
</g>
</g>
<!-- Node5 -->
<g id="Node000005" class="node">
<title>Node5</title>
<g id="a_Node000005"><a xlink:href="_snap_plugin_8cpp.html#a7a646671c37bed84f48b0a98a8fa3adf" target="_top" xlink:title=" ">
<polygon fill="white" stroke="#666666" points="273.5,-440.25 167.5,-440.25 167.5,-421 273.5,-421 273.5,-440.25"/>
<text xml:space="preserve" text-anchor="middle" x="220.5" y="-426.75" font-family="Helvetica,sans-Serif" font-size="10.00">ApplyCustomAnchor</text>
</a>
</g>
</g>
<!-- Node1&#45;&gt;Node5 -->
<g id="edge4_Node000001_Node000005" class="edge">
<title>Node1&#45;&gt;Node5</title>
<g id="a_edge4_Node000001_Node000005"><a xlink:title=" ">
<path fill="none" stroke="#63b8ff" d="M57.7,-253.47C64.75,-282.71 89.68,-369.65 145,-412.62 148.56,-415.39 152.49,-417.74 156.62,-419.74"/>
<polygon fill="#63b8ff" stroke="#63b8ff" points="155.23,-422.95 165.81,-423.44 157.84,-416.46 155.23,-422.95"/>
</a>
</g>
</g>
<!-- Node6 -->
<g id="Node000006" class="node">
<title>Node6</title>
<g id="a_Node000006"><a xlink:href="namespace_native_u_i.html#a8ad2b9aa0bc4b5f3280c982d8b43cafa" target="_top" xlink:title=" ">
<polygon fill="white" stroke="#666666" points="294.88,-327.25 146.12,-327.25 146.12,-308 294.88,-308 294.88,-327.25"/>
<text xml:space="preserve" text-anchor="middle" x="220.5" y="-313.75" font-family="Helvetica,sans-Serif" font-size="10.00">NativeUI::GetClipboardAnchor</text>
</a>
</g>
</g>
<!-- Node1&#45;&gt;Node6 -->
<g id="edge7_Node000001_Node000006" class="edge">
<title>Node1&#45;&gt;Node6</title>
<g id="a_edge7_Node000001_Node000006"><a xlink:title=" ">
<path fill="none" stroke="#63b8ff" d="M68.41,-253.59C85.17,-266.08 115.77,-287.33 145,-299.62 149.02,-301.32 153.24,-302.87 157.54,-304.3"/>
<polygon fill="#63b8ff" stroke="#63b8ff" points="156.27,-307.57 166.85,-307.13 158.3,-300.87 156.27,-307.57"/>
</a>
</g>
</g>
<!-- Node7 -->
<g id="Node000007" class="node">
<title>Node7</title>
<g id="a_Node000007"><a xlink:href="namespace_native_u_i.html#a5b9711012167cf84ff4d9a2927d8faa7" target="_top" xlink:title=" ">
<polygon fill="white" stroke="#666666" points="280.62,-290.25 160.38,-290.25 160.38,-271 280.62,-271 280.62,-290.25"/>
<text xml:space="preserve" text-anchor="middle" x="220.5" y="-276.75" font-family="Helvetica,sans-Serif" font-size="10.00">NativeUI::GetHoverCell</text>
</a>
</g>
</g>
<!-- Node1&#45;&gt;Node7 -->
<g id="edge8_Node000001_Node000007" class="edge">
<title>Node1&#45;&gt;Node7</title>
<g id="a_edge8_Node000001_Node000007"><a xlink:title=" ">
<path fill="none" stroke="#63b8ff" d="M100.31,-253.74C119.84,-258.14 142.93,-263.35 163.57,-268.01"/>
<polygon fill="#63b8ff" stroke="#63b8ff" points="162.74,-271.41 173.26,-270.19 164.28,-264.58 162.74,-271.41"/>
</a>
</g>
</g>
<!-- Node8 -->
<g id="Node000008" class="node">
<title>Node8</title>
<g id="a_Node000008"><a xlink:href="namespace_native_u_i.html#ab13c31c94ab62f5f089b1595ecd5b961" target="_top" xlink:title=" ">
<polygon fill="white" stroke="#666666" points="293.75,-253.25 147.25,-253.25 147.25,-234 293.75,-234 293.75,-253.25"/>
<text xml:space="preserve" text-anchor="middle" x="220.5" y="-239.75" font-family="Helvetica,sans-Serif" font-size="10.00">NativeUI::GetHoverExtOption</text>
</a>
</g>
</g>
<!-- Node1&#45;&gt;Node8 -->
<g id="edge9_Node000001_Node000008" class="edge">
<title>Node1&#45;&gt;Node8</title>
<g id="a_edge9_Node000001_Node000008"><a xlink:title=" ">
<path fill="none" stroke="#63b8ff" d="M109.2,-243.62C117.67,-243.62 126.61,-243.62 135.57,-243.62"/>
<polygon fill="#63b8ff" stroke="#63b8ff" points="135.39,-247.13 145.39,-243.63 135.39,-240.13 135.39,-247.13"/>
</a>
</g>
</g>
<!-- Node9 -->
<g id="Node000009" class="node">
<title>Node9</title>
<g id="a_Node000009"><a xlink:href="namespace_keyboard_monitor.html#ab54e561c206e4c0f00e1138a9b9bab28" target="_top" xlink:title=" ">
<polygon fill="white" stroke="#666666" points="290.75,-215.88 150.25,-215.88 150.25,-185.38 290.75,-185.38 290.75,-215.88"/>
<text xml:space="preserve" text-anchor="start" x="158.25" y="-202.38" font-family="Helvetica,sans-Serif" font-size="10.00">KeyboardMonitor::GetMouse</text>
<text xml:space="preserve" text-anchor="middle" x="220.5" y="-191.12" font-family="Helvetica,sans-Serif" font-size="10.00">Position</text>
</a>
</g>
</g>
<!-- Node1&#45;&gt;Node9 -->
<g id="edge10_Node000001_Node000009" class="edge">
<title>Node1&#45;&gt;Node9</title>
<g id="a_edge10_Node000001_Node000009"><a xlink:title=" ">
<path fill="none" stroke="#63b8ff" d="M93.95,-233.54C110.25,-229.27 129.79,-224.15 148.55,-219.23"/>
<polygon fill="#63b8ff" stroke="#63b8ff" points="149.22,-222.67 158,-216.75 147.44,-215.9 149.22,-222.67"/>
</a>
</g>
</g>
<!-- Node10 -->
<g id="Node000010" class="node">
<title>Node10</title>
<g id="a_Node000010"><a xlink:href="namespace_native_u_i.html#ae72553094c0928ee7277071d50ae0865" target="_top" xlink:title=" ">
<polygon fill="white" stroke="#666666" points="296,-167.25 145,-167.25 145,-148 296,-148 296,-167.25"/>
<text xml:space="preserve" text-anchor="middle" x="220.5" y="-153.75" font-family="Helvetica,sans-Serif" font-size="10.00">NativeUI::HasClipboardAnchor</text>
</a>
</g>
</g>
<!-- Node1&#45;&gt;Node10 -->
<g id="edge12_Node000001_Node000010" class="edge">
<title>Node1&#45;&gt;Node10</title>
<g id="a_edge12_Node000001_Node000010"><a xlink:title=" ">
<path fill="none" stroke="#63b8ff" d="M65.88,-233.65C81.69,-219 113.31,-191.78 145,-176.62 149.2,-174.62 153.64,-172.8 158.17,-171.17"/>
<polygon fill="#63b8ff" stroke="#63b8ff" points="159,-174.58 167.42,-168.14 156.82,-167.93 159,-174.58"/>
</a>
</g>
</g>
<!-- Node11 -->
<g id="Node000011" class="node">
<title>Node11</title>
<g id="a_Node000011"><a xlink:href="namespace_native_u_i.html#a9ae4b3ccd0504157ae8a195ee30424f5" target="_top" xlink:title=" ">
<polygon fill="white" stroke="#666666" points="270.12,-130.25 170.88,-130.25 170.88,-111 270.12,-111 270.12,-130.25"/>
<text xml:space="preserve" text-anchor="middle" x="220.5" y="-116.75" font-family="Helvetica,sans-Serif" font-size="10.00">NativeUI::HideGrid</text>
</a>
</g>
</g>
<!-- Node1&#45;&gt;Node11 -->
<g id="edge13_Node000001_Node000011" class="edge">
<title>Node1&#45;&gt;Node11</title>
<g id="a_edge13_Node000001_Node000011"><a xlink:title=" ">
<path fill="none" stroke="#63b8ff" d="M60.98,-233.72C73.15,-212.69 104.59,-163.45 145,-138.62 149.58,-135.81 154.56,-133.44 159.72,-131.44"/>
<polygon fill="#63b8ff" stroke="#63b8ff" points="160.65,-134.81 169.02,-128.31 158.42,-128.18 160.65,-134.81"/>
</a>
</g>
</g>
<!-- Node12 -->
<g id="Node000012" class="node">
<title>Node12</title>
<g id="a_Node000012"><a xlink:href="_snap_plugin_8cpp.html#a5f0783700863c7694762151fe3a84e1a" target="_top" xlink:title=" ">
<polygon fill="white" stroke="#666666" points="288.88,-93.25 152.12,-93.25 152.12,-74 288.88,-74 288.88,-93.25"/>
<text xml:space="preserve" text-anchor="middle" x="220.5" y="-79.75" font-family="Helvetica,sans-Serif" font-size="10.00">SaveClipboardAnchorToFile</text>
</a>
</g>
</g>
<!-- Node1&#45;&gt;Node12 -->
<g id="edge14_Node000001_Node000012" class="edge">
<title>Node1&#45;&gt;Node12</title>
<g id="a_edge14_Node000001_Node000012"><a xlink:title=" ">
<path fill="none" stroke="#63b8ff" d="M58.7,-233.88C67.73,-207.94 96,-136.81 145,-101.62 146.38,-100.63 147.82,-99.69 149.29,-98.8"/>
<polygon fill="#63b8ff" stroke="#63b8ff" points="150.79,-101.96 158.15,-94.34 147.64,-95.71 150.79,-101.96"/>
</a>
</g>
</g>
<!-- Node13 -->
<g id="Node000013" class="node">
<title>Node13</title>
<g id="a_Node000013"><a xlink:href="_snap_plugin_8cpp.html#ab45444e0a984fceb84eb1d24951a2836" target="_top" xlink:title=" ">
<polygon fill="white" stroke="#666666" points="270.88,-56.25 170.12,-56.25 170.12,-37 270.88,-37 270.88,-56.25"/>
<text xml:space="preserve" text-anchor="middle" x="220.5" y="-42.75" font-family="Helvetica,sans-Serif" font-size="10.00">SaveSettingsToFile</text>
</a>
</g>
</g>
<!-- Node1&#45;&gt;Node13 -->
<g id="edge15_Node000001_Node000013" class="edge">
<title>Node1&#45;&gt;Node13</title>
<g id="a_edge15_Node000001_Node000013"><a xlink:title=" ">
<path fill="none" stroke="#63b8ff" d="M57.41,-233.64C63.81,-203.15 87.36,-110.49 145,-64.62 149.27,-61.23 154.07,-58.46 159.14,-56.21"/>
<polygon fill="#63b8ff" stroke="#63b8ff" points="160.24,-59.53 168.4,-52.78 157.81,-52.97 160.24,-59.53"/>
</a>
</g>
</g>
<!-- Node14 -->
<g id="Node000014" class="node">
<title>Node14</title>
<g id="a_Node000014"><a xlink:href="namespace_native_u_i.html#a709d2b278e8b45418cebfbfd95b17294" target="_top" xlink:title=" ">
<polygon fill="white" stroke="#666666" points="294.5,-19.25 146.5,-19.25 146.5,0 294.5,0 294.5,-19.25"/>
<text xml:space="preserve" text-anchor="middle" x="220.5" y="-5.75" font-family="Helvetica,sans-Serif" font-size="10.00">NativeUI::SetClipboardAnchor</text>
</a>
</g>
</g>
<!-- Node1&#45;&gt;Node14 -->
<g id="edge17_Node000001_Node000014" class="edge">
<title>Node1&#45;&gt;Node14</title>
<g id="a_edge17_Node000001_Node000014"><a xlink:title=" ">
<path fill="none" stroke="#63b8ff" d="M56.49,-233.63C60.46,-199.21 78.37,-84.61 145,-27.62 145.94,-26.83 146.9,-26.06 147.89,-25.33"/>
<polygon fill="#63b8ff" stroke="#63b8ff" points="149.38,-28.52 156.14,-20.36 145.76,-22.52 149.38,-28.52"/>
</a>
</g>
</g>
<!-- Node2&#45;&gt;Node3 -->
<g id="edge2_Node000002_Node000003" class="edge">
<title>Node2&#45;&gt;Node3</title>
<g id="a_edge2_Node000002_Node000003"><a xlink:title=" ">
<path fill="none" stroke="#63b8ff" d="M266.83,-403.74C288.98,-408.68 315.68,-414.63 338.32,-419.68"/>
<polygon fill="#63b8ff" stroke="#63b8ff" points="337.4,-423.06 347.92,-421.82 338.92,-416.23 337.4,-423.06"/>
</a>
</g>
</g>
<!-- Node2&#45;&gt;Node4 -->
<g id="edge3_Node000002_Node000004" class="edge">
<title>Node2&#45;&gt;Node4</title>
<g id="a_edge3_Node000002_Node000004"><a xlink:title=" ">
<path fill="none" stroke="#63b8ff" d="M265.52,-383.54C286.03,-378.84 310.65,-373.2 332.38,-368.22"/>
<polygon fill="#63b8ff" stroke="#63b8ff" points="333,-371.67 341.97,-366.03 331.44,-364.85 333,-371.67"/>
</a>
</g>
</g>
<!-- Node5&#45;&gt;Node3 -->
<g id="edge5_Node000005_Node000003" class="edge">
<title>Node5&#45;&gt;Node3</title>
<g id="a_edge5_Node000005_Node000003"><a xlink:title=" ">
<path fill="none" stroke="#63b8ff" d="M273.98,-430.62C294.37,-430.62 317.62,-430.62 337.73,-430.62"/>
<polygon fill="#63b8ff" stroke="#63b8ff" points="337.65,-434.13 347.65,-430.63 337.65,-427.13 337.65,-434.13"/>
</a>
</g>
</g>
<!-- Node13&#45;&gt;Node4 -->
<g id="edge16_Node000013_Node000004" class="edge">
<title>Node13&#45;&gt;Node4</title>
<g id="a_edge16_Node000013_Node000004"><a xlink:title=" ">
<path fill="none" stroke="#63b8ff" d="M271.18,-51.13C280.3,-53.92 289.1,-58.17 296,-64.62 375.15,-138.63 386.15,-280.25 387.37,-334.11"/>
<polygon fill="#63b8ff" stroke="#63b8ff" points="383.87,-334.09 387.49,-344.05 390.87,-334 383.87,-334.09"/>
</a>
</g>
</g>
</g>
</svg>
