<?xml version="1.0" encoding="UTF-8" standalone="no"?>
<!DOCTYPE svg PUBLIC "-//W3C//DTD SVG 1.1//EN"
 "http://www.w3.org/Graphics/SVG/1.1/DTD/svg11.dtd">
<!-- Generated by graphviz version 14.1.1 (20251213.1925)
 -->
<!-- Title: ShowAnchorGrid Pages: 1 -->
<svg width="246pt" height="64pt"
 viewBox="0.00 0.00 246.00 64.00" xmlns="http://www.w3.org/2000/svg" xmlns:xlink="http://www.w3.org/1999/xlink">
<g id="graph0" class="graph" transform="scale(1 1) rotate(0) translate(4 60.25)">
<title>ShowAnchorGrid</title>
<!-- Node1 -->
<g id="Node000001" class="node">
<title>Node1</title>
<g id="a_Node000001"><a xlink:title=" ">
<polygon fill="#999999" stroke="#666666" points="89.5,-37.25 0,-37.25 0,-18 89.5,-18 89.5,-37.25"/>
<text xml:space="preserve" text-anchor="middle" x="44.75" y="-23.75" font-family="Helvetica,sans-Serif" font-size="10.00">ShowAnchorGrid</text>
</a>
</g>
</g>
<!-- Node2 -->
<g id="Node000002" class="node">
<title>Node2</title>
<g id="a_Node000002"><a xlink:href="namespace_native_u_i.html#a523b9f0311a532ee93b1d8ef5dec3f45" target="_top" xlink:title=" ">
<polygon fill="white" stroke="#666666" points="238.25,-56.25 125.5,-56.25 125.5,-37 238.25,-37 238.25,-56.25"/>
<text xml:space="preserve" text-anchor="middle" x="181.88" y="-42.75" font-family="Helvetica,sans-Serif" font-size="10.00">NativeUI::GetSettings</text>
</a>
</g>
</g>
<!-- Node1&#45;&gt;Node2 -->
<g id="edge1_Node000001_Node000002" class="edge">
<title>Node1&#45;&gt;Node2</title>
<g id="a_edge1_Node000001_Node000002"><a xlink:title=" ">
<path fill="none" stroke="#63b8ff" d="M89.99,-33.85C97.63,-34.92 105.72,-36.06 113.81,-37.19"/>
<polygon fill="#63b8ff" stroke="#63b8ff" points="113.29,-40.66 123.68,-38.58 114.26,-33.72 113.29,-40.66"/>
</a>
</g>
</g>
<!-- Node3 -->
<g id="Node000003" class="node">
<title>Node3</title>
<g id="a_Node000003"><a xlink:href="namespace_native_u_i.html#a4e033ac277d2098e8f35d04903bc4a57" target="_top" xlink:title=" ">
<polygon fill="white" stroke="#666666" points="233.75,-19.25 130,-19.25 130,0 233.75,0 233.75,-19.25"/>
<text xml:space="preserve" text-anchor="middle" x="181.88" y="-5.75" font-family="Helvetica,sans-Serif" font-size="10.00">NativeUI::ShowGrid</text>
</a>
</g>
</g>
<!-- Node1&#45;&gt;Node3 -->
<g id="edge2_Node000001_Node000003" class="edge">
<title>Node1&#45;&gt;Node3</title>
<g id="a_edge2_Node000001_Node000003"><a xlink:title=" ">
<path fill="none" stroke="#63b8ff" d="M89.99,-21.73C99.18,-20.51 109.02,-19.2 118.71,-17.91"/>
<polygon fill="#63b8ff" stroke="#63b8ff" points="119.01,-21.4 128.46,-16.61 118.09,-14.46 119.01,-21.4"/>
</a>
</g>
</g>
</g>
</svg>
