<?xml version="1.0" encoding="UTF-8" standalone="no"?>
<!DOCTYPE svg PUBLIC "-//W3C//DTD SVG 1.1//EN"
 "http://www.w3.org/Graphics/SVG/1.1/DTD/svg11.dtd">
<!-- Generated by graphviz version 14.1.1 (20251213.1925)
 -->
<!-- Title: cpp/src/core/SnapPlugin.h Pages: 1 -->
<svg width="236pt" height="83pt"
 viewBox="0.00 0.00 236.00 83.00" xmlns="http://www.w3.org/2000/svg" xmlns:xlink="http://www.w3.org/1999/xlink">
<g id="graph0" class="graph" transform="scale(1 1) rotate(0) translate(4 78.5)">
<title>cpp/src/core/SnapPlugin.h</title>
<!-- Node1 -->
<g id="Node000001" class="node">
<title>Node1</title>
<g id="a_Node000001"><a xlink:title=" ">
<polygon fill="#999999" stroke="#666666" points="182.75,-74.5 52,-74.5 52,-55.25 182.75,-55.25 182.75,-74.5"/>
<text xml:space="preserve" text-anchor="middle" x="117.38" y="-61" font-family="Helvetica,sans-Serif" font-size="10.00">cpp/src/core/SnapPlugin.h</text>
</a>
</g>
</g>
<!-- Node2 -->
<g id="Node000002" class="node">
<title>Node2</title>
<g id="a_Node000002"><a xlink:title=" ">
<polygon fill="#e0e0e0" stroke="#999999" points="112.75,-19.25 0,-19.25 0,0 112.75,0 112.75,-19.25"/>
<text xml:space="preserve" text-anchor="middle" x="56.38" y="-5.75" font-family="Helvetica,sans-Serif" font-size="10.00">AEGP_SuiteHandler.h</text>
</a>
</g>
</g>
<!-- Node1&#45;&gt;Node2 -->
<g id="edge1_Node000001_Node000002" class="edge">
<title>Node1&#45;&gt;Node2</title>
<g id="a_edge1_Node000001_Node000002"><a xlink:title=" ">
<path fill="none" stroke="#63b8ff" d="M107.03,-54.84C98.3,-47.22 85.59,-36.12 75.08,-26.95"/>
<polygon fill="#63b8ff" stroke="#63b8ff" points="77.55,-24.46 67.71,-20.52 72.94,-29.73 77.55,-24.46"/>
</a>
</g>
</g>
<!-- Node3 -->
<g id="Node000003" class="node">
<title>Node3</title>
<g id="a_Node000003"><a xlink:title=" ">
<polygon fill="#e0e0e0" stroke="#999999" points="227.5,-19.25 131.25,-19.25 131.25,0 227.5,0 227.5,-19.25"/>
<text xml:space="preserve" text-anchor="middle" x="179.38" y="-5.75" font-family="Helvetica,sans-Serif" font-size="10.00">AE_GeneralPlug.h</text>
</a>
</g>
</g>
<!-- Node1&#45;&gt;Node3 -->
<g id="edge2_Node000001_Node000003" class="edge">
<title>Node1&#45;&gt;Node3</title>
<g id="a_edge2_Node000001_Node000003"><a xlink:title=" ">
<path fill="none" stroke="#63b8ff" d="M127.89,-54.84C136.76,-47.22 149.69,-36.12 160.36,-26.95"/>
<polygon fill="#63b8ff" stroke="#63b8ff" points="162.56,-29.68 167.86,-20.51 158,-24.37 162.56,-29.68"/>
</a>
</g>
</g>
</g>
</svg>
