<?xml version="1.0" encoding="UTF-8" standalone="no"?>
<!DOCTYPE svg PUBLIC "-//W3C//DTD SVG 1.1//EN"
 "http://www.w3.org/Graphics/SVG/1.1/DTD/svg11.dtd">
<!-- Generated by graphviz version 14.1.1 (20251213.1925)
 -->
<!-- Title: cpp/src/modules/text/TextUI.cpp Pages: 1 -->
<svg width="176pt" height="94pt"
 viewBox="0.00 0.00 176.00 94.00" xmlns="http://www.w3.org/2000/svg" xmlns:xlink="http://www.w3.org/1999/xlink">
<g id="graph0" class="graph" transform="scale(1 1) rotate(0) translate(4 89.75)">
<title>cpp/src/modules/text/TextUI.cpp</title>
<!-- Node1 -->
<g id="Node000001" class="node">
<title>Node1</title>
<g id="a_Node000001"><a xlink:title=" ">
<polygon fill="#999999" stroke="#666666" points="126.5,-85.75 19,-85.75 19,-55.25 126.5,-55.25 126.5,-85.75"/>
<text xml:space="preserve" text-anchor="start" x="27" y="-72.25" font-family="Helvetica,sans-Serif" font-size="10.00">cpp/src/modules/text</text>
<text xml:space="preserve" text-anchor="middle" x="72.75" y="-61" font-family="Helvetica,sans-Serif" font-size="10.00">/TextUI.cpp</text>
</a>
</g>
</g>
<!-- Node2 -->
<g id="Node000002" class="node">
<title>Node2</title>
<g id="a_Node000002"><a xlink:href="_text_u_i_8h.html" target="_top" xlink:title=" ">
<polygon fill="white" stroke="#666666" points="53.5,-19.25 0,-19.25 0,0 53.5,0 53.5,-19.25"/>
<text xml:space="preserve" text-anchor="middle" x="26.75" y="-5.75" font-family="Helvetica,sans-Serif" font-size="10.00">TextUI.h</text>
</a>
</g>
</g>
<!-- Node1&#45;&gt;Node2 -->
<g id="edge1_Node000001_Node000002" class="edge">
<title>Node1&#45;&gt;Node2</title>
<g id="a_edge1_Node000001_Node000002"><a xlink:title=" ">
<path fill="none" stroke="#63b8ff" d="M61.38,-54.95C55.18,-47.02 47.46,-37.13 40.88,-28.71"/>
<polygon fill="#63b8ff" stroke="#63b8ff" points="43.69,-26.62 34.77,-20.89 38.17,-30.93 43.69,-26.62"/>
</a>
</g>
</g>
<!-- Node3 -->
<g id="Node000003" class="node">
<title>Node3</title>
<g id="a_Node000003"><a xlink:href="_gdi_plus_includes_8h.html" target="_top" xlink:title=" ">
<polygon fill="white" stroke="#666666" points="167.5,-19.25 72,-19.25 72,0 167.5,0 167.5,-19.25"/>
<text xml:space="preserve" text-anchor="middle" x="119.75" y="-5.75" font-family="Helvetica,sans-Serif" font-size="10.00">GdiPlusIncludes.h</text>
</a>
</g>
</g>
<!-- Node1&#45;&gt;Node3 -->
<g id="edge2_Node000001_Node000003" class="edge">
<title>Node1&#45;&gt;Node3</title>
<g id="a_edge2_Node000001_Node000003"><a xlink:title=" ">
<path fill="none" stroke="#63b8ff" d="M84.37,-54.95C90.77,-46.93 98.76,-36.92 105.53,-28.44"/>
<polygon fill="#63b8ff" stroke="#63b8ff" points="108.06,-30.88 111.56,-20.88 102.59,-26.52 108.06,-30.88"/>
</a>
</g>
</g>
</g>
</svg>
