<?xml version="1.0" encoding="UTF-8" standalone="no"?>
<!DOCTYPE svg PUBLIC "-//W3C//DTD SVG 1.1//EN"
 "http://www.w3.org/Graphics/SVG/1.1/DTD/svg11.dtd">
<!-- Generated by graphviz version 14.1.1 (20251213.1925)
 -->
<!-- Title: cpp/src/modules Pages: 1 -->
<!--zoomable 142 -->

<svg id="main" version="1.1" xmlns="http://www.w3.org/2000/svg" xmlns:xlink="http://www.w3.org/1999/xlink" xml:space="preserve" onload="init(evt)">

<style type="text/css"><![CDATA[
.node, .edge {opacity: 0.7;}
.node.selected, .edge.selected {opacity: 1;}
.edge:hover path { stroke: red; }
.edge:hover polygon { stroke: red; fill: red; }
]]></style>

<defs>
  <circle id="rim" cx="0" cy="0" r="7"/>
  <circle id="rim2" cx="0" cy="0" r="3.5"/>
  <g id="zoomPlus">
    <use xlink:href="#rim" fill="#404040"><set attributeName="fill" to="#808080" begin="zoomplus.mouseover" end="zoomplus.mouseout"/></use>
    <path d="M-4,0h8M0,-4v8" fill="none" stroke="white" stroke-width="1.5" pointer-events="none"/>
  </g>
  <g id="zoomMin">
    <use xlink:href="#rim" fill="#404040"><set attributeName="fill" to="#808080" begin="zoomminus.mouseover" end="zoomminus.mouseout"/></use>
    <path d="M-4,0h8" fill="none" stroke="white" stroke-width="1.5" pointer-events="none"/>
  </g>
  <g id="arrowUp" transform="translate(30 24)">
    <use xlink:href="#rim"/>
    <path pointer-events="none" fill="none" stroke="white" stroke-width="1.5" d="M0,-3.0v7 M-2.5,-0.5L0,-3.0L2.5,-0.5"/>
  </g>
  <g id="arrowRight" transform="rotate(90) translate(36 -43)">
    <use xlink:href="#rim"/>
    <path pointer-events="none" fill="none" stroke="white" stroke-width="1.5" d="M0,-3.0v7 M-2.5,-0.5L0,-3.0L2.5,-0.5"/>
  </g>
  <g id="arrowDown" transform="rotate(180) translate(-30 -48)">
    <use xlink:href="#rim"/>
    <path pointer-events="none" fill="none" stroke="white" stroke-width="1.5" d="M0,-3.0v7 M-2.5,-0.5L0,-3.0L2.5,-0.5"/>
  </g>
  <g id="arrowLeft" transform="rotate(270) translate(-36 17)">
    <use xlink:href="#rim"/>
    <path pointer-events="none" fill="none" stroke="white" stroke-width="1.5" d="M0,-3.0v7 M-2.5,-0.5L0,-3.0L2.5,-0.5"/>
  </g>
  <g id="resetDef">
    <use xlink:href="#rim2" fill="#404040"><set attributeName="fill" to="#808080" begin="reset.mouseover" end="reset.mouseout"/></use>
  </g>
</defs>
<script type="application/ecmascript">
var viewWidth = 523;
var viewHeight = 142;
var sectionId = 'dynsection-0';
</script>
<script type="application/ecmascript" xlink:href="svg.min.js"/>
<svg id="graph" class="graph">
<g id="viewport">
<title>cpp/src/modules</title>
<g id="clust1" class="cluster">
<title>clusterdir_7e72c7cf48e3493f8206cd364e6bc9f6</title>
<g id="a_clust1"><a xlink:href="dir_7e72c7cf48e3493f8206cd364e6bc9f6.html" target="_top" xlink:title="src">
<polygon fill="#edf0f7" stroke="#7f7f7f" stroke-dasharray="5,2" points="8,-8 8,-125.75 507,-125.75 507,-8 8,-8"/>
<text xml:space="preserve" text-anchor="middle" x="257.5" y="-112.25" font-family="Helvetica,sans-Serif" font-size="10.00">src</text>
</a>
</g>
</g>
<g id="clust2" class="cluster">
<title>clusterdir_4badd9e9bf767c80da8f797f4356e4b7</title>
<g id="a_clust2"><a xlink:href="dir_4badd9e9bf767c80da8f797f4356e4b7.html" target="_top">
<polygon fill="#edf0f7" stroke="#404040" stroke-width="2" points="16,-63.25 16,-98.5 499,-98.5 499,-63.25 16,-63.25"/>
</a>
</g>
</g>
<!-- dir_9c662aa3ceb912954d2f0626ff5ad75c -->
<g id="node1" class="node">
<title>dir_9c662aa3ceb912954d2f0626ff5ad75c</title>
<g id="a_node1"><a xlink:href="dir_9c662aa3ceb912954d2f0626ff5ad75c.html" target="_top" xlink:title="core">
<polygon fill="#a2b4d6" stroke="#404040" points="310.38,-35.25 275.62,-35.25 275.62,-16 310.38,-16 310.38,-35.25"/>
<text xml:space="preserve" text-anchor="middle" x="293" y="-21.75" font-family="Helvetica,sans-Serif" font-size="10.00">core</text>
</a>
</g>
</g>
<!-- dir_4badd9e9bf767c80da8f797f4356e4b7 -->
<g id="node2" class="node">
<title>dir_4badd9e9bf767c80da8f797f4356e4b7</title>
<text xml:space="preserve" text-anchor="middle" x="50" y="-77" font-family="Helvetica,sans-Serif" font-size="10.00">modules</text>
</g>
<!-- dir_fa300972cc19d1ddd1f79aa84fd76af8 -->
<g id="node3" class="node">
<title>dir_fa300972cc19d1ddd1f79aa84fd76af8</title>
<g id="a_node3"><a xlink:href="dir_fa300972cc19d1ddd1f79aa84fd76af8.html" target="_top" xlink:title="align">
<polygon fill="#a2b4d6" stroke="#404040" points="131.12,-90.5 94.88,-90.5 94.88,-71.25 131.12,-71.25 131.12,-90.5"/>
<text xml:space="preserve" text-anchor="middle" x="113" y="-77" font-family="Helvetica,sans-Serif" font-size="10.00">align</text>
</a>
</g>
</g>
<!-- dir_fe54d661ee676168ba16d699ef09bb0c -->
<g id="node4" class="node">
<title>dir_fe54d661ee676168ba16d699ef09bb0c</title>
<g id="a_node4"><a xlink:href="dir_fe54d661ee676168ba16d699ef09bb0c.html" target="_top" xlink:title="comp">
<polygon fill="#a2b4d6" stroke="#404040" points="189,-90.5 149,-90.5 149,-71.25 189,-71.25 189,-90.5"/>
<text xml:space="preserve" text-anchor="middle" x="169" y="-77" font-family="Helvetica,sans-Serif" font-size="10.00">comp</text>
</a>
</g>
</g>
<!-- dir_fe54d661ee676168ba16d699ef09bb0c&#45;&gt;dir_9c662aa3ceb912954d2f0626ff5ad75c -->
<g id="edge1" class="edge">
<title>dir_fe54d661ee676168ba16d699ef09bb0c&#45;&gt;dir_9c662aa3ceb912954d2f0626ff5ad75c</title>
<g id="a_edge1"><a xlink:href="dir_000001_000003.html" target="_top">
<path fill="none" stroke="#63b8ff" d="M183.82,-70.8C188.3,-68.22 193.28,-65.49 198,-63.25 219.78,-52.88 245.33,-43.16 264.45,-36.34"/>
<polygon fill="#63b8ff" stroke="#63b8ff" points="265.45,-39.7 273.72,-33.09 263.13,-33.1 265.45,-39.7"/>
</a>
</g>
<g id="a_edge1&#45;headlabel"><a xlink:href="dir_000001_000003.html" target="_top" xlink:title="1">
<text xml:space="preserve" text-anchor="middle" x="264.42" y="-39.2" font-family="Helvetica,sans-Serif" font-size="10.00" fill="#63b8ff">1</text>
</a>
</g>
</g>
<!-- dir_0b1964dec084c8ad1065dbb8ed1e6bb4 -->
<g id="node5" class="node">
<title>dir_0b1964dec084c8ad1065dbb8ed1e6bb4</title>
<g id="a_node5"><a xlink:href="dir_0b1964dec084c8ad1065dbb8ed1e6bb4.html" target="_top" xlink:title="control">
<polygon fill="#a2b4d6" stroke="#404040" points="252.62,-90.5 207.38,-90.5 207.38,-71.25 252.62,-71.25 252.62,-90.5"/>
<text xml:space="preserve" text-anchor="middle" x="230" y="-77" font-family="Helvetica,sans-Serif" font-size="10.00">control</text>
</a>
</g>
</g>
<!-- dir_a28c1af96ebf787a44ef8312c25edc65 -->
<g id="node6" class="node">
<title>dir_a28c1af96ebf787a44ef8312c25edc65</title>
<g id="a_node6"><a xlink:href="dir_a28c1af96ebf787a44ef8312c25edc65.html" target="_top" xlink:title="dmenu">
<polygon fill="#a2b4d6" stroke="#404040" points="315.62,-90.5 270.38,-90.5 270.38,-71.25 315.62,-71.25 315.62,-90.5"/>
<text xml:space="preserve" text-anchor="middle" x="293" y="-77" font-family="Helvetica,sans-Serif" font-size="10.00">dmenu</text>
</a>
</g>
</g>
<!-- dir_a28c1af96ebf787a44ef8312c25edc65&#45;&gt;dir_9c662aa3ceb912954d2f0626ff5ad75c -->
<g id="edge2" class="edge">
<title>dir_a28c1af96ebf787a44ef8312c25edc65&#45;&gt;dir_9c662aa3ceb912954d2f0626ff5ad75c</title>
<g id="a_edge2"><a xlink:href="dir_000005_000003.html" target="_top">
<path fill="none" stroke="#63b8ff" d="M293,-71.08C293,-64.57 293,-55.42 293,-47.12"/>
<polygon fill="#63b8ff" stroke="#63b8ff" points="296.5,-47.12 293,-37.12 289.5,-47.12 296.5,-47.12"/>
</a>
</g>
<g id="a_edge2&#45;headlabel"><a xlink:href="dir_000005_000003.html" target="_top" xlink:title="1">
<text xml:space="preserve" text-anchor="middle" x="299.34" y="-45.33" font-family="Helvetica,sans-Serif" font-size="10.00" fill="#63b8ff">1</text>
</a>
</g>
</g>
<!-- dir_2e746dd91380e9399da11f9930d4a337 -->
<g id="node7" class="node">
<title>dir_2e746dd91380e9399da11f9930d4a337</title>
<g id="a_node7"><a xlink:href="dir_2e746dd91380e9399da11f9930d4a337.html" target="_top" xlink:title="grid">
<polygon fill="#a2b4d6" stroke="#404040" points="365.88,-90.5 334.12,-90.5 334.12,-71.25 365.88,-71.25 365.88,-90.5"/>
<text xml:space="preserve" text-anchor="middle" x="350" y="-77" font-family="Helvetica,sans-Serif" font-size="10.00">grid</text>
</a>
</g>
</g>
<!-- dir_af04799393b758ad62e2268fd6f9bc24 -->
<g id="node8" class="node">
<title>dir_af04799393b758ad62e2268fd6f9bc24</title>
<g id="a_node8"><a xlink:href="dir_af04799393b758ad62e2268fd6f9bc24.html" target="_top" xlink:title="keyframe">
<polygon fill="#a2b4d6" stroke="#404040" points="440.25,-90.5 383.75,-90.5 383.75,-71.25 440.25,-71.25 440.25,-90.5"/>
<text xml:space="preserve" text-anchor="middle" x="412" y="-77" font-family="Helvetica,sans-Serif" font-size="10.00">keyframe</text>
</a>
</g>
</g>
<!-- dir_50d823a778ba90240c87adf0d0a9c17a -->
<g id="node9" class="node">
<title>dir_50d823a778ba90240c87adf0d0a9c17a</title>
<g id="a_node9"><a xlink:href="dir_50d823a778ba90240c87adf0d0a9c17a.html" target="_top" xlink:title="text">
<polygon fill="#a2b4d6" stroke="#404040" points="491.25,-90.5 458.75,-90.5 458.75,-71.25 491.25,-71.25 491.25,-90.5"/>
<text xml:space="preserve" text-anchor="middle" x="475" y="-77" font-family="Helvetica,sans-Serif" font-size="10.00">text</text>
</a>
</g>
</g>
<!-- dir_50d823a778ba90240c87adf0d0a9c17a&#45;&gt;dir_9c662aa3ceb912954d2f0626ff5ad75c -->
<g id="edge3" class="edge">
<title>dir_50d823a778ba90240c87adf0d0a9c17a&#45;&gt;dir_9c662aa3ceb912954d2f0626ff5ad75c</title>
<g id="a_edge3"><a xlink:href="dir_000010_000003.html" target="_top">
<path fill="none" stroke="#63b8ff" d="M462.78,-70.86C458.58,-68.09 453.74,-65.25 449,-63.25 406.51,-45.3 353.61,-35.24 321.62,-30.37"/>
<polygon fill="#63b8ff" stroke="#63b8ff" points="322.34,-26.94 311.94,-28.98 321.34,-33.87 322.34,-26.94"/>
</a>
</g>
<g id="a_edge3&#45;headlabel"><a xlink:href="dir_000010_000003.html" target="_top" xlink:title="1">
<text xml:space="preserve" text-anchor="middle" x="324.81" y="-20.55" font-family="Helvetica,sans-Serif" font-size="10.00" fill="#63b8ff">1</text>
</a>
</g>
</g>
</g>
</svg>

<g id="navigator" transform="translate(0 0)" fill="#404254">
  <rect fill="#f2f5e9" fill-opacity="0.5" stroke="#606060" stroke-width=".5" x="0" y="0" width="60" height="60"/>
  <use id="zoomplus" xlink:href="#zoomPlus" x="17" y="9" onmousedown="handleZoom(evt,'in')"/>
  <use id="zoomminus" xlink:href="#zoomMin" x="42" y="9" onmousedown="handleZoom(evt,'out')"/>
  <use id="reset" xlink:href="#resetDef" x="30" y="36" onmousedown="handleReset()"/>
   <use id="arrowup" xlink:href="#arrowUp" x="0" y="0" onmousedown="handlePan(0,-1)"/>
  <use id="arrowright" xlink:href="#arrowRight" x="0" y="0" onmousedown="handlePan(1,0)"/>
  <use id="arrowdown" xlink:href="#arrowDown" x="0" y="0" onmousedown="handlePan(0,1)"/>
  <use id="arrowleft" xlink:href="#arrowLeft" x="0" y="0" onmousedown="handlePan(-1,0)"/>
</g>
<svg viewBox="0 0 15 15" width="100%" height="30px" preserveAspectRatio="xMaxYMin meet">
 <g id="arrow_out" transform="scale(0.3 0.3)">
  <a xlink:href="dir_4badd9e9bf767c80da8f797f4356e4b7_dep_org.svg" target="_base">
   <rect id="button" ry="5" rx="5" y="6" x="6" height="38" width="38"
        fill="#f2f5e9" fill-opacity="0.5" stroke="#606060" stroke-width="1.0"/>
   <path id="arrow"
     d="M 11.500037,31.436501 C 11.940474,20.09759 22.043105,11.32322 32.158766,21.979434 L 37.068811,17.246167 C 37.068811,17.246167 37.088388,32 37.088388,32 L 22.160133,31.978069 C 22.160133,31.978069 26.997745,27.140456 26.997745,27.140456 C 18.528582,18.264221 13.291696,25.230495 11.500037,31.436501 z"
     style="fill:#404040;"/>
  </a>
 </g>
</svg>

<style type='text/css'>
<![CDATA[
[data-mouse-over-selected='false'] { opacity: 0.7; }
[data-mouse-over-selected='true']  { opacity: 1.0; }
]]>
</style>
<script type="application/ecmascript"><![CDATA[
document.addEventListener('DOMContentLoaded', (event) => {
  highlightEdges();
  highlightAdjacentNodes();
});
]]></script>
</svg>
