<?xml version="1.0" encoding="UTF-8" standalone="no"?>
<!DOCTYPE svg PUBLIC "-//W3C//DTD SVG 1.1//EN"
 "http://www.w3.org/Graphics/SVG/1.1/DTD/svg11.dtd">
<!-- Generated by graphviz version 14.1.1 (20251213.1925)
 -->
<!-- Title: NativeUI::SetClipboardAnchor Pages: 1 -->
<svg width="514pt" height="64pt"
 viewBox="0.00 0.00 514.00 64.00" xmlns="http://www.w3.org/2000/svg" xmlns:xlink="http://www.w3.org/1999/xlink">
<g id="graph0" class="graph" transform="scale(1 1) rotate(0) translate(4 60.25)">
<title>NativeUI::SetClipboardAnchor</title>
<!-- Node1 -->
<g id="Node000001" class="node">
<title>Node1</title>
<g id="a_Node000001"><a xlink:title=" ">
<polygon fill="#999999" stroke="#666666" points="505.75,-37.25 357.75,-37.25 357.75,-18 505.75,-18 505.75,-37.25"/>
<text xml:space="preserve" text-anchor="middle" x="431.75" y="-23.75" font-family="Helvetica,sans-Serif" font-size="10.00">NativeUI::SetClipboardAnchor</text>
</a>
</g>
</g>
<!-- Node2 -->
<g id="Node000002" class="node">
<title>Node2</title>
<g id="a_Node000002"><a xlink:href="_snap_plugin_8cpp.html#aff4336719f13243e062c7b4e9a15bc03" target="_top" xlink:title=" ">
<polygon fill="white" stroke="#666666" points="320.62,-56.25 211.62,-56.25 211.62,-37 320.62,-37 320.62,-56.25"/>
<text xml:space="preserve" text-anchor="middle" x="266.12" y="-42.75" font-family="Helvetica,sans-Serif" font-size="10.00">HideAndApplyAnchor</text>
</a>
</g>
</g>
<!-- Node1&#45;&gt;Node2 -->
<g id="edge1_Node000001_Node000002" class="edge">
<title>Node1&#45;&gt;Node2</title>
<g id="a_edge1_Node000001_Node000002"><a xlink:title=" ">
<path fill="none" stroke="#63b8ff" d="M346.15,-37.45C337.48,-38.46 328.84,-39.46 320.64,-40.41"/>
<polygon fill="#63b8ff" stroke="#63b8ff" points="346.52,-40.93 356.05,-36.3 345.71,-33.98 346.52,-40.93"/>
</a>
</g>
</g>
<!-- Node5 -->
<g id="Node000005" class="node">
<title>Node5</title>
<g id="a_Node000005"><a xlink:href="_snap_plugin_8cpp.html#a6444d306b0c639f29433e840d46f8e16" target="_top" xlink:title=" ">
<polygon fill="white" stroke="#666666" points="321.75,-19.25 210.5,-19.25 210.5,0 321.75,0 321.75,-19.25"/>
<text xml:space="preserve" text-anchor="middle" x="266.12" y="-5.75" font-family="Helvetica,sans-Serif" font-size="10.00">LoadSettingsFromFile</text>
</a>
</g>
</g>
<!-- Node1&#45;&gt;Node5 -->
<g id="edge4_Node000001_Node000005" class="edge">
<title>Node1&#45;&gt;Node5</title>
<g id="a_edge4_Node000001_Node000005"><a xlink:title=" ">
<path fill="none" stroke="#63b8ff" d="M346.34,-18.34C338.12,-17.43 329.92,-16.53 322.1,-15.67"/>
<polygon fill="#63b8ff" stroke="#63b8ff" points="345.72,-21.79 356.05,-19.41 346.49,-14.83 345.72,-21.79"/>
</a>
</g>
</g>
<!-- Node3 -->
<g id="Node000003" class="node">
<title>Node3</title>
<g id="a_Node000003"><a xlink:href="_snap_plugin_8cpp.html#a6d08fca2bd60bcf863b00515610f1237" target="_top" xlink:title=" ">
<polygon fill="white" stroke="#666666" points="174.5,-37.25 119.5,-37.25 119.5,-18 174.5,-18 174.5,-37.25"/>
<text xml:space="preserve" text-anchor="middle" x="147" y="-23.75" font-family="Helvetica,sans-Serif" font-size="10.00">IdleHook</text>
</a>
</g>
</g>
<!-- Node2&#45;&gt;Node3 -->
<g id="edge2_Node000002_Node000003" class="edge">
<title>Node2&#45;&gt;Node3</title>
<g id="a_edge2_Node000002_Node000003"><a xlink:title=" ">
<path fill="none" stroke="#63b8ff" d="M200.1,-36.08C191.24,-34.64 182.58,-33.23 174.95,-32"/>
<polygon fill="#63b8ff" stroke="#63b8ff" points="199.44,-39.51 209.87,-37.66 200.56,-32.6 199.44,-39.51"/>
</a>
</g>
</g>
<!-- Node4 -->
<g id="Node000004" class="node">
<title>Node4</title>
<g id="a_Node000004"><a xlink:href="_snap_plugin_8cpp.html#a93ac7ff3ad6003dabd3b1a84dce8165a" target="_top" xlink:title=" ">
<polygon fill="white" stroke="#666666" points="83.5,-37.25 0,-37.25 0,-18 83.5,-18 83.5,-37.25"/>
<text xml:space="preserve" text-anchor="middle" x="41.75" y="-23.75" font-family="Helvetica,sans-Serif" font-size="10.00">EntryPointFunc</text>
</a>
</g>
</g>
<!-- Node3&#45;&gt;Node4 -->
<g id="edge3_Node000003_Node000004" class="edge">
<title>Node3&#45;&gt;Node4</title>
<g id="a_edge3_Node000003_Node000004"><a xlink:title=" ">
<path fill="none" stroke="#63b8ff" d="M107.77,-27.62C99.98,-27.62 91.77,-27.62 83.89,-27.62"/>
<polygon fill="#63b8ff" stroke="#63b8ff" points="107.63,-31.13 117.63,-27.63 107.63,-24.13 107.63,-31.13"/>
</a>
</g>
</g>
<!-- Node5&#45;&gt;Node3 -->
<g id="edge5_Node000005_Node000003" class="edge">
<title>Node5&#45;&gt;Node3</title>
<g id="a_edge5_Node000005_Node000003"><a xlink:title=" ">
<path fill="none" stroke="#63b8ff" d="M199.02,-19.78C190.45,-21.1 182.11,-22.38 174.73,-23.52"/>
<polygon fill="#63b8ff" stroke="#63b8ff" points="199.49,-23.25 208.84,-18.28 198.42,-16.33 199.49,-23.25"/>
</a>
</g>
</g>
</g>
</svg>
