<?xml version="1.0" encoding="UTF-8" standalone="no"?>
<!DOCTYPE svg PUBLIC "-//W3C//DTD SVG 1.1//EN"
 "http://www.w3.org/Graphics/SVG/1.1/DTD/svg11.dtd">
<!-- Generated by graphviz version 14.1.1 (20251213.1925)
 -->
<!-- Title: CEPBridge::SendCommand Pages: 1 -->
<svg width="672pt" height="65pt"
 viewBox="0.00 0.00 672.00 65.00" xmlns="http://www.w3.org/2000/svg" xmlns:xlink="http://www.w3.org/1999/xlink">
<g id="graph0" class="graph" transform="scale(1 1) rotate(0) translate(4 61.25)">
<title>CEPBridge::SendCommand</title>
<!-- Node1 -->
<g id="Node000001" class="node">
<title>Node1</title>
<g id="a_Node000001"><a xlink:title=" ">
<polygon fill="#999999" stroke="#666666" points="138.25,-38.25 0,-38.25 0,-19 138.25,-19 138.25,-38.25"/>
<text xml:space="preserve" text-anchor="middle" x="69.12" y="-24.75" font-family="Helvetica,sans-Serif" font-size="10.00">CEPBridge::SendCommand</text>
</a>
</g>
</g>
<!-- Node2 -->
<g id="Node000002" class="node">
<title>Node2</title>
<g id="a_Node000002"><a xlink:href="namespace_c_e_p_bridge.html#a96d7e60dbb95d9693d1dbf50d3bb3e48" target="_top" xlink:title=" ">
<polygon fill="white" stroke="#666666" points="484.5,-57.25 317,-57.25 317,-38 484.5,-38 484.5,-57.25"/>
<text xml:space="preserve" text-anchor="middle" x="400.75" y="-43.75" font-family="Helvetica,sans-Serif" font-size="10.00">CEPBridge::GetCommandFilePath</text>
</a>
</g>
</g>
<!-- Node1&#45;&gt;Node2 -->
<g id="edge1_Node000001_Node000002" class="edge">
<title>Node1&#45;&gt;Node2</title>
<g id="a_edge1_Node000001_Node000002"><a xlink:title=" ">
<path fill="none" stroke="#63b8ff" d="M138.42,-32.56C186.75,-35.35 252.17,-39.12 305.46,-42.19"/>
<polygon fill="#63b8ff" stroke="#63b8ff" points="304.94,-45.67 315.13,-42.75 305.35,-38.68 304.94,-45.67"/>
</a>
</g>
</g>
<!-- Node4 -->
<g id="Node000004" class="node">
<title>Node4</title>
<g id="a_Node000004"><a xlink:href="namespace_c_e_p_bridge.html#a77dbdbaa8288c375333ac5b8a77de1fc" target="_top" xlink:title=" ">
<polygon fill="white" stroke="#666666" points="281,-19.25 174.25,-19.25 174.25,0 281,0 281,-19.25"/>
<text xml:space="preserve" text-anchor="middle" x="227.62" y="-5.75" font-family="Helvetica,sans-Serif" font-size="10.00">CEPBridge::Initialize</text>
</a>
</g>
</g>
<!-- Node1&#45;&gt;Node4 -->
<g id="edge3_Node000001_Node000004" class="edge">
<title>Node1&#45;&gt;Node4</title>
<g id="a_edge3_Node000001_Node000004"><a xlink:title=" ">
<path fill="none" stroke="#63b8ff" d="M138.31,-20.35C146.49,-19.35 154.81,-18.34 162.92,-17.36"/>
<polygon fill="#63b8ff" stroke="#63b8ff" points="163.19,-20.85 172.69,-16.17 162.35,-13.9 163.19,-20.85"/>
</a>
</g>
</g>
<!-- Node3 -->
<g id="Node000003" class="node">
<title>Node3</title>
<g id="a_Node000003"><a xlink:href="namespace_c_e_p_bridge.html#a38916a97a3117838a6795def2c7b69e2" target="_top" xlink:title=" ">
<polygon fill="white" stroke="#666666" points="664,-38.25 520.5,-38.25 520.5,-19 664,-19 664,-38.25"/>
<text xml:space="preserve" text-anchor="middle" x="592.25" y="-24.75" font-family="Helvetica,sans-Serif" font-size="10.00">CEPBridge::GetIPCDirectory</text>
</a>
</g>
</g>
<!-- Node2&#45;&gt;Node3 -->
<g id="edge2_Node000002_Node000003" class="edge">
<title>Node2&#45;&gt;Node3</title>
<g id="a_edge2_Node000002_Node000003"><a xlink:title=" ">
<path fill="none" stroke="#63b8ff" d="M484.87,-39.29C492.75,-38.5 500.74,-37.7 508.62,-36.91"/>
<polygon fill="#63b8ff" stroke="#63b8ff" points="508.95,-40.39 518.56,-35.91 508.26,-33.43 508.95,-40.39"/>
</a>
</g>
</g>
<!-- Node4&#45;&gt;Node2 -->
<g id="edge4_Node000004_Node000002" class="edge">
<title>Node4&#45;&gt;Node2</title>
<g id="a_edge4_Node000004_Node000002"><a xlink:title=" ">
<path fill="none" stroke="#63b8ff" d="M274.03,-19.71C295.3,-24.43 320.83,-30.1 343.32,-35.09"/>
<polygon fill="#63b8ff" stroke="#63b8ff" points="342.43,-38.48 352.95,-37.23 343.94,-31.65 342.43,-38.48"/>
</a>
</g>
</g>
<!-- Node4&#45;&gt;Node3 -->
<g id="edge5_Node000004_Node000003" class="edge">
<title>Node4&#45;&gt;Node3</title>
<g id="a_edge5_Node000004_Node000003"><a xlink:title=" ">
<path fill="none" stroke="#63b8ff" d="M281.35,-12.39C340.99,-15.51 438.86,-20.64 508.66,-24.3"/>
<polygon fill="#63b8ff" stroke="#63b8ff" points="508.36,-27.79 518.53,-24.81 508.73,-20.8 508.36,-27.79"/>
</a>
</g>
</g>
</g>
</svg>
