<?xml version="1.0" encoding="UTF-8" standalone="no"?>
<!DOCTYPE svg PUBLIC "-//W3C//DTD SVG 1.1//EN"
 "http://www.w3.org/Graphics/SVG/1.1/DTD/svg11.dtd">
<!-- Generated by graphviz version 14.1.1 (20251213.1925)
 -->
<!-- Title: KeyboardMonitor::IsKeyHeld Pages: 1 -->
<!--zoomable 163 -->

<svg id="main" version="1.1" xmlns="http://www.w3.org/2000/svg" xmlns:xlink="http://www.w3.org/1999/xlink" xml:space="preserve" onload="init(evt)">

<style type="text/css"><![CDATA[
.node, .edge {opacity: 0.7;}
.node.selected, .edge.selected {opacity: 1;}
.edge:hover path { stroke: red; }
.edge:hover polygon { stroke: red; fill: red; }
]]></style>

<defs>
  <circle id="rim" cx="0" cy="0" r="7"/>
  <circle id="rim2" cx="0" cy="0" r="3.5"/>
  <g id="zoomPlus">
    <use xlink:href="#rim" fill="#404040"><set attributeName="fill" to="#808080" begin="zoomplus.mouseover" end="zoomplus.mouseout"/></use>
    <path d="M-4,0h8M0,-4v8" fill="none" stroke="white" stroke-width="1.5" pointer-events="none"/>
  </g>
  <g id="zoomMin">
    <use xlink:href="#rim" fill="#404040"><set attributeName="fill" to="#808080" begin="zoomminus.mouseover" end="zoomminus.mouseout"/></use>
    <path d="M-4,0h8" fill="none" stroke="white" stroke-width="1.5" pointer-events="none"/>
  </g>
  <g id="arrowUp" transform="translate(30 24)">
    <use xlink:href="#rim"/>
    <path pointer-events="none" fill="none" stroke="white" stroke-width="1.5" d="M0,-3.0v7 M-2.5,-0.5L0,-3.0L2.5,-0.5"/>
  </g>
  <g id="arrowRight" transform="rotate(90) translate(36 -43)">
    <use xlink:href="#rim"/>
    <path pointer-events="none" fill="none" stroke="white" stroke-width="1.5" d="M0,-3.0v7 M-2.5,-0.5L0,-3.0L2.5,-0.5"/>
  </g>
  <g id="arrowDown" transform="rotate(180) translate(-30 -48)">
    <use xlink:href="#rim"/>
    <path pointer-events="none" fill="none" stroke="white" stroke-width="1.5" d="M0,-3.0v7 M-2.5,-0.5L0,-3.0L2.5,-0.5"/>
  </g>
  <g id="arrowLeft" transform="rotate(270) translate(-36 17)">
    <use xlink:href="#rim"/>
    <path pointer-events="none" fill="none" stroke="white" stroke-width="1.5" d="M0,-3.0v7 M-2.5,-0.5L0,-3.0L2.5,-0.5"/>
  </g>
  <g id="resetDef">
    <use xlink:href="#rim2" fill="#404040"><set attributeName="fill" to="#808080" begin="reset.mouseover" end="reset.mouseout"/></use>
  </g>
</defs>
<script type="application/ecmascript">
var viewWidth = 541;
var viewHeight = 163;
var sectionId = 'dynsection-6';
</script>
<script type="application/ecmascript" xlink:href="svg.min.js"/>
<svg id="graph" class="graph">
<g id="viewport">
<title>KeyboardMonitor::IsKeyHeld</title>
<!-- Node1 -->
<g id="Node000001" class="node">
<title>Node1</title>
<g id="a_Node000001"><a xlink:title=" ">
<polygon fill="#999999" stroke="#666666" points="532.75,-93.25 391.5,-93.25 391.5,-74 532.75,-74 532.75,-93.25"/>
<text xml:space="preserve" text-anchor="middle" x="462.12" y="-79.75" font-family="Helvetica,sans-Serif" font-size="10.00">KeyboardMonitor::IsKeyHeld</text>
</a>
</g>
</g>
<!-- Node2 -->
<g id="Node000002" class="node">
<title>Node2</title>
<g id="a_Node000002"><a xlink:href="_snap_plugin_8cpp.html#a6d08fca2bd60bcf863b00515610f1237" target="_top" xlink:title=" ">
<polygon fill="white" stroke="#666666" points="174.5,-93.25 119.5,-93.25 119.5,-74 174.5,-74 174.5,-93.25"/>
<text xml:space="preserve" text-anchor="middle" x="147" y="-79.75" font-family="Helvetica,sans-Serif" font-size="10.00">IdleHook</text>
</a>
</g>
</g>
<!-- Node1&#45;&gt;Node2 -->
<g id="edge1_Node000001_Node000002" class="edge">
<title>Node1&#45;&gt;Node2</title>
<g id="a_edge1_Node000001_Node000002"><a xlink:title=" ">
<path fill="none" stroke="#63b8ff" d="M438.26,-100C417.73,-113.63 386.17,-132 355.5,-139.62 292.96,-155.18 270.69,-162.65 210.5,-139.62 186.28,-130.36 165.52,-106.91 155.12,-93.47"/>
<polygon fill="#63b8ff" stroke="#63b8ff" points="440.14,-102.96 446.42,-94.42 436.19,-97.18 440.14,-102.96"/>
</a>
</g>
</g>
<!-- Node4 -->
<g id="Node000004" class="node">
<title>Node4</title>
<g id="a_Node000004"><a xlink:href="namespace_keyboard_monitor.html#ab2b754e42b82ecf1f504548226a55339" target="_top" xlink:title=" ">
<polygon fill="white" stroke="#666666" points="351,-130.25 215,-130.25 215,-111 351,-111 351,-130.25"/>
<text xml:space="preserve" text-anchor="middle" x="283" y="-116.75" font-family="Helvetica,sans-Serif" font-size="10.00">KeyboardMonitor::IsAltHeld</text>
</a>
</g>
</g>
<!-- Node1&#45;&gt;Node4 -->
<g id="edge3_Node000001_Node000004" class="edge">
<title>Node1&#45;&gt;Node4</title>
<g id="a_edge3_Node000001_Node000004"><a xlink:title=" ">
<path fill="none" stroke="#63b8ff" d="M401.58,-96.06C379.06,-100.77 353.71,-106.06 332.34,-110.53"/>
<polygon fill="#63b8ff" stroke="#63b8ff" points="402.17,-99.52 411.24,-94.04 400.74,-92.66 402.17,-99.52"/>
</a>
</g>
</g>
<!-- Node5 -->
<g id="Node000005" class="node">
<title>Node5</title>
<g id="a_Node000005"><a xlink:href="namespace_keyboard_monitor.html#aaa5026dc3d4bcc02e92bf9995e596e8d" target="_top" xlink:title=" ">
<polygon fill="white" stroke="#666666" points="355.5,-93.25 210.5,-93.25 210.5,-74 355.5,-74 355.5,-93.25"/>
<text xml:space="preserve" text-anchor="middle" x="283" y="-79.75" font-family="Helvetica,sans-Serif" font-size="10.00">KeyboardMonitor::IsCmdHeld</text>
</a>
</g>
</g>
<!-- Node1&#45;&gt;Node5 -->
<g id="edge5_Node000001_Node000005" class="edge">
<title>Node1&#45;&gt;Node5</title>
<g id="a_edge5_Node000001_Node000005"><a xlink:title=" ">
<path fill="none" stroke="#63b8ff" d="M379.86,-83.62C371.84,-83.62 363.74,-83.62 355.82,-83.62"/>
<polygon fill="#63b8ff" stroke="#63b8ff" points="379.61,-87.13 389.61,-83.63 379.61,-80.13 379.61,-87.13"/>
</a>
</g>
</g>
<!-- Node6 -->
<g id="Node000006" class="node">
<title>Node6</title>
<g id="a_Node000006"><a xlink:href="namespace_keyboard_monitor.html#aef24008cc52808f65a53f28978a41c77" target="_top" xlink:title=" ">
<polygon fill="white" stroke="#666666" points="352.88,-56.25 213.12,-56.25 213.12,-37 352.88,-37 352.88,-56.25"/>
<text xml:space="preserve" text-anchor="middle" x="283" y="-42.75" font-family="Helvetica,sans-Serif" font-size="10.00">KeyboardMonitor::IsCtrlHeld</text>
</a>
</g>
</g>
<!-- Node1&#45;&gt;Node6 -->
<g id="edge6_Node000001_Node000006" class="edge">
<title>Node1&#45;&gt;Node6</title>
<g id="a_edge6_Node000001_Node000006"><a xlink:title=" ">
<path fill="none" stroke="#63b8ff" d="M401.58,-71.19C379.06,-66.48 353.71,-61.19 332.34,-56.72"/>
<polygon fill="#63b8ff" stroke="#63b8ff" points="400.74,-74.59 411.24,-73.21 402.17,-67.73 400.74,-74.59"/>
</a>
</g>
</g>
<!-- Node7 -->
<g id="Node000007" class="node">
<title>Node7</title>
<g id="a_Node000007"><a xlink:href="namespace_keyboard_monitor.html#a280ae1f9c52d87210ca28747bbf2bb00" target="_top" xlink:title=" ">
<polygon fill="white" stroke="#666666" points="355.12,-19.25 210.88,-19.25 210.88,0 355.12,0 355.12,-19.25"/>
<text xml:space="preserve" text-anchor="middle" x="283" y="-5.75" font-family="Helvetica,sans-Serif" font-size="10.00">KeyboardMonitor::IsShiftHeld</text>
</a>
</g>
</g>
<!-- Node1&#45;&gt;Node7 -->
<g id="edge8_Node000001_Node000007" class="edge">
<title>Node1&#45;&gt;Node7</title>
<g id="a_edge8_Node000001_Node000007"><a xlink:title=" ">
<path fill="none" stroke="#63b8ff" d="M435.53,-67.8C414.64,-55.45 384.01,-38.58 355.5,-27.62 347.73,-24.64 339.3,-22.01 331.04,-19.75"/>
<polygon fill="#63b8ff" stroke="#63b8ff" points="433.56,-70.7 443.94,-72.85 437.17,-64.7 433.56,-70.7"/>
</a>
</g>
</g>
<!-- Node3 -->
<g id="Node000003" class="node">
<title>Node3</title>
<g id="a_Node000003"><a xlink:href="_snap_plugin_8cpp.html#a93ac7ff3ad6003dabd3b1a84dce8165a" target="_top" xlink:title=" ">
<polygon fill="white" stroke="#666666" points="83.5,-93.25 0,-93.25 0,-74 83.5,-74 83.5,-93.25"/>
<text xml:space="preserve" text-anchor="middle" x="41.75" y="-79.75" font-family="Helvetica,sans-Serif" font-size="10.00">EntryPointFunc</text>
</a>
</g>
</g>
<!-- Node2&#45;&gt;Node3 -->
<g id="edge2_Node000002_Node000003" class="edge">
<title>Node2&#45;&gt;Node3</title>
<g id="a_edge2_Node000002_Node000003"><a xlink:title=" ">
<path fill="none" stroke="#63b8ff" d="M107.77,-83.62C99.98,-83.62 91.77,-83.62 83.89,-83.62"/>
<polygon fill="#63b8ff" stroke="#63b8ff" points="107.63,-87.13 117.63,-83.63 107.63,-80.13 107.63,-87.13"/>
</a>
</g>
</g>
<!-- Node4&#45;&gt;Node2 -->
<g id="edge4_Node000004_Node000002" class="edge">
<title>Node4&#45;&gt;Node2</title>
<g id="a_edge4_Node000004_Node000002"><a xlink:title=" ">
<path fill="none" stroke="#63b8ff" d="M229.83,-107.8C223.31,-106.11 216.74,-104.36 210.5,-102.62 198.81,-99.38 185.97,-95.53 174.99,-92.14"/>
<polygon fill="#63b8ff" stroke="#63b8ff" points="228.68,-111.12 239.23,-110.21 230.41,-104.34 228.68,-111.12"/>
</a>
</g>
</g>
<!-- Node6&#45;&gt;Node2 -->
<g id="edge7_Node000006_Node000002" class="edge">
<title>Node6&#45;&gt;Node2</title>
<g id="a_edge7_Node000006_Node000002"><a xlink:title=" ">
<path fill="none" stroke="#63b8ff" d="M229.83,-59.45C223.31,-61.14 216.74,-62.89 210.5,-64.62 198.81,-67.87 185.97,-71.72 174.99,-75.11"/>
<polygon fill="#63b8ff" stroke="#63b8ff" points="230.41,-62.91 239.23,-57.04 228.68,-56.13 230.41,-62.91"/>
</a>
</g>
</g>
<!-- Node7&#45;&gt;Node2 -->
<g id="edge9_Node000007_Node000002" class="edge">
<title>Node7&#45;&gt;Node2</title>
<g id="a_edge9_Node000007_Node000002"><a xlink:title=" ">
<path fill="none" stroke="#63b8ff" d="M218.79,-23.69C215.94,-24.9 213.16,-26.21 210.5,-27.62 188.12,-39.52 167.29,-61.12 156.24,-73.73"/>
<polygon fill="#63b8ff" stroke="#63b8ff" points="219.79,-27.06 227.93,-20.28 217.34,-20.5 219.79,-27.06"/>
</a>
</g>
</g>
</g>
</svg>

<g id="navigator" transform="translate(0 0)" fill="#404254">
  <rect fill="#f2f5e9" fill-opacity="0.5" stroke="#606060" stroke-width=".5" x="0" y="0" width="60" height="60"/>
  <use id="zoomplus" xlink:href="#zoomPlus" x="17" y="9" onmousedown="handleZoom(evt,'in')"/>
  <use id="zoomminus" xlink:href="#zoomMin" x="42" y="9" onmousedown="handleZoom(evt,'out')"/>
  <use id="reset" xlink:href="#resetDef" x="30" y="36" onmousedown="handleReset()"/>
   <use id="arrowup" xlink:href="#arrowUp" x="0" y="0" onmousedown="handlePan(0,-1)"/>
  <use id="arrowright" xlink:href="#arrowRight" x="0" y="0" onmousedown="handlePan(1,0)"/>
  <use id="arrowdown" xlink:href="#arrowDown" x="0" y="0" onmousedown="handlePan(0,1)"/>
  <use id="arrowleft" xlink:href="#arrowLeft" x="0" y="0" onmousedown="handlePan(-1,0)"/>
</g>
<svg viewBox="0 0 15 15" width="100%" height="30px" preserveAspectRatio="xMaxYMin meet">
 <g id="arrow_out" transform="scale(0.3 0.3)">
  <a xlink:href="namespace_keyboard_monitor_ae0553e95b0f6b4bd205a90fa3ff0a031_icgraph_org.svg" target="_base">
   <rect id="button" ry="5" rx="5" y="6" x="6" height="38" width="38"
        fill="#f2f5e9" fill-opacity="0.5" stroke="#606060" stroke-width="1.0"/>
   <path id="arrow"
     d="M 11.500037,31.436501 C 11.940474,20.09759 22.043105,11.32322 32.158766,21.979434 L 37.068811,17.246167 C 37.068811,17.246167 37.088388,32 37.088388,32 L 22.160133,31.978069 C 22.160133,31.978069 26.997745,27.140456 26.997745,27.140456 C 18.528582,18.264221 13.291696,25.230495 11.500037,31.436501 z"
     style="fill:#404040;"/>
  </a>
 </g>
</svg>

<style type='text/css'>
<![CDATA[
[data-mouse-over-selected='false'] { opacity: 0.7; }
[data-mouse-over-selected='true']  { opacity: 1.0; }
]]>
</style>
<script type="application/ecmascript"><![CDATA[
document.addEventListener('DOMContentLoaded', (event) => {
  highlightEdges();
  highlightAdjacentNodes();
});
]]></script>
</svg>
