<?xml version="1.0" encoding="UTF-8" standalone="no"?>
<!DOCTYPE svg PUBLIC "-//W3C//DTD SVG 1.1//EN"
 "http://www.w3.org/Graphics/SVG/1.1/DTD/svg11.dtd">
<!-- Generated by graphviz version 14.1.1 (20251213.1925)
 -->
<!-- Title: CEPBridge::GetCommandFilePath Pages: 1 -->
<svg width="493pt" height="46pt"
 viewBox="0.00 0.00 493.00 46.00" xmlns="http://www.w3.org/2000/svg" xmlns:xlink="http://www.w3.org/1999/xlink">
<g id="graph0" class="graph" transform="scale(1 1) rotate(0) translate(4 42.25)">
<title>CEPBridge::GetCommandFilePath</title>
<!-- Node1 -->
<g id="Node000001" class="node">
<title>Node1</title>
<g id="a_Node000001"><a xlink:title=" ">
<polygon fill="#999999" stroke="#666666" points="484.5,-19.25 317,-19.25 317,0 484.5,0 484.5,-19.25"/>
<text xml:space="preserve" text-anchor="middle" x="400.75" y="-5.75" font-family="Helvetica,sans-Serif" font-size="10.00">CEPBridge::GetCommandFilePath</text>
</a>
</g>
</g>
<!-- Node2 -->
<g id="Node000002" class="node">
<title>Node2</title>
<g id="a_Node000002"><a xlink:href="namespace_c_e_p_bridge.html#a77dbdbaa8288c375333ac5b8a77de1fc" target="_top" xlink:title=" ">
<polygon fill="white" stroke="#666666" points="281,-38.25 174.25,-38.25 174.25,-19 281,-19 281,-38.25"/>
<text xml:space="preserve" text-anchor="middle" x="227.62" y="-24.75" font-family="Helvetica,sans-Serif" font-size="10.00">CEPBridge::Initialize</text>
</a>
</g>
</g>
<!-- Node1&#45;&gt;Node2 -->
<g id="edge1_Node000001_Node000002" class="edge">
<title>Node1&#45;&gt;Node2</title>
<g id="a_edge1_Node000001_Node000002"><a xlink:title=" ">
<path fill="none" stroke="#63b8ff" d="M305.37,-20.1C297.09,-21.02 288.92,-21.93 281.18,-22.79"/>
<polygon fill="#63b8ff" stroke="#63b8ff" points="305.64,-23.6 315.19,-19.01 304.86,-16.64 305.64,-23.6"/>
</a>
</g>
</g>
<!-- Node3 -->
<g id="Node000003" class="node">
<title>Node3</title>
<g id="a_Node000003"><a xlink:href="namespace_c_e_p_bridge.html#af8519400d1d3477e25b45b335e279517" target="_top" xlink:title=" ">
<polygon fill="white" stroke="#666666" points="138.25,-19.25 0,-19.25 0,0 138.25,0 138.25,-19.25"/>
<text xml:space="preserve" text-anchor="middle" x="69.12" y="-5.75" font-family="Helvetica,sans-Serif" font-size="10.00">CEPBridge::SendCommand</text>
</a>
</g>
</g>
<!-- Node1&#45;&gt;Node3 -->
<g id="edge3_Node000001_Node000003" class="edge">
<title>Node1&#45;&gt;Node3</title>
<g id="a_edge3_Node000001_Node000003"><a xlink:title=" ">
<path fill="none" stroke="#63b8ff" d="M305.07,-9.62C251.9,-9.62 186.75,-9.62 138.55,-9.62"/>
<polygon fill="#63b8ff" stroke="#63b8ff" points="305.06,-13.13 315.06,-9.63 305.06,-6.13 305.06,-13.13"/>
</a>
</g>
</g>
<!-- Node2&#45;&gt;Node3 -->
<g id="edge2_Node000002_Node000003" class="edge">
<title>Node2&#45;&gt;Node3</title>
<g id="a_edge2_Node000002_Node000003"><a xlink:title=" ">
<path fill="none" stroke="#63b8ff" d="M162.67,-20.86C154.75,-19.9 146.63,-18.91 138.65,-17.94"/>
<polygon fill="#63b8ff" stroke="#63b8ff" points="162.23,-24.33 172.57,-22.06 163.07,-17.38 162.23,-24.33"/>
</a>
</g>
</g>
</g>
</svg>
