<?xml version="1.0" encoding="UTF-8" standalone="no"?>
<!DOCTYPE svg PUBLIC "-//W3C//DTD SVG 1.1//EN"
 "http://www.w3.org/Graphics/SVG/1.1/DTD/svg11.dtd">
<!-- Generated by graphviz version 14.1.1 (20251213.1925)
 -->
<!-- Title: CEPBridge::GetIPCDirectory Pages: 1 -->
<!--zoomable 151 -->

<svg id="main" version="1.1" xmlns="http://www.w3.org/2000/svg" xmlns:xlink="http://www.w3.org/1999/xlink" xml:space="preserve" onload="init(evt)">

<style type="text/css"><![CDATA[
.node, .edge {opacity: 0.7;}
.node.selected, .edge.selected {opacity: 1;}
.edge:hover path { stroke: red; }
.edge:hover polygon { stroke: red; fill: red; }
]]></style>

<defs>
  <circle id="rim" cx="0" cy="0" r="7"/>
  <circle id="rim2" cx="0" cy="0" r="3.5"/>
  <g id="zoomPlus">
    <use xlink:href="#rim" fill="#404040"><set attributeName="fill" to="#808080" begin="zoomplus.mouseover" end="zoomplus.mouseout"/></use>
    <path d="M-4,0h8M0,-4v8" fill="none" stroke="white" stroke-width="1.5" pointer-events="none"/>
  </g>
  <g id="zoomMin">
    <use xlink:href="#rim" fill="#404040"><set attributeName="fill" to="#808080" begin="zoomminus.mouseover" end="zoomminus.mouseout"/></use>
    <path d="M-4,0h8" fill="none" stroke="white" stroke-width="1.5" pointer-events="none"/>
  </g>
  <g id="arrowUp" transform="translate(30 24)">
    <use xlink:href="#rim"/>
    <path pointer-events="none" fill="none" stroke="white" stroke-width="1.5" d="M0,-3.0v7 M-2.5,-0.5L0,-3.0L2.5,-0.5"/>
  </g>
  <g id="arrowRight" transform="rotate(90) translate(36 -43)">
    <use xlink:href="#rim"/>
    <path pointer-events="none" fill="none" stroke="white" stroke-width="1.5" d="M0,-3.0v7 M-2.5,-0.5L0,-3.0L2.5,-0.5"/>
  </g>
  <g id="arrowDown" transform="rotate(180) translate(-30 -48)">
    <use xlink:href="#rim"/>
    <path pointer-events="none" fill="none" stroke="white" stroke-width="1.5" d="M0,-3.0v7 M-2.5,-0.5L0,-3.0L2.5,-0.5"/>
  </g>
  <g id="arrowLeft" transform="rotate(270) translate(-36 17)">
    <use xlink:href="#rim"/>
    <path pointer-events="none" fill="none" stroke="white" stroke-width="1.5" d="M0,-3.0v7 M-2.5,-0.5L0,-3.0L2.5,-0.5"/>
  </g>
  <g id="resetDef">
    <use xlink:href="#rim2" fill="#404040"><set attributeName="fill" to="#808080" begin="reset.mouseover" end="reset.mouseout"/></use>
  </g>
</defs>
<script type="application/ecmascript">
var viewWidth = 702;
var viewHeight = 151;
var sectionId = 'dynsection-3';
</script>
<script type="application/ecmascript" xlink:href="svg.min.js"/>
<svg id="graph" class="graph">
<g id="viewport">
<title>CEPBridge::GetIPCDirectory</title>
<!-- Node1 -->
<g id="Node000001" class="node">
<title>Node1</title>
<g id="a_Node000001"><a xlink:title=" ">
<polygon fill="#999999" stroke="#666666" points="694,-105.25 550.5,-105.25 550.5,-86 694,-86 694,-105.25"/>
<text xml:space="preserve" text-anchor="middle" x="622.25" y="-91.75" font-family="Helvetica,sans-Serif" font-size="10.00">CEPBridge::GetIPCDirectory</text>
</a>
</g>
</g>
<!-- Node2 -->
<g id="Node000002" class="node">
<title>Node2</title>
<g id="a_Node000002"><a xlink:href="namespace_c_e_p_bridge.html#a96d7e60dbb95d9693d1dbf50d3bb3e48" target="_top" xlink:title=" ">
<polygon fill="white" stroke="#666666" points="514.5,-105.25 347,-105.25 347,-86 514.5,-86 514.5,-105.25"/>
<text xml:space="preserve" text-anchor="middle" x="430.75" y="-91.75" font-family="Helvetica,sans-Serif" font-size="10.00">CEPBridge::GetCommandFilePath</text>
</a>
</g>
</g>
<!-- Node1&#45;&gt;Node2 -->
<g id="edge1_Node000001_Node000002" class="edge">
<title>Node1&#45;&gt;Node2</title>
<g id="a_edge1_Node000001_Node000002"><a xlink:title=" ">
<path fill="none" stroke="#63b8ff" d="M538.64,-95.62C530.71,-95.62 522.67,-95.62 514.74,-95.62"/>
<polygon fill="#63b8ff" stroke="#63b8ff" points="538.63,-99.13 548.63,-95.63 538.63,-92.13 538.63,-99.13"/>
</a>
</g>
</g>
<!-- Node3 -->
<g id="Node000003" class="node">
<title>Node3</title>
<g id="a_Node000003"><a xlink:href="namespace_c_e_p_bridge.html#a77dbdbaa8288c375333ac5b8a77de1fc" target="_top" xlink:title=" ">
<polygon fill="white" stroke="#666666" points="296,-143.25 189.25,-143.25 189.25,-124 296,-124 296,-143.25"/>
<text xml:space="preserve" text-anchor="middle" x="242.62" y="-129.75" font-family="Helvetica,sans-Serif" font-size="10.00">CEPBridge::Initialize</text>
</a>
</g>
</g>
<!-- Node1&#45;&gt;Node3 -->
<g id="edge8_Node000001_Node000003" class="edge">
<title>Node1&#45;&gt;Node3</title>
<g id="a_edge8_Node000001_Node000003"><a xlink:title=" ">
<path fill="none" stroke="#63b8ff" d="M559.83,-107.71C545.03,-110.3 529.24,-112.8 514.5,-114.62 439.06,-123.96 351.18,-129.07 296.47,-131.58"/>
<polygon fill="#63b8ff" stroke="#63b8ff" points="560.2,-111.2 569.43,-105.98 558.96,-104.31 560.2,-111.2"/>
</a>
</g>
</g>
<!-- Node5 -->
<g id="Node000005" class="node">
<title>Node5</title>
<g id="a_Node000005"><a xlink:href="namespace_c_e_p_bridge.html#a67e87e1daab1a76d4477bd62d463ebb4" target="_top" xlink:title=" ">
<polygon fill="white" stroke="#666666" points="503.62,-62.25 357.88,-62.25 357.88,-43 503.62,-43 503.62,-62.25"/>
<text xml:space="preserve" text-anchor="middle" x="430.75" y="-48.75" font-family="Helvetica,sans-Serif" font-size="10.00">CEPBridge::GetStateFilePath</text>
</a>
</g>
</g>
<!-- Node1&#45;&gt;Node5 -->
<g id="edge5_Node000001_Node000005" class="edge">
<title>Node1&#45;&gt;Node5</title>
<g id="a_edge5_Node000001_Node000005"><a xlink:title=" ">
<path fill="none" stroke="#63b8ff" d="M565.8,-83.04C537.28,-76.57 502.99,-68.79 476.23,-62.72"/>
<polygon fill="#63b8ff" stroke="#63b8ff" points="564.82,-86.41 575.34,-85.21 566.37,-79.58 564.82,-86.41"/>
</a>
</g>
</g>
<!-- Node2&#45;&gt;Node3 -->
<g id="edge2_Node000002_Node000003" class="edge">
<title>Node2&#45;&gt;Node3</title>
<g id="a_edge2_Node000002_Node000003"><a xlink:title=" ">
<path fill="none" stroke="#63b8ff" d="M369.28,-107.97C344.57,-113.02 316.35,-118.78 292.92,-123.56"/>
<polygon fill="#63b8ff" stroke="#63b8ff" points="369.78,-111.44 378.88,-106.01 368.38,-104.58 369.78,-111.44"/>
</a>
</g>
</g>
<!-- Node4 -->
<g id="Node000004" class="node">
<title>Node4</title>
<g id="a_Node000004"><a xlink:href="namespace_c_e_p_bridge.html#af8519400d1d3477e25b45b335e279517" target="_top" xlink:title=" ">
<polygon fill="white" stroke="#666666" points="138.25,-124.25 0,-124.25 0,-105 138.25,-105 138.25,-124.25"/>
<text xml:space="preserve" text-anchor="middle" x="69.12" y="-110.75" font-family="Helvetica,sans-Serif" font-size="10.00">CEPBridge::SendCommand</text>
</a>
</g>
</g>
<!-- Node2&#45;&gt;Node4 -->
<g id="edge4_Node000002_Node000004" class="edge">
<title>Node2&#45;&gt;Node4</title>
<g id="a_edge4_Node000002_Node000004"><a xlink:title=" ">
<path fill="none" stroke="#63b8ff" d="M335.47,-100.61C273.66,-103.87 194.27,-108.07 138.49,-111.01"/>
<polygon fill="#63b8ff" stroke="#63b8ff" points="335.48,-104.11 345.28,-100.09 335.11,-97.12 335.48,-104.11"/>
</a>
</g>
</g>
<!-- Node3&#45;&gt;Node4 -->
<g id="edge3_Node000003_Node000004" class="edge">
<title>Node3&#45;&gt;Node4</title>
<g id="a_edge3_Node000003_Node000004"><a xlink:title=" ">
<path fill="none" stroke="#63b8ff" d="M177.37,-126.51C164.72,-125.1 151.4,-123.63 138.61,-122.21"/>
<polygon fill="#63b8ff" stroke="#63b8ff" points="176.94,-129.98 187.27,-127.6 177.71,-123.02 176.94,-129.98"/>
</a>
</g>
</g>
<!-- Node6 -->
<g id="Node000006" class="node">
<title>Node6</title>
<g id="a_Node000006"><a xlink:href="namespace_c_e_p_bridge.html#a49fc958bb2b6bf669497ba9bc6ac8ceb" target="_top" xlink:title=" ">
<polygon fill="white" stroke="#666666" points="311,-67.88 174.25,-67.88 174.25,-37.38 311,-37.38 311,-67.88"/>
<text xml:space="preserve" text-anchor="start" x="182.25" y="-54.38" font-family="Helvetica,sans-Serif" font-size="10.00">CEPBridge::GetCurrentGrid</text>
<text xml:space="preserve" text-anchor="middle" x="242.62" y="-43.12" font-family="Helvetica,sans-Serif" font-size="10.00">Selection</text>
</a>
</g>
</g>
<!-- Node5&#45;&gt;Node6 -->
<g id="edge6_Node000005_Node000006" class="edge">
<title>Node5&#45;&gt;Node6</title>
<g id="a_edge6_Node000005_Node000006"><a xlink:title=" ">
<path fill="none" stroke="#63b8ff" d="M346.35,-52.62C334.6,-52.62 322.64,-52.62 311.24,-52.62"/>
<polygon fill="#63b8ff" stroke="#63b8ff" points="346.01,-56.13 356.01,-52.63 346.01,-49.13 346.01,-56.13"/>
</a>
</g>
</g>
<!-- Node7 -->
<g id="Node000007" class="node">
<title>Node7</title>
<g id="a_Node000007"><a xlink:href="namespace_c_e_p_bridge.html#a853dc6bfbc25b97fbcd84a3d198335f4" target="_top" xlink:title=" ">
<polygon fill="white" stroke="#666666" points="308.38,-19.25 176.88,-19.25 176.88,0 308.38,0 308.38,-19.25"/>
<text xml:space="preserve" text-anchor="middle" x="242.62" y="-5.75" font-family="Helvetica,sans-Serif" font-size="10.00">CEPBridge::IsPanelActive</text>
</a>
</g>
</g>
<!-- Node5&#45;&gt;Node7 -->
<g id="edge7_Node000005_Node000007" class="edge">
<title>Node5&#45;&gt;Node7</title>
<g id="a_edge7_Node000005_Node000007"><a xlink:title=" ">
<path fill="none" stroke="#63b8ff" d="M374.92,-39.96C346.98,-33.5 313.48,-25.76 287.31,-19.72"/>
<polygon fill="#63b8ff" stroke="#63b8ff" points="374.11,-43.36 384.64,-42.2 375.68,-36.54 374.11,-43.36"/>
</a>
</g>
</g>
</g>
</svg>

<g id="navigator" transform="translate(0 0)" fill="#404254">
  <rect fill="#f2f5e9" fill-opacity="0.5" stroke="#606060" stroke-width=".5" x="0" y="0" width="60" height="60"/>
  <use id="zoomplus" xlink:href="#zoomPlus" x="17" y="9" onmousedown="handleZoom(evt,'in')"/>
  <use id="zoomminus" xlink:href="#zoomMin" x="42" y="9" onmousedown="handleZoom(evt,'out')"/>
  <use id="reset" xlink:href="#resetDef" x="30" y="36" onmousedown="handleReset()"/>
   <use id="arrowup" xlink:href="#arrowUp" x="0" y="0" onmousedown="handlePan(0,-1)"/>
  <use id="arrowright" xlink:href="#arrowRight" x="0" y="0" onmousedown="handlePan(1,0)"/>
  <use id="arrowdown" xlink:href="#arrowDown" x="0" y="0" onmousedown="handlePan(0,1)"/>
  <use id="arrowleft" xlink:href="#arrowLeft" x="0" y="0" onmousedown="handlePan(-1,0)"/>
</g>
<svg viewBox="0 0 15 15" width="100%" height="30px" preserveAspectRatio="xMaxYMin meet">
 <g id="arrow_out" transform="scale(0.3 0.3)">
  <a xlink:href="namespace_c_e_p_bridge_a38916a97a3117838a6795def2c7b69e2_icgraph_org.svg" target="_base">
   <rect id="button" ry="5" rx="5" y="6" x="6" height="38" width="38"
        fill="#f2f5e9" fill-opacity="0.5" stroke="#606060" stroke-width="1.0"/>
   <path id="arrow"
     d="M 11.500037,31.436501 C 11.940474,20.09759 22.043105,11.32322 32.158766,21.979434 L 37.068811,17.246167 C 37.068811,17.246167 37.088388,32 37.088388,32 L 22.160133,31.978069 C 22.160133,31.978069 26.997745,27.140456 26.997745,27.140456 C 18.528582,18.264221 13.291696,25.230495 11.500037,31.436501 z"
     style="fill:#404040;"/>
  </a>
 </g>
</svg>

<style type='text/css'>
<![CDATA[
[data-mouse-over-selected='false'] { opacity: 0.7; }
[data-mouse-over-selected='true']  { opacity: 1.0; }
]]>
</style>
<script type="application/ecmascript"><![CDATA[
document.addEventListener('DOMContentLoaded', (event) => {
  highlightEdges();
  highlightAdjacentNodes();
});
]]></script>
</svg>
