<?xml version="1.0" encoding="UTF-8" standalone="no"?>
<!DOCTYPE svg PUBLIC "-//W3C//DTD SVG 1.1//EN"
 "http://www.w3.org/Graphics/SVG/1.1/DTD/svg11.dtd">
<!-- Generated by graphviz version 14.1.1 (20251213.1925)
 -->
<!-- Title: NativeUI::GetSettings Pages: 1 -->
<!--zoomable 178 -->

<svg id="main" version="1.1" xmlns="http://www.w3.org/2000/svg" xmlns:xlink="http://www.w3.org/1999/xlink" xml:space="preserve" onload="init(evt)">

<style type="text/css"><![CDATA[
.node, .edge {opacity: 0.7;}
.node.selected, .edge.selected {opacity: 1;}
.edge:hover path { stroke: red; }
.edge:hover polygon { stroke: red; fill: red; }
]]></style>

<defs>
  <circle id="rim" cx="0" cy="0" r="7"/>
  <circle id="rim2" cx="0" cy="0" r="3.5"/>
  <g id="zoomPlus">
    <use xlink:href="#rim" fill="#404040"><set attributeName="fill" to="#808080" begin="zoomplus.mouseover" end="zoomplus.mouseout"/></use>
    <path d="M-4,0h8M0,-4v8" fill="none" stroke="white" stroke-width="1.5" pointer-events="none"/>
  </g>
  <g id="zoomMin">
    <use xlink:href="#rim" fill="#404040"><set attributeName="fill" to="#808080" begin="zoomminus.mouseover" end="zoomminus.mouseout"/></use>
    <path d="M-4,0h8" fill="none" stroke="white" stroke-width="1.5" pointer-events="none"/>
  </g>
  <g id="arrowUp" transform="translate(30 24)">
    <use xlink:href="#rim"/>
    <path pointer-events="none" fill="none" stroke="white" stroke-width="1.5" d="M0,-3.0v7 M-2.5,-0.5L0,-3.0L2.5,-0.5"/>
  </g>
  <g id="arrowRight" transform="rotate(90) translate(36 -43)">
    <use xlink:href="#rim"/>
    <path pointer-events="none" fill="none" stroke="white" stroke-width="1.5" d="M0,-3.0v7 M-2.5,-0.5L0,-3.0L2.5,-0.5"/>
  </g>
  <g id="arrowDown" transform="rotate(180) translate(-30 -48)">
    <use xlink:href="#rim"/>
    <path pointer-events="none" fill="none" stroke="white" stroke-width="1.5" d="M0,-3.0v7 M-2.5,-0.5L0,-3.0L2.5,-0.5"/>
  </g>
  <g id="arrowLeft" transform="rotate(270) translate(-36 17)">
    <use xlink:href="#rim"/>
    <path pointer-events="none" fill="none" stroke="white" stroke-width="1.5" d="M0,-3.0v7 M-2.5,-0.5L0,-3.0L2.5,-0.5"/>
  </g>
  <g id="resetDef">
    <use xlink:href="#rim2" fill="#404040"><set attributeName="fill" to="#808080" begin="reset.mouseover" end="reset.mouseout"/></use>
  </g>
</defs>
<script type="application/ecmascript">
var viewWidth = 626;
var viewHeight = 178;
var sectionId = 'dynsection-3';
</script>
<script type="application/ecmascript" xlink:href="svg.min.js"/>
<svg id="graph" class="graph">
<g id="viewport">
<title>NativeUI::GetSettings</title>
<!-- Node1 -->
<g id="Node000001" class="node">
<title>Node1</title>
<g id="a_Node000001"><a xlink:title=" ">
<polygon fill="#999999" stroke="#666666" points="617.75,-94.25 505,-94.25 505,-75 617.75,-75 617.75,-94.25"/>
<text xml:space="preserve" text-anchor="middle" x="561.38" y="-80.75" font-family="Helvetica,sans-Serif" font-size="10.00">NativeUI::GetSettings</text>
</a>
</g>
</g>
<!-- Node2 -->
<g id="Node000002" class="node">
<title>Node2</title>
<g id="a_Node000002"><a xlink:href="_snap_plugin_8cpp.html#a57b76384332094875db8c62f3e7e1e7a" target="_top" xlink:title=" ">
<polygon fill="white" stroke="#666666" points="469,-170.25 357.75,-170.25 357.75,-151 469,-151 469,-170.25"/>
<text xml:space="preserve" text-anchor="middle" x="413.38" y="-156.75" font-family="Helvetica,sans-Serif" font-size="10.00">ApplyAnchorToLayers</text>
</a>
</g>
</g>
<!-- Node1&#45;&gt;Node2 -->
<g id="edge1_Node000001_Node000002" class="edge">
<title>Node1&#45;&gt;Node2</title>
<g id="a_edge1_Node000001_Node000002"><a xlink:title=" ">
<path fill="none" stroke="#63b8ff" d="M534.02,-100.59C515.98,-111.27 491.36,-125.39 469,-136.62 459.28,-141.51 448.35,-146.42 438.83,-150.52"/>
<polygon fill="#63b8ff" stroke="#63b8ff" points="535.72,-103.64 542.52,-95.51 532.14,-97.63 535.72,-103.64"/>
</a>
</g>
</g>
<!-- Node3 -->
<g id="Node000003" class="node">
<title>Node3</title>
<g id="a_Node000003"><a xlink:href="_snap_plugin_8cpp.html#aff4336719f13243e062c7b4e9a15bc03" target="_top" xlink:title=" ">
<polygon fill="white" stroke="#666666" points="320.62,-113.25 211.62,-113.25 211.62,-94 320.62,-94 320.62,-113.25"/>
<text xml:space="preserve" text-anchor="middle" x="266.12" y="-99.75" font-family="Helvetica,sans-Serif" font-size="10.00">HideAndApplyAnchor</text>
</a>
</g>
</g>
<!-- Node1&#45;&gt;Node3 -->
<g id="edge5_Node000001_Node000003" class="edge">
<title>Node1&#45;&gt;Node3</title>
<g id="a_edge5_Node000001_Node000003"><a xlink:title=" ">
<path fill="none" stroke="#63b8ff" d="M509.43,-97.14C496.34,-99.83 482.21,-102.27 469,-103.62 418.97,-108.77 361.6,-108.15 320.83,-106.61"/>
<polygon fill="#63b8ff" stroke="#63b8ff" points="510.1,-100.58 519.14,-95.06 508.63,-93.73 510.1,-100.58"/>
</a>
</g>
</g>
<!-- Node6 -->
<g id="Node000006" class="node">
<title>Node6</title>
<g id="a_Node000006"><a xlink:href="_snap_plugin_8cpp.html#a6444d306b0c639f29433e840d46f8e16" target="_top" xlink:title=" ">
<polygon fill="white" stroke="#666666" points="321.75,-56.25 210.5,-56.25 210.5,-37 321.75,-37 321.75,-56.25"/>
<text xml:space="preserve" text-anchor="middle" x="266.12" y="-42.75" font-family="Helvetica,sans-Serif" font-size="10.00">LoadSettingsFromFile</text>
</a>
</g>
</g>
<!-- Node1&#45;&gt;Node6 -->
<g id="edge6_Node000001_Node000006" class="edge">
<title>Node1&#45;&gt;Node6</title>
<g id="a_edge6_Node000001_Node000006"><a xlink:title=" ">
<path fill="none" stroke="#63b8ff" d="M505.6,-72.2C493.58,-69.77 480.9,-67.42 469,-65.62 419.57,-58.18 362.86,-53.15 322.16,-50.15"/>
<polygon fill="#63b8ff" stroke="#63b8ff" points="504.88,-75.63 515.38,-74.24 506.3,-68.77 504.88,-75.63"/>
</a>
</g>
</g>
<!-- Node7 -->
<g id="Node000007" class="node">
<title>Node7</title>
<g id="a_Node000007"><a xlink:href="_snap_plugin_8cpp.html#ab45444e0a984fceb84eb1d24951a2836" target="_top" xlink:title=" ">
<polygon fill="white" stroke="#666666" points="463.75,-94.25 363,-94.25 363,-75 463.75,-75 463.75,-94.25"/>
<text xml:space="preserve" text-anchor="middle" x="413.38" y="-80.75" font-family="Helvetica,sans-Serif" font-size="10.00">SaveSettingsToFile</text>
</a>
</g>
</g>
<!-- Node1&#45;&gt;Node7 -->
<g id="edge8_Node000001_Node000007" class="edge">
<title>Node1&#45;&gt;Node7</title>
<g id="a_edge8_Node000001_Node000007"><a xlink:title=" ">
<path fill="none" stroke="#63b8ff" d="M493.32,-84.62C483.48,-84.62 473.5,-84.62 464.09,-84.62"/>
<polygon fill="#63b8ff" stroke="#63b8ff" points="493.25,-88.13 503.25,-84.63 493.25,-81.13 493.25,-88.13"/>
</a>
</g>
</g>
<!-- Node8 -->
<g id="Node000008" class="node">
<title>Node8</title>
<g id="a_Node000008"><a xlink:href="_snap_plugin_8cpp.html#a6cb9de088db788943fae2021834cefa4" target="_top" xlink:title=" ">
<polygon fill="white" stroke="#666666" points="310.88,-19.25 221.38,-19.25 221.38,0 310.88,0 310.88,-19.25"/>
<text xml:space="preserve" text-anchor="middle" x="266.12" y="-5.75" font-family="Helvetica,sans-Serif" font-size="10.00">ShowAnchorGrid</text>
</a>
</g>
</g>
<!-- Node1&#45;&gt;Node8 -->
<g id="edge10_Node000001_Node000008" class="edge">
<title>Node1&#45;&gt;Node8</title>
<g id="a_edge10_Node000001_Node000008"><a xlink:title=" ">
<path fill="none" stroke="#63b8ff" d="M526.89,-70.23C509.81,-63.28 488.55,-55.26 469,-49.62 415.62,-34.23 352.6,-22.78 311.35,-16.16"/>
<polygon fill="#63b8ff" stroke="#63b8ff" points="525.48,-73.43 536.06,-74.02 528.16,-66.96 525.48,-73.43"/>
</a>
</g>
</g>
<!-- Node2&#45;&gt;Node3 -->
<g id="edge2_Node000002_Node000003" class="edge">
<title>Node2&#45;&gt;Node3</title>
<g id="a_edge2_Node000002_Node000003"><a xlink:title=" ">
<path fill="none" stroke="#63b8ff" d="M376.15,-146.41C350.11,-136.19 315.65,-122.67 292.5,-113.58"/>
<polygon fill="#63b8ff" stroke="#63b8ff" points="374.75,-149.62 385.33,-150.01 377.3,-143.1 374.75,-149.62"/>
</a>
</g>
</g>
<!-- Node4 -->
<g id="Node000004" class="node">
<title>Node4</title>
<g id="a_Node000004"><a xlink:href="_snap_plugin_8cpp.html#a6d08fca2bd60bcf863b00515610f1237" target="_top" xlink:title=" ">
<polygon fill="white" stroke="#666666" points="174.5,-56.25 119.5,-56.25 119.5,-37 174.5,-37 174.5,-56.25"/>
<text xml:space="preserve" text-anchor="middle" x="147" y="-42.75" font-family="Helvetica,sans-Serif" font-size="10.00">IdleHook</text>
</a>
</g>
</g>
<!-- Node3&#45;&gt;Node4 -->
<g id="edge3_Node000003_Node000004" class="edge">
<title>Node3&#45;&gt;Node4</title>
<g id="a_edge3_Node000003_Node000004"><a xlink:title=" ">
<path fill="none" stroke="#63b8ff" d="M234.22,-88.58C213.44,-78.47 186.63,-65.42 168.46,-56.58"/>
<polygon fill="#63b8ff" stroke="#63b8ff" points="232.57,-91.67 243.09,-92.9 235.63,-85.38 232.57,-91.67"/>
</a>
</g>
</g>
<!-- Node5 -->
<g id="Node000005" class="node">
<title>Node5</title>
<g id="a_Node000005"><a xlink:href="_snap_plugin_8cpp.html#a93ac7ff3ad6003dabd3b1a84dce8165a" target="_top" xlink:title=" ">
<polygon fill="white" stroke="#666666" points="83.5,-56.25 0,-56.25 0,-37 83.5,-37 83.5,-56.25"/>
<text xml:space="preserve" text-anchor="middle" x="41.75" y="-42.75" font-family="Helvetica,sans-Serif" font-size="10.00">EntryPointFunc</text>
</a>
</g>
</g>
<!-- Node4&#45;&gt;Node5 -->
<g id="edge4_Node000004_Node000005" class="edge">
<title>Node4&#45;&gt;Node5</title>
<g id="a_edge4_Node000004_Node000005"><a xlink:title=" ">
<path fill="none" stroke="#63b8ff" d="M107.77,-46.62C99.98,-46.62 91.77,-46.62 83.89,-46.62"/>
<polygon fill="#63b8ff" stroke="#63b8ff" points="107.63,-50.13 117.63,-46.63 107.63,-43.13 107.63,-50.13"/>
</a>
</g>
</g>
<!-- Node6&#45;&gt;Node4 -->
<g id="edge7_Node000006_Node000004" class="edge">
<title>Node6&#45;&gt;Node4</title>
<g id="a_edge7_Node000006_Node000004"><a xlink:title=" ">
<path fill="none" stroke="#63b8ff" d="M199.02,-46.62C190.45,-46.62 182.11,-46.62 174.73,-46.62"/>
<polygon fill="#63b8ff" stroke="#63b8ff" points="198.82,-50.13 208.82,-46.63 198.82,-43.13 198.82,-50.13"/>
</a>
</g>
</g>
<!-- Node7&#45;&gt;Node3 -->
<g id="edge9_Node000007_Node000003" class="edge">
<title>Node7&#45;&gt;Node3</title>
<g id="a_edge9_Node000007_Node000003"><a xlink:title=" ">
<path fill="none" stroke="#63b8ff" d="M351.52,-92.59C341.37,-93.91 330.91,-95.28 320.96,-96.58"/>
<polygon fill="#63b8ff" stroke="#63b8ff" points="351.83,-96.07 361.29,-91.31 350.92,-89.13 351.83,-96.07"/>
</a>
</g>
</g>
<!-- Node8&#45;&gt;Node4 -->
<g id="edge11_Node000008_Node000004" class="edge">
<title>Node8&#45;&gt;Node4</title>
<g id="a_edge11_Node000008_Node000004"><a xlink:title=" ">
<path fill="none" stroke="#63b8ff" d="M222.44,-23.11C206.52,-28.14 188.91,-33.7 174.82,-38.15"/>
<polygon fill="#63b8ff" stroke="#63b8ff" points="223.2,-26.54 231.68,-20.19 221.09,-19.87 223.2,-26.54"/>
</a>
</g>
</g>
</g>
</svg>

<g id="navigator" transform="translate(0 0)" fill="#404254">
  <rect fill="#f2f5e9" fill-opacity="0.5" stroke="#606060" stroke-width=".5" x="0" y="0" width="60" height="60"/>
  <use id="zoomplus" xlink:href="#zoomPlus" x="17" y="9" onmousedown="handleZoom(evt,'in')"/>
  <use id="zoomminus" xlink:href="#zoomMin" x="42" y="9" onmousedown="handleZoom(evt,'out')"/>
  <use id="reset" xlink:href="#resetDef" x="30" y="36" onmousedown="handleReset()"/>
   <use id="arrowup" xlink:href="#arrowUp" x="0" y="0" onmousedown="handlePan(0,-1)"/>
  <use id="arrowright" xlink:href="#arrowRight" x="0" y="0" onmousedown="handlePan(1,0)"/>
  <use id="arrowdown" xlink:href="#arrowDown" x="0" y="0" onmousedown="handlePan(0,1)"/>
  <use id="arrowleft" xlink:href="#arrowLeft" x="0" y="0" onmousedown="handlePan(-1,0)"/>
</g>
<svg viewBox="0 0 15 15" width="100%" height="30px" preserveAspectRatio="xMaxYMin meet">
 <g id="arrow_out" transform="scale(0.3 0.3)">
  <a xlink:href="namespace_native_u_i_a523b9f0311a532ee93b1d8ef5dec3f45_icgraph_org.svg" target="_base">
   <rect id="button" ry="5" rx="5" y="6" x="6" height="38" width="38"
        fill="#f2f5e9" fill-opacity="0.5" stroke="#606060" stroke-width="1.0"/>
   <path id="arrow"
     d="M 11.500037,31.436501 C 11.940474,20.09759 22.043105,11.32322 32.158766,21.979434 L 37.068811,17.246167 C 37.068811,17.246167 37.088388,32 37.088388,32 L 22.160133,31.978069 C 22.160133,31.978069 26.997745,27.140456 26.997745,27.140456 C 18.528582,18.264221 13.291696,25.230495 11.500037,31.436501 z"
     style="fill:#404040;"/>
  </a>
 </g>
</svg>

<style type='text/css'>
<![CDATA[
[data-mouse-over-selected='false'] { opacity: 0.7; }
[data-mouse-over-selected='true']  { opacity: 1.0; }
]]>
</style>
<script type="application/ecmascript"><![CDATA[
document.addEventListener('DOMContentLoaded', (event) => {
  highlightEdges();
  highlightAdjacentNodes();
});
]]></script>
</svg>
