<?xml version="1.0" encoding="UTF-8" standalone="no"?>
<!DOCTYPE svg PUBLIC "-//W3C//DTD SVG 1.1//EN"
 "http://www.w3.org/Graphics/SVG/1.1/DTD/svg11.dtd">
<!-- Generated by graphviz version 14.1.1 (20251213.1925)
 -->
<!-- Title: KeyboardMonitor::GetMousePosition Pages: 1 -->
<svg width="504pt" height="52pt"
 viewBox="0.00 0.00 504.00 52.00" xmlns="http://www.w3.org/2000/svg" xmlns:xlink="http://www.w3.org/1999/xlink">
<g id="graph0" class="graph" transform="scale(1 1) rotate(0) translate(4 47.88)">
<title>KeyboardMonitor::GetMousePosition</title>
<!-- Node1 -->
<g id="Node000001" class="node">
<title>Node1</title>
<g id="a_Node000001"><a xlink:title=" ">
<polygon fill="#999999" stroke="#666666" points="496,-30.5 355.5,-30.5 355.5,0 496,0 496,-30.5"/>
<text xml:space="preserve" text-anchor="start" x="363.5" y="-17" font-family="Helvetica,sans-Serif" font-size="10.00">KeyboardMonitor::GetMouse</text>
<text xml:space="preserve" text-anchor="middle" x="425.75" y="-5.75" font-family="Helvetica,sans-Serif" font-size="10.00">Position</text>
</a>
</g>
</g>
<!-- Node2 -->
<g id="Node000002" class="node">
<title>Node2</title>
<g id="a_Node000002"><a xlink:href="_snap_plugin_8cpp.html#aff4336719f13243e062c7b4e9a15bc03" target="_top" xlink:title=" ">
<polygon fill="white" stroke="#666666" points="319.5,-43.88 210.5,-43.88 210.5,-24.62 319.5,-24.62 319.5,-43.88"/>
<text xml:space="preserve" text-anchor="middle" x="265" y="-30.38" font-family="Helvetica,sans-Serif" font-size="10.00">HideAndApplyAnchor</text>
</a>
</g>
</g>
<!-- Node1&#45;&gt;Node2 -->
<g id="edge1_Node000001_Node000002" class="edge">
<title>Node1&#45;&gt;Node2</title>
<g id="a_edge1_Node000001_Node000002"><a xlink:title=" ">
<path fill="none" stroke="#63b8ff" d="M343.7,-24.95C335.6,-25.92 327.53,-26.89 319.82,-27.81"/>
<polygon fill="#63b8ff" stroke="#63b8ff" points="344.1,-28.43 353.62,-23.76 343.27,-21.48 344.1,-28.43"/>
</a>
</g>
</g>
<!-- Node3 -->
<g id="Node000003" class="node">
<title>Node3</title>
<g id="a_Node000003"><a xlink:href="_snap_plugin_8cpp.html#a6d08fca2bd60bcf863b00515610f1237" target="_top" xlink:title=" ">
<polygon fill="white" stroke="#666666" points="174.5,-24.88 119.5,-24.88 119.5,-5.63 174.5,-5.63 174.5,-24.88"/>
<text xml:space="preserve" text-anchor="middle" x="147" y="-11.38" font-family="Helvetica,sans-Serif" font-size="10.00">IdleHook</text>
</a>
</g>
</g>
<!-- Node1&#45;&gt;Node3 -->
<g id="edge4_Node000001_Node000003" class="edge">
<title>Node1&#45;&gt;Node3</title>
<g id="a_edge4_Node000001_Node000003"><a xlink:title=" ">
<path fill="none" stroke="#63b8ff" d="M344.07,-15.25C286.93,-15.25 213.79,-15.25 174.99,-15.25"/>
<polygon fill="#63b8ff" stroke="#63b8ff" points="343.76,-18.75 353.76,-15.25 343.76,-11.75 343.76,-18.75"/>
</a>
</g>
</g>
<!-- Node2&#45;&gt;Node3 -->
<g id="edge2_Node000002_Node000003" class="edge">
<title>Node2&#45;&gt;Node3</title>
<g id="a_edge2_Node000002_Node000003"><a xlink:title=" ">
<path fill="none" stroke="#63b8ff" d="M198.93,-23.59C190.49,-22.21 182.26,-20.86 174.95,-19.66"/>
<polygon fill="#63b8ff" stroke="#63b8ff" points="198.15,-27.01 208.58,-25.17 199.28,-20.1 198.15,-27.01"/>
</a>
</g>
</g>
<!-- Node4 -->
<g id="Node000004" class="node">
<title>Node4</title>
<g id="a_Node000004"><a xlink:href="_snap_plugin_8cpp.html#a93ac7ff3ad6003dabd3b1a84dce8165a" target="_top" xlink:title=" ">
<polygon fill="white" stroke="#666666" points="83.5,-24.88 0,-24.88 0,-5.63 83.5,-5.63 83.5,-24.88"/>
<text xml:space="preserve" text-anchor="middle" x="41.75" y="-11.38" font-family="Helvetica,sans-Serif" font-size="10.00">EntryPointFunc</text>
</a>
</g>
</g>
<!-- Node3&#45;&gt;Node4 -->
<g id="edge3_Node000003_Node000004" class="edge">
<title>Node3&#45;&gt;Node4</title>
<g id="a_edge3_Node000003_Node000004"><a xlink:title=" ">
<path fill="none" stroke="#63b8ff" d="M107.77,-15.25C99.98,-15.25 91.77,-15.25 83.89,-15.25"/>
<polygon fill="#63b8ff" stroke="#63b8ff" points="107.63,-18.75 117.63,-15.25 107.63,-11.75 107.63,-18.75"/>
</a>
</g>
</g>
</g>
</svg>
