<?xml version="1.0" encoding="UTF-8" standalone="no"?>
<!DOCTYPE svg PUBLIC "-//W3C//DTD SVG 1.1//EN"
 "http://www.w3.org/Graphics/SVG/1.1/DTD/svg11.dtd">
<!-- Generated by graphviz version 14.1.1 (20251213.1925)
 -->
<!-- Title: CEPBridge::GetIPCDirectory Pages: 1 -->
<svg width="702pt" height="151pt"
 viewBox="0.00 0.00 702.00 151.00" xmlns="http://www.w3.org/2000/svg" xmlns:xlink="http://www.w3.org/1999/xlink">
<g id="graph0" class="graph" transform="scale(1 1) rotate(0) translate(4 147.25)">
<title>CEPBridge::GetIPCDirectory</title>
<!-- Node1 -->
<g id="Node000001" class="node">
<title>Node1</title>
<g id="a_Node000001"><a xlink:title=" ">
<polygon fill="#999999" stroke="#666666" points="694,-105.25 550.5,-105.25 550.5,-86 694,-86 694,-105.25"/>
<text xml:space="preserve" text-anchor="middle" x="622.25" y="-91.75" font-family="Helvetica,sans-Serif" font-size="10.00">CEPBridge::GetIPCDirectory</text>
</a>
</g>
</g>
<!-- Node2 -->
<g id="Node000002" class="node">
<title>Node2</title>
<g id="a_Node000002"><a xlink:href="namespace_c_e_p_bridge.html#a96d7e60dbb95d9693d1dbf50d3bb3e48" target="_top" xlink:title=" ">
<polygon fill="white" stroke="#666666" points="514.5,-105.25 347,-105.25 347,-86 514.5,-86 514.5,-105.25"/>
<text xml:space="preserve" text-anchor="middle" x="430.75" y="-91.75" font-family="Helvetica,sans-Serif" font-size="10.00">CEPBridge::GetCommandFilePath</text>
</a>
</g>
</g>
<!-- Node1&#45;&gt;Node2 -->
<g id="edge1_Node000001_Node000002" class="edge">
<title>Node1&#45;&gt;Node2</title>
<g id="a_edge1_Node000001_Node000002"><a xlink:title=" ">
<path fill="none" stroke="#63b8ff" d="M538.64,-95.62C530.71,-95.62 522.67,-95.62 514.74,-95.62"/>
<polygon fill="#63b8ff" stroke="#63b8ff" points="538.63,-99.13 548.63,-95.63 538.63,-92.13 538.63,-99.13"/>
</a>
</g>
</g>
<!-- Node3 -->
<g id="Node000003" class="node">
<title>Node3</title>
<g id="a_Node000003"><a xlink:href="namespace_c_e_p_bridge.html#a77dbdbaa8288c375333ac5b8a77de1fc" target="_top" xlink:title=" ">
<polygon fill="white" stroke="#666666" points="296,-143.25 189.25,-143.25 189.25,-124 296,-124 296,-143.25"/>
<text xml:space="preserve" text-anchor="middle" x="242.62" y="-129.75" font-family="Helvetica,sans-Serif" font-size="10.00">CEPBridge::Initialize</text>
</a>
</g>
</g>
<!-- Node1&#45;&gt;Node3 -->
<g id="edge8_Node000001_Node000003" class="edge">
<title>Node1&#45;&gt;Node3</title>
<g id="a_edge8_Node000001_Node000003"><a xlink:title=" ">
<path fill="none" stroke="#63b8ff" d="M559.83,-107.71C545.03,-110.3 529.24,-112.8 514.5,-114.62 439.06,-123.96 351.18,-129.07 296.47,-131.58"/>
<polygon fill="#63b8ff" stroke="#63b8ff" points="560.2,-111.2 569.43,-105.98 558.96,-104.31 560.2,-111.2"/>
</a>
</g>
</g>
<!-- Node5 -->
<g id="Node000005" class="node">
<title>Node5</title>
<g id="a_Node000005"><a xlink:href="namespace_c_e_p_bridge.html#a67e87e1daab1a76d4477bd62d463ebb4" target="_top" xlink:title=" ">
<polygon fill="white" stroke="#666666" points="503.62,-62.25 357.88,-62.25 357.88,-43 503.62,-43 503.62,-62.25"/>
<text xml:space="preserve" text-anchor="middle" x="430.75" y="-48.75" font-family="Helvetica,sans-Serif" font-size="10.00">CEPBridge::GetStateFilePath</text>
</a>
</g>
</g>
<!-- Node1&#45;&gt;Node5 -->
<g id="edge5_Node000001_Node000005" class="edge">
<title>Node1&#45;&gt;Node5</title>
<g id="a_edge5_Node000001_Node000005"><a xlink:title=" ">
<path fill="none" stroke="#63b8ff" d="M565.8,-83.04C537.28,-76.57 502.99,-68.79 476.23,-62.72"/>
<polygon fill="#63b8ff" stroke="#63b8ff" points="564.82,-86.41 575.34,-85.21 566.37,-79.58 564.82,-86.41"/>
</a>
</g>
</g>
<!-- Node2&#45;&gt;Node3 -->
<g id="edge2_Node000002_Node000003" class="edge">
<title>Node2&#45;&gt;Node3</title>
<g id="a_edge2_Node000002_Node000003"><a xlink:title=" ">
<path fill="none" stroke="#63b8ff" d="M369.28,-107.97C344.57,-113.02 316.35,-118.78 292.92,-123.56"/>
<polygon fill="#63b8ff" stroke="#63b8ff" points="369.78,-111.44 378.88,-106.01 368.38,-104.58 369.78,-111.44"/>
</a>
</g>
</g>
<!-- Node4 -->
<g id="Node000004" class="node">
<title>Node4</title>
<g id="a_Node000004"><a xlink:href="namespace_c_e_p_bridge.html#af8519400d1d3477e25b45b335e279517" target="_top" xlink:title=" ">
<polygon fill="white" stroke="#666666" points="138.25,-124.25 0,-124.25 0,-105 138.25,-105 138.25,-124.25"/>
<text xml:space="preserve" text-anchor="middle" x="69.12" y="-110.75" font-family="Helvetica,sans-Serif" font-size="10.00">CEPBridge::SendCommand</text>
</a>
</g>
</g>
<!-- Node2&#45;&gt;Node4 -->
<g id="edge4_Node000002_Node000004" class="edge">
<title>Node2&#45;&gt;Node4</title>
<g id="a_edge4_Node000002_Node000004"><a xlink:title=" ">
<path fill="none" stroke="#63b8ff" d="M335.47,-100.61C273.66,-103.87 194.27,-108.07 138.49,-111.01"/>
<polygon fill="#63b8ff" stroke="#63b8ff" points="335.48,-104.11 345.28,-100.09 335.11,-97.12 335.48,-104.11"/>
</a>
</g>
</g>
<!-- Node3&#45;&gt;Node4 -->
<g id="edge3_Node000003_Node000004" class="edge">
<title>Node3&#45;&gt;Node4</title>
<g id="a_edge3_Node000003_Node000004"><a xlink:title=" ">
<path fill="none" stroke="#63b8ff" d="M177.37,-126.51C164.72,-125.1 151.4,-123.63 138.61,-122.21"/>
<polygon fill="#63b8ff" stroke="#63b8ff" points="176.94,-129.98 187.27,-127.6 177.71,-123.02 176.94,-129.98"/>
</a>
</g>
</g>
<!-- Node6 -->
<g id="Node000006" class="node">
<title>Node6</title>
<g id="a_Node000006"><a xlink:href="namespace_c_e_p_bridge.html#a49fc958bb2b6bf669497ba9bc6ac8ceb" target="_top" xlink:title=" ">
<polygon fill="white" stroke="#666666" points="311,-67.88 174.25,-67.88 174.25,-37.38 311,-37.38 311,-67.88"/>
<text xml:space="preserve" text-anchor="start" x="182.25" y="-54.38" font-family="Helvetica,sans-Serif" font-size="10.00">CEPBridge::GetCurrentGrid</text>
<text xml:space="preserve" text-anchor="middle" x="242.62" y="-43.12" font-family="Helvetica,sans-Serif" font-size="10.00">Selection</text>
</a>
</g>
</g>
<!-- Node5&#45;&gt;Node6 -->
<g id="edge6_Node000005_Node000006" class="edge">
<title>Node5&#45;&gt;Node6</title>
<g id="a_edge6_Node000005_Node000006"><a xlink:title=" ">
<path fill="none" stroke="#63b8ff" d="M346.35,-52.62C334.6,-52.62 322.64,-52.62 311.24,-52.62"/>
<polygon fill="#63b8ff" stroke="#63b8ff" points="346.01,-56.13 356.01,-52.63 346.01,-49.13 346.01,-56.13"/>
</a>
</g>
</g>
<!-- Node7 -->
<g id="Node000007" class="node">
<title>Node7</title>
<g id="a_Node000007"><a xlink:href="namespace_c_e_p_bridge.html#a853dc6bfbc25b97fbcd84a3d198335f4" target="_top" xlink:title=" ">
<polygon fill="white" stroke="#666666" points="308.38,-19.25 176.88,-19.25 176.88,0 308.38,0 308.38,-19.25"/>
<text xml:space="preserve" text-anchor="middle" x="242.62" y="-5.75" font-family="Helvetica,sans-Serif" font-size="10.00">CEPBridge::IsPanelActive</text>
</a>
</g>
</g>
<!-- Node5&#45;&gt;Node7 -->
<g id="edge7_Node000005_Node000007" class="edge">
<title>Node5&#45;&gt;Node7</title>
<g id="a_edge7_Node000005_Node000007"><a xlink:title=" ">
<path fill="none" stroke="#63b8ff" d="M374.92,-39.96C346.98,-33.5 313.48,-25.76 287.31,-19.72"/>
<polygon fill="#63b8ff" stroke="#63b8ff" points="374.11,-43.36 384.64,-42.2 375.68,-36.54 374.11,-43.36"/>
</a>
</g>
</g>
</g>
</svg>
