<?xml version="1.0" encoding="UTF-8" standalone="no"?>
<!DOCTYPE svg PUBLIC "-//W3C//DTD SVG 1.1//EN"
 "http://www.w3.org/Graphics/SVG/1.1/DTD/svg11.dtd">
<!-- Generated by graphviz version 14.1.1 (20251213.1925)
 -->
<!-- Title: CEPBridge::Initialize Pages: 1 -->
<svg width="498pt" height="46pt"
 viewBox="0.00 0.00 498.00 46.00" xmlns="http://www.w3.org/2000/svg" xmlns:xlink="http://www.w3.org/1999/xlink">
<g id="graph0" class="graph" transform="scale(1 1) rotate(0) translate(4 42.25)">
<title>CEPBridge::Initialize</title>
<!-- Node1 -->
<g id="Node000001" class="node">
<title>Node1</title>
<g id="a_Node000001"><a xlink:title=" ">
<polygon fill="#999999" stroke="#666666" points="106.75,-19.25 0,-19.25 0,0 106.75,0 106.75,-19.25"/>
<text xml:space="preserve" text-anchor="middle" x="53.38" y="-5.75" font-family="Helvetica,sans-Serif" font-size="10.00">CEPBridge::Initialize</text>
</a>
</g>
</g>
<!-- Node2 -->
<g id="Node000002" class="node">
<title>Node2</title>
<g id="a_Node000002"><a xlink:href="namespace_c_e_p_bridge.html#a96d7e60dbb95d9693d1dbf50d3bb3e48" target="_top" xlink:title=" ">
<polygon fill="white" stroke="#666666" points="310.25,-38.25 142.75,-38.25 142.75,-19 310.25,-19 310.25,-38.25"/>
<text xml:space="preserve" text-anchor="middle" x="226.5" y="-24.75" font-family="Helvetica,sans-Serif" font-size="10.00">CEPBridge::GetCommandFilePath</text>
</a>
</g>
</g>
<!-- Node1&#45;&gt;Node2 -->
<g id="edge1_Node000001_Node000002" class="edge">
<title>Node1&#45;&gt;Node2</title>
<g id="a_edge1_Node000001_Node000002"><a xlink:title=" ">
<path fill="none" stroke="#63b8ff" d="M107.11,-15.48C114.81,-16.34 122.93,-17.24 131.15,-18.15"/>
<polygon fill="#63b8ff" stroke="#63b8ff" points="130.57,-21.61 140.9,-19.23 131.35,-14.65 130.57,-21.61"/>
</a>
</g>
</g>
<!-- Node3 -->
<g id="Node000003" class="node">
<title>Node3</title>
<g id="a_Node000003"><a xlink:href="namespace_c_e_p_bridge.html#a38916a97a3117838a6795def2c7b69e2" target="_top" xlink:title=" ">
<polygon fill="white" stroke="#666666" points="489.75,-19.25 346.25,-19.25 346.25,0 489.75,0 489.75,-19.25"/>
<text xml:space="preserve" text-anchor="middle" x="418" y="-5.75" font-family="Helvetica,sans-Serif" font-size="10.00">CEPBridge::GetIPCDirectory</text>
</a>
</g>
</g>
<!-- Node1&#45;&gt;Node3 -->
<g id="edge3_Node000001_Node000003" class="edge">
<title>Node1&#45;&gt;Node3</title>
<g id="a_edge3_Node000001_Node000003"><a xlink:title=" ">
<path fill="none" stroke="#63b8ff" d="M107.1,-9.62C166.74,-9.62 264.61,-9.62 334.41,-9.62"/>
<polygon fill="#63b8ff" stroke="#63b8ff" points="334.28,-13.13 344.28,-9.63 334.28,-6.13 334.28,-13.13"/>
</a>
</g>
</g>
<!-- Node2&#45;&gt;Node3 -->
<g id="edge2_Node000002_Node000003" class="edge">
<title>Node2&#45;&gt;Node3</title>
<g id="a_edge2_Node000002_Node000003"><a xlink:title=" ">
<path fill="none" stroke="#63b8ff" d="M310.62,-20.29C318.5,-19.5 326.49,-18.7 334.37,-17.91"/>
<polygon fill="#63b8ff" stroke="#63b8ff" points="334.7,-21.39 344.31,-16.91 334.01,-14.43 334.7,-21.39"/>
</a>
</g>
</g>
</g>
</svg>
