<?xml version="1.0" encoding="UTF-8" standalone="no"?>
<!DOCTYPE svg PUBLIC "-//W3C//DTD SVG 1.1//EN"
 "http://www.w3.org/Graphics/SVG/1.1/DTD/svg11.dtd">
<!-- Generated by graphviz version 14.1.1 (20251213.1925)
 -->
<!-- Title: NativeUI::GetClipboardAnchor Pages: 1 -->
<svg width="512pt" height="27pt"
 viewBox="0.00 0.00 512.00 27.00" xmlns="http://www.w3.org/2000/svg" xmlns:xlink="http://www.w3.org/1999/xlink">
<g id="graph0" class="graph" transform="scale(1 1) rotate(0) translate(4 23.25)">
<title>NativeUI::GetClipboardAnchor</title>
<!-- Node1 -->
<g id="Node000001" class="node">
<title>Node1</title>
<g id="a_Node000001"><a xlink:title=" ">
<polygon fill="#999999" stroke="#666666" points="504.25,-19.25 355.5,-19.25 355.5,0 504.25,0 504.25,-19.25"/>
<text xml:space="preserve" text-anchor="middle" x="429.88" y="-5.75" font-family="Helvetica,sans-Serif" font-size="10.00">NativeUI::GetClipboardAnchor</text>
</a>
</g>
</g>
<!-- Node2 -->
<g id="Node000002" class="node">
<title>Node2</title>
<g id="a_Node000002"><a xlink:href="_snap_plugin_8cpp.html#aff4336719f13243e062c7b4e9a15bc03" target="_top" xlink:title=" ">
<polygon fill="white" stroke="#666666" points="319.5,-19.25 210.5,-19.25 210.5,0 319.5,0 319.5,-19.25"/>
<text xml:space="preserve" text-anchor="middle" x="265" y="-5.75" font-family="Helvetica,sans-Serif" font-size="10.00">HideAndApplyAnchor</text>
</a>
</g>
</g>
<!-- Node1&#45;&gt;Node2 -->
<g id="edge1_Node000001_Node000002" class="edge">
<title>Node1&#45;&gt;Node2</title>
<g id="a_edge1_Node000001_Node000002"><a xlink:title=" ">
<path fill="none" stroke="#63b8ff" d="M343.82,-9.62C335.58,-9.62 327.39,-9.62 319.59,-9.62"/>
<polygon fill="#63b8ff" stroke="#63b8ff" points="343.55,-13.13 353.55,-9.63 343.55,-6.13 343.55,-13.13"/>
</a>
</g>
</g>
<!-- Node3 -->
<g id="Node000003" class="node">
<title>Node3</title>
<g id="a_Node000003"><a xlink:href="_snap_plugin_8cpp.html#a6d08fca2bd60bcf863b00515610f1237" target="_top" xlink:title=" ">
<polygon fill="white" stroke="#666666" points="174.5,-19.25 119.5,-19.25 119.5,0 174.5,0 174.5,-19.25"/>
<text xml:space="preserve" text-anchor="middle" x="147" y="-5.75" font-family="Helvetica,sans-Serif" font-size="10.00">IdleHook</text>
</a>
</g>
</g>
<!-- Node2&#45;&gt;Node3 -->
<g id="edge2_Node000002_Node000003" class="edge">
<title>Node2&#45;&gt;Node3</title>
<g id="a_edge2_Node000002_Node000003"><a xlink:title=" ">
<path fill="none" stroke="#63b8ff" d="M198.64,-9.62C190.31,-9.62 182.18,-9.62 174.95,-9.62"/>
<polygon fill="#63b8ff" stroke="#63b8ff" points="198.56,-13.13 208.56,-9.63 198.56,-6.13 198.56,-13.13"/>
</a>
</g>
</g>
<!-- Node4 -->
<g id="Node000004" class="node">
<title>Node4</title>
<g id="a_Node000004"><a xlink:href="_snap_plugin_8cpp.html#a93ac7ff3ad6003dabd3b1a84dce8165a" target="_top" xlink:title=" ">
<polygon fill="white" stroke="#666666" points="83.5,-19.25 0,-19.25 0,0 83.5,0 83.5,-19.25"/>
<text xml:space="preserve" text-anchor="middle" x="41.75" y="-5.75" font-family="Helvetica,sans-Serif" font-size="10.00">EntryPointFunc</text>
</a>
</g>
</g>
<!-- Node3&#45;&gt;Node4 -->
<g id="edge3_Node000003_Node000004" class="edge">
<title>Node3&#45;&gt;Node4</title>
<g id="a_edge3_Node000003_Node000004"><a xlink:title=" ">
<path fill="none" stroke="#63b8ff" d="M107.77,-9.62C99.98,-9.62 91.77,-9.62 83.89,-9.62"/>
<polygon fill="#63b8ff" stroke="#63b8ff" points="107.63,-13.13 117.63,-9.63 107.63,-6.13 107.63,-13.13"/>
</a>
</g>
</g>
</g>
</svg>
